<svg width="227" height="153" viewBox="0 0 227 153" fill="none" xmlns="http://www.w3.org/2000/svg">
<path opacity="0.35" d="M59.5469 0.999996C47.5469 0.999996 34.2969 4.5 24.5469 12.75C7.29688 26.75 0.546875 52.5 0.546875 76C0.546875 103.5 5.54688 130.5 24.5469 144.5C32.7969 150.75 42.7969 153 55.2969 153C65.2969 153 76.0469 150 84.0469 144.75C105.547 130.25 112.297 102.75 112.297 73.5C112.297 47.75 106.047 28.75 96.2969 17.5C89.0469 7.75 76.5469 0.999996 59.5469 0.999996ZM55.2969 10.75C69.0469 10.75 77.2969 33.75 77.2969 78C77.2969 121.25 72.2969 134.75 67.0469 139.75C65.5469 141.25 62.7969 142.75 59.2969 142.75C46.0469 142.75 36.5469 121.75 36.5469 71C36.5469 40.5 41.2969 20.25 48.2969 13.5C50.0469 11.75 52.7969 10.75 55.2969 10.75ZM225.5 142C222 141.75 218 141.5 211.75 140C205.5 138.5 204.25 132.75 203.75 123.5C202.75 103 203 62.25 203 42.25C203 21.75 203.25 12.5 204.25 3C204.25 2 201.5 0.499988 200.5 0.999996C189 5.5 168.5 12.5 148.75 13.75C147.75 14.5 147 21.25 148 22.5C151.75 23 157.5 23.75 161 24.5C164.75 25.25 167 28.75 167.25 33C168 39.75 168 57.5 168 77.5C167.75 98.25 167.75 114.25 167.25 124.5C167 132.25 166 138.75 158.5 140.5C154 141.25 151.25 141.25 144.5 142.25C143.5 143.25 143.5 149.75 144.5 150.75C154.5 150.75 165.5 150 182.25 150C197.25 150 213 150.75 224.5 150.75C225.75 149.75 226.25 143 225.5 142Z" fill="#DDC6AE"/>
</svg>
