<svg width="258" height="152" viewBox="0 0 258 152" fill="none" xmlns="http://www.w3.org/2000/svg">
<path opacity="0.35" d="M59.4043 -3.93391e-06C47.4043 -3.93391e-06 34.1543 3.5 24.4043 11.75C7.1543 25.75 0.404297 51.5 0.404297 75C0.404297 102.5 5.4043 129.5 24.4043 143.5C32.6543 149.75 42.6543 152 55.1543 152C65.1543 152 75.9043 149 83.9043 143.75C105.404 129.25 112.154 101.75 112.154 72.5C112.154 46.75 105.904 27.75 96.1543 16.5C88.9043 6.75 76.4043 -3.93391e-06 59.4043 -3.93391e-06ZM55.1543 9.74999C68.9043 9.74999 77.1543 32.75 77.1543 77C77.1543 120.25 72.1543 133.75 66.9043 138.75C65.4043 140.25 62.6543 141.75 59.1543 141.75C45.9043 141.75 36.4043 120.75 36.4043 70C36.4043 39.5 41.1543 19.25 48.1543 12.5C49.9043 10.75 52.6543 9.74999 55.1543 9.74999ZM178.047 26.25C195.297 26.25 203.797 39.75 203.797 56.75C203.797 71.75 197.047 86.75 187.547 99.75C175.047 116 161.047 129 143.797 141.75C143.797 144.25 144.047 147 144.547 149.5C148.797 149.25 154.547 149 161.547 149C182.797 149 210.047 150.5 228.547 149.75C236.797 149.5 239.797 148.75 241.047 147C247.297 139.75 255.297 112.75 257.297 104C256.797 102.75 250.297 100.25 249.047 101C242.047 115.5 234.797 121.75 229.297 122C217.547 122.25 192.547 121.75 185.297 120.75C183.547 120.5 184.297 119.5 184.297 118.75C193.047 111.25 201.297 104.75 210.797 95.25C229.047 77 237.797 62.75 237.797 45.5C237.797 17.75 217.797 -3.93391e-06 194.797 -3.93391e-06C175.797 -3.93391e-06 156.047 12.25 142.297 34.75C142.047 36.25 146.797 41.75 148.297 41.25C159.297 29.5 168.797 26.25 178.047 26.25Z" fill="#DDC6AE"/>
</svg>
