<svg width="250" height="160" viewBox="0 0 250 160" fill="none" xmlns="http://www.w3.org/2000/svg">
<path opacity="0.35" d="M59.5 -3.93391e-06C47.5 -3.93391e-06 34.25 3.5 24.5 11.75C7.25 25.75 0.5 51.5 0.5 75C0.5 102.5 5.5 129.5 24.5 143.5C32.75 149.75 42.75 152 55.25 152C65.25 152 76 149 84 143.75C105.5 129.25 112.25 101.75 112.25 72.5C112.25 46.75 106 27.75 96.25 16.5C89 6.75 76.5 -3.93391e-06 59.5 -3.93391e-06ZM55.25 9.74999C69 9.74999 77.25 32.75 77.25 77C77.25 120.25 72.25 133.75 67 138.75C65.5 140.25 62.75 141.75 59.25 141.75C46 141.75 36.5 120.75 36.5 70C36.5 39.5 41.25 19.25 48.25 12.5C50 10.75 52.75 9.74999 55.25 9.74999ZM198.143 -3.93391e-06C175.893 -3.93391e-06 157.143 18.75 149.643 28.75C149.393 30.5 152.393 36.25 153.893 36C163.143 27.75 172.393 23 182.143 23C199.143 23 206.893 35.5 206.893 48C206.893 61 198.393 67.75 176.893 72C175.643 73 170.893 84.25 171.393 86C176.143 85.5 175.893 85.5 179.393 85.5C201.893 85.5 215.893 100.5 215.893 120.25C215.893 140 203.393 148.5 191.893 148.5C183.893 148.5 178.393 147.75 171.393 144C163.893 140.25 155.893 132.5 151.643 123C150.393 123.25 144.893 125.75 144.393 127C144.893 132.5 146.893 140.25 148.893 145.75C151.143 150.5 153.643 153.25 157.643 155.25C163.393 157.75 171.393 159.5 181.643 159.5C196.143 159.5 211.393 155.25 223.643 147.25C239.143 137.5 249.143 122 249.143 105.5C249.143 85.25 234.643 72.75 212.893 66C212.643 65.75 212.643 65.25 213.143 65C226.143 56.75 236.893 48.25 236.893 35.25C236.893 15.5 221.893 -3.93391e-06 198.143 -3.93391e-06Z" fill="#DDC6AE"/>
</svg>
