<svg width="121" height="121" viewBox="0 0 121 121" fill="none" xmlns="http://www.w3.org/2000/svg">
<g clip-path="url(#clip0_860_4052)">
<path d="M0.242188 60.4598C0.242188 93.7751 27.2655 120.798 60.5809 120.798C93.8962 120.798 120.92 93.7751 120.92 60.4598C120.92 27.1444 93.8962 0.121094 60.5809 0.121094C27.2655 0.121094 0.242188 27.1444 0.242188 60.4598Z" fill="url(#paint0_linear_860_4052)"/>
<path d="M18.2308 26.4989C18.2308 26.4989 18.0291 28.1123 17.6661 30.8953C17.4645 32.3069 17.3031 34.0009 17.1015 35.9369C16.8998 37.8729 16.6578 40.0913 16.4965 42.5113C16.3351 44.9313 16.1335 47.5529 16.0528 50.2956C15.9721 53.0786 15.9721 55.9826 16.0528 58.9673C16.1738 61.9519 16.4158 65.0576 16.8191 68.1633C17.2225 71.2689 17.7871 74.3746 18.6745 77.3593C19.0778 78.8516 19.6021 80.3036 20.1668 81.7153C20.7315 83.1269 21.4171 84.4579 22.1835 85.7486C23.7968 88.2896 25.6118 90.7096 27.5478 92.8473C29.4838 94.9849 31.6215 96.8403 33.7995 98.4536C36.0178 100.067 38.2765 101.398 40.2931 102.85C42.3098 104.262 44.0038 105.915 45.1331 107.609C46.2625 109.303 46.8675 110.957 47.3111 112.328C47.6741 113.7 47.9161 114.789 47.9968 115.555C48.1178 116.321 48.1581 116.725 48.1581 116.725L47.9161 116.765C47.9161 116.765 47.8355 116.362 47.6741 115.636C47.5128 114.91 47.2305 113.821 46.7465 112.53C46.2221 111.239 45.5365 109.666 44.3265 108.214C43.1568 106.722 41.5031 105.31 39.4865 104.1C37.4698 102.89 35.0901 101.761 32.5895 100.39C30.1291 99.0183 27.5478 97.3243 25.2085 95.1463C22.8691 93.0086 20.8121 90.4273 19.0778 87.5636C17.3435 84.6193 16.2141 81.3926 15.4881 78.1256C14.7621 74.8586 14.4395 71.5513 14.2378 68.3649C14.0765 65.1383 14.1571 61.9923 14.2781 58.9269C14.3991 55.8616 14.6008 52.9576 14.8831 50.1746C15.1655 47.3916 15.4075 44.7699 15.7301 42.3903C16.0528 39.9703 16.3351 37.7923 16.5771 35.8159C16.8595 33.8799 17.1015 32.1859 17.3031 30.7743C17.7065 27.9913 17.9485 26.3779 17.9485 26.3779L18.2308 26.4989Z" fill="white"/>
<path d="M78.9727 58.0798C80.1424 58.0798 80.949 57.1925 81.2314 56.9102V56.3052C81.0701 56.4665 80.6667 56.7892 80.1424 56.7892C78.4887 56.7892 78.6097 54.2885 78.6097 54.2885V46.3832C78.8517 46.3832 79.3357 46.3832 79.6584 46.3832C79.9407 46.3832 80.9894 46.3832 80.9894 46.3832V45.4152H78.6501L78.6097 45.3748C78.6097 45.4555 78.6097 41.5835 78.6097 41.5835V41.3818L76.3107 42.6322V45.4152H74.0117V46.3832H76.3107V54.4498C76.2704 54.4498 76.0284 58.0798 78.9727 58.0798Z" fill="white"/>
<path d="M95.1062 47.2301C95.6709 47.5124 95.7515 48.1174 95.7515 48.1577L96.5179 47.2301C96.5179 47.1091 97.5665 46.1814 97.4859 46.1007C96.0339 44.4874 94.3399 45.6974 93.7752 46.0604C93.3719 46.3427 92.8879 46.7461 92.7265 46.9074V45.4957H92.6862L90.3872 46.9881V58.0394H92.7265V48.3594C93.0089 47.9157 94.0172 46.7057 95.1062 47.2301Z" fill="white"/>
<path d="M86.7976 58.1605C88.7739 58.1605 90.1452 57.1925 90.1452 57.1925L89.7016 56.5471C89.7016 56.5471 88.5319 57.1118 87.1202 57.0715C85.9102 57.0311 84.0952 56.2245 83.3289 53.8448L84.1356 52.9575L89.4192 47.7545C89.4192 47.7545 89.2176 45.3345 85.9102 45.3345C83.2482 45.3345 80.5459 47.3108 80.5459 51.9491C80.5459 56.4261 84.3776 58.1605 86.7976 58.1605ZM85.6279 46.2621C86.6362 46.3025 86.9992 47.5125 86.8782 48.2385C86.7572 49.2871 85.9909 50.0938 85.9909 50.0938L83.2079 52.7961C83.1676 52.6348 83.1676 52.4331 83.1272 52.2718C82.6432 48.7225 83.8936 46.2218 85.6279 46.2621Z" fill="white"/>
<path d="M68.1232 57.9187V48.2387C68.4459 47.795 69.4139 46.5447 70.5432 47.1093C71.1079 47.3917 71.1886 47.9967 71.1482 48.037V57.9187H73.5279V48.037C73.5279 47.916 73.5682 46.948 73.0439 46.1817C71.7532 44.407 69.7769 45.5767 69.2122 45.9397C68.8089 46.222 68.3249 46.6253 68.1636 46.7867V45.375H68.1232L65.8242 46.8673V57.9187H68.1232Z" fill="white"/>
<path d="M46.1416 51.8686C46.1416 55.6599 49.0053 57.4346 51.2236 57.9589C51.6673 58.0396 52.0706 58.1202 52.4336 58.1202C54.0873 58.1202 55.7006 57.1926 56.0233 56.9909C56.7896 57.8379 57.9996 58.1202 58.9676 58.1202C60.2986 58.1202 61.5893 57.5152 62.3153 57.1119V57.9589H64.6546V48.8032C64.6546 48.6822 64.5336 47.4722 63.9689 46.7462C63.0009 45.6169 62.0329 45.2942 60.6213 45.2942C59.0483 45.2942 57.9996 45.9396 57.4349 46.3026L55.9023 49.5292L56.5073 49.8116C56.8703 49.2066 58.6853 46.4236 60.5406 46.4236C62.1943 46.4236 62.3153 47.7546 62.3153 47.9966C61.3069 48.3999 55.2973 51.0216 55.2973 54.8532C55.2973 55.4179 55.4183 55.9019 55.6199 56.3052C55.2166 56.4666 53.9663 56.9909 52.7966 56.9506C51.5866 56.9102 49.6909 55.9019 48.8843 52.9979C48.1583 50.0132 48.8843 46.3429 51.2639 46.3429C53.2806 46.3429 54.0066 48.5612 54.0873 48.8436L54.7729 48.5209L53.6436 45.6169C53.1596 45.4556 52.5546 45.2539 51.7883 45.2539C49.4489 45.2539 46.1416 47.2302 46.1416 51.8686ZM62.2749 49.0452V56.1036C61.9523 56.4262 61.1859 56.8699 59.6533 56.8296C58.5239 56.7892 57.7576 55.5389 57.7979 54.5709C57.9189 51.2636 61.4683 49.4486 62.2749 49.0452Z" fill="white"/>
<path d="M23.7969 57.9185H27.5882C27.5882 57.9185 36.7439 58.4832 36.7439 49.5695C36.7439 40.9785 27.5479 41.3819 27.5479 41.3819H23.7969V42.1079H25.0069V57.3135H23.7969V57.9185ZM33.9205 49.5695C33.9205 57.1119 27.4672 57.3135 27.4672 57.3135V42.1079C27.4672 42.0675 33.9205 41.7852 33.9205 49.5695Z" fill="white"/>
<path d="M46.222 47.6739C46.222 47.6739 46.0203 45.2539 42.713 45.2539C40.051 45.2539 37.3486 47.2302 37.3486 51.8686C37.3486 56.3859 41.1803 58.0799 43.6003 58.0799C45.5766 58.0799 46.948 57.1119 46.948 57.1119L46.5043 56.4262C46.5043 56.4262 45.3346 56.9909 43.923 56.9506C42.713 56.9102 40.898 56.1036 40.1316 53.7239L40.9383 52.8366L46.222 47.6739ZM39.9703 52.7559C39.93 52.5946 39.93 52.3929 39.8896 52.2316C39.4056 48.6822 40.6963 46.1816 42.3903 46.2219C43.3986 46.2622 43.7616 47.4722 43.6406 48.1982C43.5196 49.2469 42.7533 50.0536 42.7533 50.0536L39.9703 52.7559Z" fill="white"/>
<path d="M97.4456 44.6087C97.4053 44.6491 97.365 44.6491 97.3246 44.6491C97.244 44.6491 97.1633 44.6087 97.123 44.5281C97.0826 44.4877 97.0826 44.4071 97.0826 44.2861C97.0826 44.1651 97.123 44.0844 97.1633 44.0037C97.2036 43.9634 97.244 43.9231 97.3246 43.9231C97.365 43.9231 97.4456 43.9231 97.486 43.9634C97.5263 44.0037 97.5666 44.0441 97.5666 44.1247L97.8086 44.0844C97.8086 43.9634 97.728 43.8827 97.6473 43.8424C97.5666 43.7617 97.4456 43.7617 97.3246 43.7617C97.1633 43.7617 97.0423 43.8021 96.9616 43.9231C96.881 44.0441 96.8003 44.1651 96.8003 44.3264C96.8003 44.4877 96.8406 44.6087 96.9616 44.7297C97.0423 44.8507 97.2036 44.8911 97.3246 44.8911C97.486 44.8911 97.5666 44.8507 97.6876 44.7701C97.728 44.7297 97.8086 44.6491 97.8086 44.5281L97.5666 44.4474C97.5263 44.5281 97.486 44.5684 97.4456 44.6087Z" fill="white"/>
<path d="M98.1714 43.8019C98.0908 43.6405 97.9698 43.5195 97.8084 43.4389C97.6471 43.3582 97.4858 43.3179 97.3244 43.3179C97.1631 43.3179 97.0018 43.3582 96.8405 43.4389C96.6791 43.5195 96.5581 43.6405 96.4774 43.8019C96.3968 43.9632 96.3564 44.1245 96.3564 44.2859C96.3564 44.4472 96.3968 44.6085 96.4774 44.7699C96.5581 44.9312 96.6791 45.0522 96.8405 45.1329C97.0018 45.2135 97.1631 45.2539 97.3244 45.2539C97.4858 45.2539 97.6471 45.2135 97.8084 45.1329C97.9698 45.0522 98.0908 44.9312 98.1714 44.7699C98.2521 44.6085 98.2924 44.4472 98.2924 44.2859C98.2924 44.1245 98.2521 43.9632 98.1714 43.8019ZM97.8891 44.8505C97.7278 45.0119 97.5664 45.0925 97.3244 45.0925C97.1228 45.0925 96.9211 45.0119 96.7598 44.8505C96.5984 44.6892 96.5178 44.5279 96.5178 44.2859C96.5178 44.0842 96.5984 43.8825 96.7598 43.7212C96.9211 43.5599 97.0824 43.4792 97.3244 43.4792C97.5261 43.4792 97.7278 43.5599 97.8891 43.7212C98.0504 43.8825 98.1311 44.0439 98.1311 44.2859C98.0908 44.5279 98.0504 44.6892 97.8891 44.8505Z" fill="white"/>
<path d="M35.09 66.0655C35.09 67.5578 33.9203 68.6872 32.4683 68.6872C31.0163 68.6872 29.8467 67.5578 29.8467 66.0655C29.8467 64.6135 31.0567 63.4438 32.4683 63.4438C33.9203 63.4438 35.09 64.6135 35.09 66.0655ZM34.485 66.0655C34.485 64.9765 33.638 64.0488 32.4683 64.0488C31.2987 64.0488 30.4517 64.9765 30.4517 66.0655C30.4517 67.2352 31.3793 68.1225 32.4683 68.1225C33.5573 68.0822 34.485 67.1948 34.485 66.0655Z" fill="white"/>
<path d="M39.043 68.5666H38.2766L36.7843 66.4289H36.5423V68.5666H35.897V63.5249H36.6633C37.107 63.5249 37.591 63.5249 37.9943 63.7669C38.3976 64.0089 38.6396 64.4929 38.6396 64.9769C38.6396 65.7029 38.1556 66.3079 37.4296 66.3886L39.043 68.5666ZM36.5423 65.9046H36.744C37.3893 65.9046 38.075 65.7836 38.075 64.9769C38.075 64.1702 37.3086 64.0896 36.7036 64.0896H36.5423V65.9046Z" fill="white"/>
<path d="M40.3738 68.0019H41.9065V68.5666H39.7285V63.5249H40.3738V68.0019Z" fill="white"/>
<path d="M42.4307 63.5249H43.4793C45.012 63.5249 46.3027 64.3316 46.3027 66.0256C46.3027 67.7599 45.0523 68.5666 43.439 68.5666H42.4307V63.5249ZM43.076 68.0019H43.2777C44.5683 68.0019 45.6573 67.5179 45.6573 66.0659C45.6573 64.6139 44.5683 64.1299 43.2777 64.1299H43.076V68.0019Z" fill="white"/>
<path d="M50.2555 67.1545L51.7075 63.4438L53.1192 67.1545L54.5309 63.5245H55.2165L53.1192 68.7678L51.7075 65.0975L50.2555 68.7678L48.1582 63.5245H48.8439L50.2555 67.1545Z" fill="white"/>
<path d="M56.4266 63.5249H55.7812V68.5666H56.4266V63.5249Z" fill="white"/>
<path d="M57.4751 63.2827L61.2664 67.2757V63.5247H61.8714V68.7681L58.1204 64.8154V68.5664H57.4751V63.2827Z" fill="white"/>
<path d="M62.9604 63.5249H65.6628V64.1299H63.6058V65.5012H65.6224V66.1062H63.6058V68.0019H65.6628V68.5666H62.9604V63.5249Z" fill="white"/>
<path d="M68.9701 67.3162L68.4054 68.5666H67.7197L70.1397 63.3232L72.5597 68.5666H71.8741L71.3094 67.3162H68.9701ZM70.0994 64.6946L69.2121 66.7112H70.9867L70.0994 64.6946Z" fill="white"/>
<path d="M74.0119 67.1545L75.4235 63.4438L76.8352 67.1545L78.2469 63.5245H78.9325L76.8352 68.7678L75.4235 65.0975L74.0119 68.7678L71.9146 63.5245H72.6002L74.0119 67.1545Z" fill="white"/>
<path d="M79.578 67.3162L79.0133 68.5666H78.3276L80.7476 63.3232L83.1676 68.5666H82.482L81.9173 67.3162H79.578ZM80.7476 64.6946L79.8603 66.7112H81.635L80.7476 64.6946Z" fill="white"/>
<path d="M86.8779 68.5666H86.1116L84.6193 66.4289H84.3773V68.5666H83.7319V63.5249H84.4983C84.9419 63.5249 85.4259 63.5249 85.8293 63.7669C86.2326 64.0089 86.4746 64.4929 86.4746 64.9769C86.4746 65.7029 85.9906 66.3079 85.2646 66.3886L86.8779 68.5666ZM84.3773 65.9046H84.5789C85.2243 65.9046 85.9099 65.7836 85.9099 64.9769C85.9099 64.1702 85.1436 64.0896 84.5386 64.0896H84.3773V65.9046Z" fill="white"/>
<path d="M87.5234 63.5249H88.5721C90.1048 63.5249 91.3954 64.3316 91.3954 66.0256C91.3954 67.7599 90.1451 68.5666 88.5318 68.5666H87.5234V63.5249ZM88.1284 68.0019H88.3301C89.6208 68.0019 90.7098 67.5179 90.7098 66.0659C90.7098 64.6139 89.6208 64.1299 88.3301 64.1299H88.1284V68.0019Z" fill="white"/>
<path d="M94.4609 64.4925C94.2593 64.1698 94.0173 64.0085 93.6543 64.0085C93.2509 64.0085 92.8073 64.2908 92.8073 64.7345C92.8073 65.1378 93.2106 65.3395 93.4929 65.4605L93.8559 65.5815C94.5819 65.8638 95.1063 66.2672 95.1063 67.1142C95.1063 68.0418 94.3803 68.6872 93.4929 68.6872C92.6863 68.6872 92.0409 68.0822 91.9199 67.2755L92.5653 67.1545C92.5653 67.7192 93.0089 68.1225 93.5333 68.1225C94.0576 68.1225 94.4609 67.6788 94.4609 67.1545C94.4609 66.6302 94.0173 66.3882 93.5736 66.1865L93.2106 66.0252C92.6459 65.7832 92.1216 65.4605 92.1216 64.7345C92.1216 63.9278 92.8476 63.4438 93.6139 63.4438C94.1786 63.4438 94.6223 63.7262 94.9046 64.2102L94.4609 64.4925Z" fill="white"/>
<path d="M25.5714 66.7109L26.8218 63.3633L28.1124 66.7109L29.4031 63.4439H30.0081L28.1124 68.1629L26.8218 64.8556L25.5714 68.1629L23.6758 63.4439H24.2808L25.5714 66.7109Z" fill="white"/>
<path d="M94.2589 75.5444H22.8286V76.1494H94.2589V75.5444Z" fill="white"/>
<path d="M54.6919 35.0903C54.5305 35.7357 54.3692 36.381 54.2482 36.9053H49.6099V36.623C50.2552 35.9777 50.9409 35.3323 51.5459 34.6467C52.3525 33.719 52.9172 32.7913 52.9172 31.8233C52.9172 30.936 52.4735 30.3713 51.6265 30.3713C50.8602 30.3713 50.3762 30.936 50.0132 31.4603L49.6905 31.2183L50.4165 30.1293C50.8199 29.6857 51.4249 29.4033 52.1509 29.4033C53.2802 29.4033 54.2482 30.1697 54.2482 31.5007C54.2482 32.4687 53.7642 33.1947 52.6349 34.324L51.1425 35.8567H53.1592C53.8449 35.8567 53.9659 35.8163 54.3692 35.05L54.6919 35.0903Z" fill="white"/>
<path d="M60.4594 33.1945C60.4594 34.9289 59.8141 37.0665 57.9184 37.0665C56.0228 37.0665 55.3774 35.0095 55.3774 33.2349C55.3774 31.4602 56.0631 29.3629 57.9588 29.3629C59.8141 29.3225 60.4594 31.4199 60.4594 33.1945ZM56.7488 33.1542C56.7488 34.7675 57.0311 36.5825 57.9184 36.5825C58.8058 36.5825 59.0478 34.8482 59.0478 33.1945C59.0478 31.5005 58.7654 29.8065 57.9184 29.8065C56.9908 29.8065 56.7488 31.5409 56.7488 33.1542Z" fill="white"/>
<path d="M66.2273 35.0903C66.066 35.7357 65.9046 36.381 65.7836 36.9053H61.105V36.623C61.7503 35.9777 62.436 35.3323 63.041 34.6467C63.8476 33.719 64.4123 32.7913 64.4123 31.8233C64.4123 30.936 63.9686 30.3713 63.1216 30.3713C62.3553 30.3713 61.8713 30.936 61.5083 31.4603L61.1856 31.2183L61.9116 30.1293C62.315 29.6857 62.92 29.4033 63.646 29.4033C64.7753 29.4033 65.7433 30.1697 65.7433 31.5007C65.7433 32.4687 65.2593 33.1947 64.13 34.324L62.6376 35.8567H64.6543C65.34 35.8567 65.461 35.8163 65.8643 35.05L66.2273 35.0903Z" fill="white"/>
<path d="M71.9546 33.1945C71.9546 34.9289 71.3092 37.0665 69.4136 37.0665C67.4776 37.0665 66.8726 35.0095 66.8726 33.2349C66.8726 31.4602 67.5582 29.3629 69.4539 29.3629C71.3092 29.3225 71.9546 31.4199 71.9546 33.1945ZM68.2439 33.1542C68.2439 34.7675 68.5262 36.5825 69.4136 36.5825C70.3009 36.5825 70.5429 34.8482 70.5429 33.1945C70.5429 31.5005 70.2606 29.8065 69.4136 29.8065C68.4859 29.8065 68.2439 31.5409 68.2439 33.1542Z" fill="white"/>
<path d="M51.9898 87.7653C51.2638 87.8863 51.1832 87.967 51.1832 88.8543V89.9836C51.1832 90.4676 51.1832 90.9516 51.2638 91.2743C50.4168 91.476 49.2068 91.7986 48.1178 91.7986C44.9315 91.7986 42.8745 89.9433 42.8745 87.1603C42.8745 83.9336 45.4558 82.3203 48.3195 82.3203C49.4488 82.3203 50.5378 82.6026 51.0218 82.7236C51.0622 83.2076 51.1428 83.9336 51.2638 84.9823L50.7798 85.063C50.4168 83.4496 49.3682 82.885 48.0775 82.885C46.2222 82.885 44.7298 84.4176 44.7298 86.9586C44.7298 89.0156 45.8188 91.2743 48.2388 91.2743C48.6018 91.2743 48.9648 91.1936 49.2068 91.0726C49.4488 90.9516 49.5698 90.7096 49.5698 90.266V88.9753C49.5698 88.0073 49.4892 87.8863 48.0775 87.7653V87.3216H52.0302V87.7653H51.9898Z" fill="white"/>
<path d="M62.3151 86.999C62.3151 89.9836 60.1775 91.839 57.5558 91.839C54.8535 91.839 52.9175 89.8223 52.9175 87.12C52.9175 84.7 54.6518 82.3203 57.7172 82.3203C60.1775 82.3203 62.3151 84.216 62.3151 86.999ZM54.7728 86.7973C54.7728 89.2576 55.9425 91.234 57.7978 91.234C59.2095 91.234 60.3791 89.9433 60.3791 87.3216C60.3791 84.4983 59.1288 82.8446 57.3945 82.8446C55.9828 82.885 54.7728 84.337 54.7728 86.7973Z" fill="white"/>
<path d="M70.2611 89.298C70.1401 89.8223 69.8577 91.1936 69.7367 91.597H63.1221V91.1533C64.2917 91.0726 64.4531 90.9516 64.4531 89.782V84.337C64.4531 83.1673 64.3321 83.0866 63.2431 82.9656V82.522H67.2764V82.9656C66.1874 83.0463 66.0664 83.127 66.0664 84.337V89.8223C66.0664 90.508 66.1067 90.7903 66.3891 90.9113C66.6311 91.0323 67.0344 91.0323 67.5184 91.0323C68.2041 91.0323 68.6881 90.9516 69.0107 90.5886C69.2931 90.3063 69.5351 89.8626 69.7771 89.177L70.2611 89.298Z" fill="white"/>
<path d="M75.0203 82.5623C76.795 82.5623 78.126 82.9253 79.0133 83.7723C79.699 84.4176 80.2233 85.426 80.2233 86.757C80.2233 88.451 79.5377 89.661 78.489 90.4676C77.4404 91.2743 76.0287 91.6373 74.2943 91.6373H70.8257V91.1533C71.955 91.0726 72.076 90.9516 72.076 89.782V84.337C72.076 83.127 71.955 83.0463 70.9467 82.9656V82.522H75.0203V82.5623ZM73.6893 89.7013C73.6893 90.7096 74.012 91.0323 74.98 91.0323C77.1177 91.0323 78.368 89.3786 78.368 86.9586C78.368 85.5873 77.9243 84.458 77.1177 83.8126C76.5127 83.2883 75.7463 83.0463 74.8187 83.0463C74.2943 83.0463 73.9717 83.127 73.8507 83.248C73.7297 83.369 73.6893 83.5706 73.6893 84.0143V89.7013Z" fill="white"/>
</g>
<defs>
<linearGradient id="paint0_linear_860_4052" x1="21.0248" y1="21.7171" x2="101.038" y2="100.055" gradientUnits="userSpaceOnUse">
<stop stop-color="#E8D498"/>
<stop offset="0.0834667" stop-color="#DDC689"/>
<stop offset="0.2844" stop-color="#C6A96C"/>
<stop offset="0.4571" stop-color="#B89759"/>
<stop offset="0.5804" stop-color="#B39153"/>
<stop offset="0.6525" stop-color="#B59456"/>
<stop offset="0.7097" stop-color="#BD9E60"/>
<stop offset="0.7617" stop-color="#CAAE71"/>
<stop offset="0.8105" stop-color="#DCC588"/>
<stop offset="0.8363" stop-color="#E8D498"/>
<stop offset="0.8785" stop-color="#D2B87B"/>
<stop offset="0.9215" stop-color="#C1A265"/>
<stop offset="0.9627" stop-color="#B69558"/>
<stop offset="1" stop-color="#B39153"/>
</linearGradient>
<clipPath id="clip0_860_4052">
<rect width="121" height="121" fill="white"/>
</clipPath>
</defs>
</svg>
