<svg width="121" height="121" viewBox="0 0 121 121" fill="none" xmlns="http://www.w3.org/2000/svg">
<mask id="mask0_860_3764" style="mask-type:alpha" maskUnits="userSpaceOnUse" x="0" y="0" width="121" height="121">
<circle cx="60.5" cy="60.5" r="60.5" fill="#D9D9D9"/>
</mask>
<g mask="url(#mask0_860_3764)">
<path d="M67.8394 -38L159.8 67.8394L53.9604 159.833L-38 53.9937L67.8394 -38Z" fill="url(#paint0_linear_860_3764)"/>
<path d="M26.0359 32.7927C26.0359 32.7927 25.8695 34.124 25.5699 36.4205C25.4035 37.5854 25.2704 38.9833 25.104 40.5809C24.9376 42.1785 24.7379 44.009 24.6047 46.006C24.4716 48.003 24.3052 50.1664 24.2386 52.4296C24.1721 54.7261 24.1721 57.1225 24.2386 59.5854C24.3385 62.0483 24.5382 64.6111 24.871 67.1739C25.2038 69.7367 25.6698 72.2994 26.402 74.7624C26.7348 75.9938 27.1675 77.192 27.6335 78.3569C28.0994 79.5218 28.6652 80.6201 29.2976 81.6852C30.6289 83.782 32.1267 85.779 33.7242 87.543C35.3218 89.307 37.0858 90.838 38.8831 92.1693C40.6803 93.5006 42.5775 94.5989 44.2416 95.7971C45.9057 96.962 47.3036 98.3266 48.2355 99.7245C49.1675 101.122 49.6667 102.487 50.0328 103.619C50.3324 104.75 50.5321 105.649 50.5986 106.281C50.6985 106.914 50.7317 107.246 50.7317 107.246L50.5321 107.28C50.5321 107.28 50.4655 106.947 50.3324 106.348C50.1992 105.749 49.9662 104.85 49.5669 103.785C49.1342 102.72 48.5684 101.422 47.5699 100.224C46.6047 98.9923 45.2401 97.8274 43.5759 96.8289C41.9118 95.8304 39.9481 94.8985 37.8846 93.7669C35.8543 92.6352 33.7242 91.2374 31.8271 89.4401C29.8967 87.6761 28.1993 85.546 26.8014 83.1829C25.3702 80.7533 24.4383 78.0906 23.8392 75.3947C23.2401 72.6988 22.9739 69.9696 22.8075 67.3403C22.6743 64.6777 22.7409 62.0816 22.8407 59.5521C22.9406 57.0226 23.107 54.6263 23.34 52.3297C23.573 50.0332 23.7727 47.9031 24.0389 45.9062C24.3052 43.9092 24.5382 42.1119 24.7379 40.4811C24.9708 38.8835 25.1705 37.4856 25.337 36.3207C25.6698 34.0242 25.8695 32.6929 25.8695 32.6929L26.0359 32.7927Z" fill="white"/>
<path d="M76.1602 58.8529C77.1254 58.8529 77.791 58.1207 78.024 57.8877V57.3885C77.8909 57.5216 77.5581 57.7878 77.1254 57.7878C75.7608 57.7878 75.8606 55.7243 75.8606 55.7243V49.1676C76.0603 49.1676 76.4597 49.1676 76.726 49.1676C76.959 49.1676 77.8243 49.1676 77.8243 49.1676V48.3688H75.8939L75.8606 48.3355C75.8606 48.4021 75.8606 45.2069 75.8606 45.2069V45.0405L73.9635 46.0723V48.3688H72.0664V49.1676H73.9635V55.8242C73.9302 55.8242 73.7305 58.8529 76.1602 58.8529Z" fill="white"/>
<path d="M89.4732 49.9C89.9391 50.133 90.0057 50.6322 90.0057 50.6655L90.6381 49.9C90.6381 49.8002 91.5034 49.0346 91.4369 48.9681C90.2387 47.6368 88.8408 48.6353 88.3749 48.9348C88.042 49.1678 87.6426 49.5006 87.5095 49.6337V48.4688H87.4762L85.5791 49.7003V58.7865H87.5095V50.7986C87.7425 50.4658 88.5413 49.434 89.4732 49.9Z" fill="white"/>
<path d="M82.6164 58.8867C84.2472 58.8867 85.3788 58.0879 85.3788 58.0879L85.0127 57.5554C85.0127 57.5554 84.0475 58.0213 82.8826 57.988C81.8841 57.9548 80.3864 57.2891 79.754 55.3254L80.4197 54.5932L84.7797 50.2997C84.7797 50.2997 84.6133 48.3027 81.8841 48.3027C79.6875 48.3027 77.4575 49.9336 77.4575 53.7611C77.4575 57.4888 80.5861 58.92 82.6164 58.8867ZM81.6179 49.1015C82.4499 49.1348 82.7495 50.1333 82.6496 50.7324C82.5498 51.5977 81.9174 52.2634 81.9174 52.2634L79.6209 54.4933C79.5876 54.3602 79.5876 54.1938 79.5543 54.0607C79.1549 51.1318 80.22 49.0682 81.6179 49.1015Z" fill="white"/>
<path d="M67.2068 58.7198V50.7319C67.4731 50.3658 68.2719 49.334 69.2038 49.8C69.6698 50.033 69.7363 50.5322 69.7031 50.5655V58.7198H71.6667V50.5655C71.6667 50.4656 71.7 49.6669 71.2674 49.0345C70.2023 47.57 68.5714 48.5352 68.1055 48.8348C67.7727 49.0678 67.3733 49.4006 67.2401 49.5337V48.3688H67.2068L65.2432 49.6003V58.7198H67.2068Z" fill="white"/>
<path d="M49.0684 53.7284C49.0684 56.857 51.4314 58.3214 53.262 58.7541C53.6281 58.8207 53.9609 58.8872 54.2605 58.8872C55.6251 58.8872 56.9564 58.1217 57.2226 57.9553C57.855 58.6543 58.8535 58.8872 59.6523 58.8872C60.7506 58.8872 61.8157 58.388 62.4148 58.0552V58.7541H64.3452V51.1989C64.3452 51.0991 64.2453 50.1006 63.7794 49.5015C62.9806 48.5696 62.1818 48.3033 61.0169 48.3033C59.7189 48.3033 58.8535 48.8358 58.3875 49.1354L57.1228 51.798L57.622 52.031C57.9216 51.5317 59.4193 49.2352 60.9503 49.2352C62.3149 49.2352 62.4148 50.3336 62.4148 50.5333C61.5827 50.8661 56.6236 53.0295 56.6236 56.1913C56.6236 56.6573 56.7234 57.0567 56.8898 57.3895C56.557 57.5226 55.5252 57.9553 54.56 57.922C53.5615 57.8888 51.9972 57.0567 51.3316 54.6603C50.7325 52.1974 51.3316 49.1687 53.2953 49.1687C54.9594 49.1687 55.5585 50.9992 55.6251 51.2322L56.1909 50.9659L55.259 48.5696C54.8596 48.4364 54.3603 48.27 53.728 48.27C51.7975 48.27 49.0684 49.9009 49.0684 53.7284ZM62.3815 51.3986V57.2231C62.1152 57.4894 61.4828 57.8555 60.2181 57.8222C59.2862 57.7889 58.6538 56.7571 58.6871 55.9584C58.7869 53.2292 61.7158 51.7314 62.3815 51.3986Z" fill="white"/>
<path d="M30.6289 58.7202H33.7575C33.7575 58.7202 41.3127 59.1861 41.3127 51.8306C41.3127 44.7414 33.7242 45.0742 33.7242 45.0742H30.6289V45.6733H31.6274V58.2209H30.6289V58.7202ZM38.9829 51.7974C38.9829 58.0212 33.6576 58.1877 33.6576 58.1877V45.64C33.6244 45.64 38.9829 45.4071 38.9829 51.7974Z" fill="white"/>
<path d="M49.1342 50.267C49.1342 50.267 48.9678 48.27 46.2386 48.27C44.042 48.27 41.812 49.9009 41.812 53.7284C41.812 57.4561 44.9739 58.854 46.9708 58.854C48.6017 58.854 49.7333 58.0552 49.7333 58.0552L49.3672 57.4894C49.3672 57.4894 48.402 57.9553 47.2371 57.922C46.2386 57.8888 44.7409 57.2231 44.1085 55.2594L44.7742 54.5272L49.1342 50.267ZM43.9754 54.4606C43.9421 54.3275 43.9421 54.1611 43.9088 54.0279C43.5094 51.0991 44.5745 49.0355 45.9724 49.0688C46.8044 49.1021 47.104 50.1006 47.0041 50.6997C46.9043 51.565 46.2719 52.2307 46.2719 52.2307L43.9754 54.4606Z" fill="white"/>
<path d="M91.4041 47.7365C91.3708 47.7698 91.3375 47.7698 91.3043 47.7698C91.2377 47.7698 91.1711 47.7365 91.1378 47.67C91.1046 47.6367 91.1046 47.5701 91.1046 47.4703C91.1046 47.3704 91.1378 47.3039 91.1711 47.2373C91.2044 47.204 91.2377 47.1707 91.3043 47.1707C91.3375 47.1707 91.4041 47.1707 91.4374 47.204C91.4707 47.2373 91.504 47.2706 91.504 47.3371L91.7037 47.3039C91.7037 47.204 91.6371 47.1374 91.5705 47.1042C91.504 47.0376 91.4041 47.0376 91.3043 47.0376C91.1711 47.0376 91.0713 47.0709 91.0047 47.1707C90.9381 47.2706 90.8716 47.3704 90.8716 47.5036C90.8716 47.6367 90.9049 47.7365 91.0047 47.8364C91.0713 47.9362 91.2044 47.9695 91.3043 47.9695C91.4374 47.9695 91.504 47.9362 91.6038 47.8697C91.6371 47.8364 91.7037 47.7698 91.7037 47.67L91.504 47.6034C91.4707 47.6367 91.4374 47.7033 91.4041 47.7365Z" fill="white"/>
<path d="M92.0026 47.0713C91.936 46.9381 91.8362 46.8383 91.7031 46.7717C91.5699 46.7052 91.4368 46.6719 91.3037 46.6719C91.1705 46.6719 91.0374 46.7052 90.9043 46.7717C90.7711 46.8383 90.6713 46.9381 90.6047 47.0713C90.5382 47.2044 90.5049 47.3375 90.5049 47.4707C90.5049 47.6038 90.5382 47.7369 90.6047 47.8701C90.6713 48.0032 90.7711 48.103 90.9043 48.1696C91.0374 48.2362 91.1705 48.2695 91.3037 48.2695C91.4368 48.2695 91.5699 48.2362 91.7031 48.1696C91.8362 48.103 91.936 48.0032 92.0026 47.8701C92.0692 47.7369 92.1025 47.6038 92.1025 47.4707C92.1025 47.3375 92.0692 47.2044 92.0026 47.0713ZM91.7696 47.9366C91.6365 48.0698 91.5034 48.1363 91.3037 48.1363C91.1373 48.1363 90.9708 48.0698 90.8377 47.9366C90.7046 47.8035 90.638 47.6704 90.638 47.4707C90.638 47.3042 90.7046 47.1378 90.8377 47.0047C90.9708 46.8716 91.104 46.805 91.3037 46.805C91.4701 46.805 91.6365 46.8716 91.7696 47.0047C91.9028 47.1378 91.9693 47.271 91.9693 47.4707C91.936 47.6704 91.8695 47.8035 91.7696 47.9366Z" fill="white"/>
<path d="M39.9483 65.41C39.9483 66.6414 38.9831 67.5733 37.785 67.5733C36.5868 67.5733 35.6216 66.6414 35.6216 65.41C35.6216 64.2118 36.6201 63.2466 37.785 63.2466C38.9831 63.2466 39.9483 64.2451 39.9483 65.41ZM39.4491 65.41C39.4491 64.5113 38.7502 63.7458 37.785 63.7458C36.8198 63.7458 36.1208 64.5113 36.1208 65.41C36.1208 66.3752 36.8863 67.1074 37.785 67.1074C38.6836 67.1074 39.4491 66.3752 39.4491 65.41Z" fill="white"/>
<path d="M43.2098 67.507H42.5775L41.346 65.743H41.1463V67.507H40.6138V63.3467H41.2461C41.6123 63.3467 42.0116 63.3467 42.3445 63.5464C42.6773 63.7461 42.877 64.1455 42.877 64.5449C42.877 65.1439 42.4776 65.6432 41.8785 65.7098L43.2098 67.507ZM41.1463 65.3104H41.3127C41.8452 65.3104 42.411 65.2105 42.411 64.5449C42.411 63.8792 41.7787 63.8126 41.2794 63.8126H41.1463V65.3104Z" fill="white"/>
<path d="M44.3084 67.0411H45.5399V67.507H43.7759V63.3467H44.3084V67.0411Z" fill="white"/>
<path d="M46.0063 63.3467H46.8717C48.1365 63.3467 49.2015 64.0123 49.2015 65.4102C49.2015 66.8414 48.1697 67.507 46.8384 67.507H46.0063V63.3467ZM46.5389 67.0411H46.7053C47.7703 67.0411 48.669 66.6417 48.669 65.4435C48.669 64.2453 47.7703 63.8459 46.7053 63.8459H46.5389V67.0411Z" fill="white"/>
<path d="M52.4631 66.3086L53.628 63.2466L54.8262 66.3086L55.9911 63.3464H56.5236L54.8262 67.6732L53.628 64.6112L52.4631 67.6732L50.7324 63.3464H51.2982L52.4631 66.3086Z" fill="white"/>
<path d="M57.555 63.3467H57.0225V67.507H57.555V63.3467Z" fill="white"/>
<path d="M58.4199 63.1465L61.5485 66.4082V63.3462H62.0477V67.673L58.9192 64.4112V67.5065H58.4199V63.1465Z" fill="white"/>
<path d="M62.9468 63.3467H65.1767V63.8126H63.4793V64.9775H65.1434V65.4435H63.4793V67.0411H65.1767V67.507H62.9468V63.3467Z" fill="white"/>
<path d="M67.9063 66.4757L67.4403 67.5074H66.8745L68.8715 63.1807L70.8685 67.5074H70.3026L69.8367 66.4757H67.9063ZM68.8382 64.3123L68.106 65.9764H69.5704L68.8382 64.3123Z" fill="white"/>
<path d="M72.0666 66.3086L73.2315 63.2466L74.3964 66.3086L75.5613 63.3464H76.1271L74.3964 67.6732L73.2315 64.6112L72.0666 67.6732L70.3359 63.3464H70.9017L72.0666 66.3086Z" fill="white"/>
<path d="M76.6592 66.4757L76.1932 67.5074H75.6274L77.6244 63.1807L79.6214 67.5074H79.0556L78.5896 66.4757H76.6592ZM77.5911 64.3123L76.8589 65.9764H78.3234L77.5911 64.3123Z" fill="white"/>
<path d="M82.6839 67.507H82.0516L80.8201 65.743H80.6204V67.507H80.0879V63.3467H80.7203C81.0864 63.3467 81.4858 63.3467 81.8186 63.5464C82.1514 63.7461 82.3511 64.1455 82.3511 64.5449C82.3511 65.1439 81.9517 65.6432 81.3526 65.7098L82.6839 67.507ZM80.6204 65.3104H80.7868C81.3194 65.3104 81.8852 65.2105 81.8852 64.5449C81.8852 63.8792 81.2528 63.8126 80.7535 63.8126H80.6204V65.3104Z" fill="white"/>
<path d="M83.2158 63.3467H84.0812C85.3459 63.3467 86.411 64.0123 86.411 65.4102C86.411 66.8414 85.3792 67.507 84.0479 67.507H83.2158V63.3467ZM83.7151 67.0411H83.8815C84.9465 67.0411 85.8452 66.6417 85.8452 65.4435C85.8452 64.2453 84.9465 63.8459 83.8815 63.8459H83.7151V67.0411Z" fill="white"/>
<path d="M88.9406 64.1451C88.7742 63.8789 88.5745 63.7457 88.2749 63.7457C87.9421 63.7457 87.576 63.9787 87.576 64.3448C87.576 64.6777 87.9088 64.8441 88.1418 64.9439L88.4413 65.0438C89.0404 65.2768 89.4731 65.6096 89.4731 66.3085C89.4731 67.074 88.874 67.6066 88.1418 67.6066C87.4761 67.6066 86.9436 67.1073 86.8438 66.4417L87.3763 66.3418C87.3763 66.8078 87.7424 67.1406 88.1751 67.1406C88.6077 67.1406 88.9406 66.7745 88.9406 66.3418C88.9406 65.9091 88.5745 65.7094 88.2083 65.543L87.9088 65.4099C87.4428 65.2102 87.0102 64.9439 87.0102 64.3448C87.0102 63.6792 87.6093 63.2798 88.2416 63.2798C88.7076 63.2798 89.0737 63.5128 89.3067 63.9122L88.9406 64.1451Z" fill="white"/>
<path d="M32.0608 65.9764L33.1258 63.1807L34.1909 65.9764L35.2559 63.2805H35.7552L34.1909 67.1746L33.1258 64.4121L32.0608 67.1746L30.5298 63.2805H31.029L32.0608 65.9764Z" fill="white"/>
<path d="M88.7412 73.2646H29.7974V73.7639H88.7412V73.2646Z" fill="white"/>
<path d="M56.1243 39.8828C55.9912 40.4153 55.858 40.9479 55.7582 41.3805H51.9307V41.1476C52.4632 40.615 53.029 40.0825 53.5282 39.5167C54.1939 38.7512 54.6599 37.9857 54.6599 37.1869C54.6599 36.4547 54.2937 35.9887 53.5948 35.9887C52.9624 35.9887 52.563 36.4547 52.2635 36.8874L51.9972 36.6877L52.5963 35.789C52.9291 35.4229 53.4284 35.1899 54.0275 35.1899C54.9594 35.1899 55.7582 35.8223 55.7582 36.9206C55.7582 37.7194 55.3588 38.3185 54.4269 39.2504L53.1954 40.5152H54.8596C55.4254 40.5152 55.5252 40.4819 55.858 39.8495L56.1243 39.8828Z" fill="white"/>
<path d="M60.8836 38.3181C60.8836 39.7493 60.3511 41.5133 58.7868 41.5133C57.2225 41.5133 56.6899 39.8158 56.6899 38.3514C56.6899 36.8869 57.2557 35.1562 58.82 35.1562C60.351 35.123 60.8836 36.8537 60.8836 38.3181ZM57.8216 38.2848C57.8216 39.6161 58.0545 41.1139 58.7868 41.1139C59.519 41.1139 59.7187 39.6827 59.7187 38.3181C59.7187 36.9202 59.4857 35.5223 58.7868 35.5223C58.0213 35.5223 57.8216 36.9535 57.8216 38.2848Z" fill="white"/>
<path d="M65.6097 39.8828C65.4766 40.4153 65.3435 40.9479 65.2436 41.3805H61.3828V41.1476C61.9153 40.615 62.4811 40.0825 62.9804 39.5167C63.646 38.7512 64.112 37.9857 64.112 37.1869C64.112 36.4547 63.7459 35.9887 63.047 35.9887C62.4146 35.9887 62.0152 36.4547 61.7156 36.8874L61.4494 36.6877L62.0485 35.789C62.3813 35.4229 62.8805 35.1899 63.4796 35.1899C64.4116 35.1899 65.2103 35.8223 65.2103 36.9206C65.2103 37.7194 64.8109 38.3185 63.879 39.2504L62.6476 40.5152H64.3117C64.8775 40.5152 64.9774 40.4819 65.3102 39.8495L65.6097 39.8828Z" fill="white"/>
<path d="M66.841 41.3797V41.0802C67.673 41.0136 67.7396 40.8805 67.7396 40.1815V36.5204C67.7396 36.0212 67.7063 35.9546 67.2737 35.9213L66.7744 35.8881V35.6218C67.4068 35.522 68.1057 35.3223 68.8379 35.1226V40.1815C68.8379 40.8805 68.9045 41.0136 69.7366 41.0802V41.3797H66.841Z" fill="white"/>
<path d="M45.5401 80.8533C45.3071 80.1211 44.9077 79.289 43.9758 79.289C43.2436 79.289 42.8109 79.8216 42.8109 80.4539C42.8109 81.1529 43.2768 81.5523 44.2753 82.0182C45.3737 82.584 46.3056 83.1831 46.3056 84.3813C46.3056 85.6461 45.2072 86.6445 43.5764 86.6445C43.1437 86.6445 42.7443 86.578 42.4448 86.4781C42.1452 86.3783 41.9122 86.3117 41.7791 86.2452C41.6793 85.9789 41.5129 85.0137 41.4463 84.348L41.8457 84.2482C42.0454 84.9804 42.6778 86.2119 43.8094 86.2119C44.5749 86.2119 45.0408 85.7126 45.0408 84.9471C45.0408 84.2149 44.475 83.7822 43.6097 83.3495C42.5779 82.817 41.646 82.2179 41.646 81.053C41.646 79.8549 42.6112 78.8896 44.1755 78.8896C44.8411 78.8896 45.4402 79.0893 45.7398 79.1892C45.7731 79.6219 45.8396 80.0878 45.9395 80.8201L45.5401 80.8533Z" fill="white"/>
<path d="M46.938 86.5115V86.1454C47.8366 86.0788 47.9365 85.979 47.9365 85.0138V80.5539C47.9365 79.5887 47.8366 79.4888 46.938 79.4223V79.0562H50.233V79.4223C49.3344 79.4888 49.2678 79.5887 49.2678 80.5539V85.0471C49.2678 86.0123 49.3676 86.0788 50.233 86.1787V86.5448H46.938V86.5115Z" fill="white"/>
<path d="M56.8901 84.6145C56.7902 85.0471 56.5573 86.1788 56.4574 86.5116H50.999V86.1455C51.9642 86.0789 52.0974 85.9791 52.0974 85.0139V80.5207C52.0974 79.5555 51.9975 79.4889 51.0989 79.3891V79.0229H54.4272V79.3891C53.5285 79.4556 53.4287 79.5222 53.4287 80.5207V85.0471C53.4287 85.6129 53.462 85.8459 53.6949 85.9458C53.8946 86.0456 54.2275 86.0456 54.6269 86.0456C55.1927 86.0456 55.5921 85.9791 55.8583 85.6795C56.0913 85.4465 56.291 85.0804 56.4907 84.5146L56.8901 84.6145Z" fill="white"/>
<path d="M64.1457 79.4223C63.3802 79.5222 63.1805 79.6553 62.7478 80.7204C62.3817 81.5524 61.2834 84.2816 60.3847 86.6447H59.9188C59.12 84.5479 58.0882 81.8853 57.5557 80.4874C57.2229 79.622 57.0232 79.4889 56.3242 79.3891V79.0229H59.5194V79.3891C58.6873 79.4889 58.654 79.622 58.8537 80.1213C59.1865 81.0199 60.0519 83.2832 60.6177 84.7143H60.651C61.2834 83.1167 61.8824 81.4526 62.2153 80.4208C62.4815 79.6886 62.4483 79.5222 61.5163 79.4223V79.0562H64.179V79.4223H64.1457Z" fill="white"/>
<path d="M70.7682 84.6477C70.7016 85.1136 70.4686 86.1787 70.3688 86.5115H64.6108V86.1454C65.6093 86.0788 65.7092 85.979 65.7092 85.0138V80.5539C65.7092 79.5554 65.6093 79.4888 64.7773 79.4223V79.0562H70.0692C70.0692 79.2891 70.1358 80.0879 70.1691 80.7536L69.7697 80.8201C69.6698 80.3875 69.5367 80.0546 69.337 79.8217C69.1373 79.5887 68.8378 79.5221 68.1388 79.5221H67.4732C67.0738 79.5221 67.0405 79.5554 67.0405 79.9215V82.4177H67.9391C68.9376 82.4177 69.0375 82.3512 69.2039 81.5524H69.6033V83.8156H69.2039C69.0375 82.9835 68.9376 82.9502 67.9391 82.9502H67.0405V85.0138C67.0405 85.5796 67.107 85.8458 67.3067 85.9457C67.5064 86.0455 67.9058 86.0788 68.4051 86.0788C69.104 86.0788 69.4701 86.0123 69.7364 85.7127C69.9694 85.4797 70.1691 85.0803 70.3688 84.6144L70.7682 84.6477Z" fill="white"/>
<path d="M78.3235 86.6114C78.2236 86.6114 78.0905 86.6114 77.9573 86.6114C76.7259 86.5449 76.2599 86.2453 75.7607 85.5131C75.4279 85.0139 75.0617 84.3482 74.7289 83.7491C74.5292 83.4163 74.3295 83.2499 73.8968 83.2499H73.6306V84.9806C73.6306 85.9125 73.7304 86.0123 74.6291 86.1122V86.4783H71.3008V86.1122C72.1994 86.0456 72.2993 85.9458 72.2993 84.9806V80.4874C72.2993 79.5555 72.1994 79.4556 71.3341 79.3891V79.0229H74.4294C75.3613 79.0229 75.9604 79.1228 76.3931 79.4223C76.859 79.7219 77.1586 80.2544 77.1586 80.9534C77.1586 81.9518 76.4929 82.5176 75.6941 82.8505C75.8938 83.2166 76.3265 83.9821 76.6593 84.4813C77.0587 85.1137 77.325 85.4465 77.558 85.7128C77.8242 86.0123 78.0572 86.1455 78.2902 86.2453L78.3235 86.6114ZM74.03 82.8505C74.5625 82.8505 74.9286 82.7506 75.1949 82.5509C75.5943 82.2181 75.7607 81.7521 75.7607 81.1531C75.7607 79.9216 75.0285 79.4556 74.2962 79.4556C73.9967 79.4556 73.8303 79.5222 73.7304 79.5555C73.6639 79.622 73.6306 79.7552 73.6306 80.0214V82.8505H74.03Z" fill="white"/>
</g>
<defs>
<linearGradient id="paint0_linear_860_3764" x1="36.0522" y1="32.3118" x2="84.9164" y2="88.5319" gradientUnits="userSpaceOnUse">
<stop stop-color="#D3D4D6"/>
<stop offset="0.0478184" stop-color="#BCBDBF"/>
<stop offset="0.1093" stop-color="#A6A8AA"/>
<stop offset="0.182" stop-color="#959799"/>
<stop offset="0.272" stop-color="#8A8C8E"/>
<stop offset="0.3982" stop-color="#838587"/>
<stop offset="0.7485" stop-color="#818385"/>
<stop offset="0.8227" stop-color="#999B9D"/>
<stop offset="0.97" stop-color="#D3D4D6"/>
<stop offset="0.971" stop-color="#CCCDCF"/>
<stop offset="0.9752" stop-color="#B1B2B4"/>
<stop offset="0.9798" stop-color="#9B9D9F"/>
<stop offset="0.9849" stop-color="#8C8E90"/>
<stop offset="0.9909" stop-color="#848688"/>
<stop offset="1" stop-color="#818385"/>
</linearGradient>
</defs>
</svg>
