<svg width="121" height="121" viewBox="0 0 121 121" fill="none" xmlns="http://www.w3.org/2000/svg">
<path fill-rule="evenodd" clip-rule="evenodd" d="M96.6788 59.2247C97.3263 58.3746 99.0259 54.205 98.7427 53.4763C98.4189 52.7476 94.7768 51.7356 94.7768 51.7356C94.7768 51.7356 95.3029 50.845 95.748 50.0354C93.7651 48.9828 90.042 49.671 89.435 49.1852C88.8279 48.6995 91.0942 47.1611 90.4062 46.3515C89.7182 45.5419 82.8791 48.3351 80.4915 48.5375C76.9707 48.8614 73.2072 47.485 68.2296 47.2016C68.2296 47.5255 68.2296 47.8493 68.2296 47.9708C68.7962 48.0922 71.8313 48.9019 74.4617 52.3023C76.7279 55.2575 84.255 65.3779 85.2667 66.8353C87.1687 69.5476 87.8972 76.4295 91.5798 80.0728C87.6139 77.2796 87.3306 70.5596 84.255 66.9162C80.5724 62.5037 76.647 56.2695 73.0858 52.0999C71.3457 50.0758 69.4437 49.4686 68.351 49.2662C68.5938 52.3833 68.5129 57.8888 68.1487 61.0869C69.4841 61.9775 73.8952 65.5803 77.6587 75.4174C81.4222 85.295 81.6246 86.8737 82.6363 92.0554C82.1507 89.9099 78.9942 79.5465 77.1731 75.7413C75.3925 72.0979 73.5309 66.7948 68.0677 61.7751C67.5821 65.216 66.6918 68.8189 65.5992 72.2193C71.5075 78.2107 73.3286 84.5663 73.7333 95.9417C72.3978 82.1779 69.5651 77.482 65.3159 73.0695C64.7898 74.6483 64.2233 76.1461 63.6567 77.5629C61.6738 82.4612 52.6089 104.321 52.6089 104.321C52.6089 104.321 52.6898 103.309 53.9039 100.111C55.1179 96.9132 61.5928 81.4087 63.0092 77.2796C64.4256 73.1504 66.1253 67.8878 67.056 61.4107C67.6631 57.1601 67.2988 50.9259 67.137 48.4566C64.9517 50.6426 59.6099 56.0266 55.8868 59.5081C55.8059 73.0695 45.3246 84.04 42.856 86.1046C54.5513 73.5957 54.9156 62.9085 54.8346 60.4796C53.9848 61.2488 53.2968 61.856 52.8112 62.2608C49.6142 64.8112 42.4918 69.7095 39.2139 71.6526C35.855 73.6362 24.6453 79.0608 24.6453 79.0608C24.6453 79.0608 35.3289 73.3124 38.6069 71.2883C41.561 69.5071 48.0764 64.8922 51.9614 61.8155C55.5631 58.9818 64.9112 48.659 66.3681 47.0802C65.1136 47.2016 62.9687 47.4445 61.35 47.8089C59.4885 48.2137 41.3992 51.6546 35.4908 51.5332C28.6517 51.4117 23.2694 48.8614 22.0554 47.7279C22.0554 47.7279 29.2182 51.2903 35.936 50.9259C44.151 50.4806 57.9102 47.8493 61.1072 47.1207C63.6972 46.5539 65.8015 46.311 66.7728 46.2301C66.7323 46.1896 66.7323 46.1896 66.7323 46.1896C66.7323 46.1896 64.5065 40.2388 64.3447 39.8744C63.0497 37.405 59.8122 32.7092 54.7537 28.1752C58.8005 30.8875 64.1423 37.9313 64.1423 37.9313C64.1423 37.9313 66.0039 31.6161 64.9517 26.7179C64.2637 23.6008 61.7952 19.1882 59.5289 16.6379C63.252 19.9169 65.3564 26.0297 65.3564 26.0297C65.3564 26.0297 67.4202 25.0581 68.8366 22.0625C68.5938 23.0745 68.2296 24.5723 65.5587 26.475C66.8942 31.7376 64.7089 38.6195 64.7089 38.6195C64.7089 38.6195 66.4085 42.5867 67.1774 45.0561C68.1082 41.3723 70.7386 35.5834 72.1955 31.8995C74.4212 26.2321 71.8313 17.1237 71.3861 15.5854C71.3861 15.5854 74.2189 22.4268 73.45 28.7015C74.4212 28.1752 77.3754 26.0297 77.4564 20.5646C77.4968 21.2123 77.9824 26.7583 73.4095 29.1468C73.2881 29.9969 73.0858 30.8065 72.843 31.6161C71.548 35.381 70.4149 37.4455 69.3223 40.2792C70.0507 39.2672 70.86 38.579 72.3978 37.2431C75.352 34.6928 77.0922 32.8306 78.1443 30.766C78.1443 30.766 77.4159 33.6402 73.9356 36.5954C70.9814 39.1053 69.3223 41.0079 68.432 42.7486C67.9868 43.9631 67.6631 45.0561 67.5821 45.9467C67.5821 46.0681 67.6226 46.1086 67.7035 46.0681C67.8654 44.7322 68.8366 42.3033 74.4212 37.8908C82.0293 31.8186 80.9366 26.1916 80.7343 24.6533C80.0463 25.2605 79.3584 26.7988 78.8323 26.5559C78.3062 26.2726 79.5202 21.3338 77.4564 17.4475C77.0112 18.662 76.4851 20.4027 76.4851 20.4027C76.4851 20.4027 73.6524 15.2615 71.3052 14.9377C68.958 14.6138 70.4554 21.7791 68.958 21.4957C67.4607 21.2123 65.2754 15.7068 64.9922 16.6379C64.7089 17.569 64.5065 19.1073 64.5065 19.1073C64.5065 19.1073 59.7313 15.5449 58.841 15.9497C57.8293 16.395 59.0838 20.7266 58.841 20.9694C58.5982 21.2123 53.054 18.9049 52.5684 18.7429C52.447 20.2813 53.2159 22.5078 53.2159 22.5078C53.2159 22.5078 49.6952 22.0625 47.6313 23.034C48.643 23.8841 50.0594 24.5723 49.9784 25.0986C49.857 26.0297 46.9838 27.3251 47.3075 27.7299C47.6313 28.1752 51.759 27.1632 50.9901 32.1829C50.4641 35.7048 47.7527 34.4094 47.3075 33.5188C46.8624 32.6282 46.4982 35.8263 46.4982 35.8263C46.4982 35.8263 43.1393 35.7048 43.1393 36.2716C43.1393 36.7978 43.1393 37.4455 43.1393 37.4455C43.1393 37.4455 42.6537 37.1621 41.8039 36.7168C41.6825 37.5265 41.8443 40.8055 41.8443 40.8055C41.8443 40.8055 42.1276 42.2628 39.74 41.858C37.3524 41.4127 34.8838 40.3602 32.9008 40.1983C34.1149 42.5867 32.9818 43.8821 30.4323 43.2344C27.9233 42.5867 28.5303 42.7082 26.4664 42.3438C25.7784 42.5462 27.0734 44.6513 27.0734 44.6513L23.3503 44.9751C23.3503 44.9751 24.0383 45.9062 23.7955 46.392C23.5122 46.8778 20.3962 45.8252 20.3152 47.3636C20.2748 48.5375 24.5239 53.6787 24.5239 53.6787L21.5293 54.9336L24.443 60.5606C24.443 60.5606 21.246 63.2324 20.9627 63.3134C20.6794 63.4348 25.0905 66.39 25.0905 66.39C25.0905 66.39 22.7029 68.4141 22.8243 68.7379C22.9457 69.0618 24.5239 69.6285 24.5239 69.6285C24.5239 69.6285 20.5985 70.8025 21.0841 71.6121C21.5697 72.4218 23.0671 73.6767 23.0671 73.6767L21.8935 75.4984L23.0671 76.227L22.9457 78.7774C22.9457 78.7774 24.4025 78.9798 24.5239 79.4251C24.6453 79.8704 24.7667 81.5706 24.7667 81.5706L29.2182 83.8781C29.2182 83.8781 29.0564 85.1735 29.2182 85.7403C29.9871 86.3475 32.9818 85.7403 32.9818 85.7403L33.6293 87.1166C33.6293 87.1166 37.0691 85.6188 37.2309 86.7928C37.3524 87.9668 37.6356 90.5981 38.2427 92.1769C39.2948 92.6222 43.7868 91.2458 45.5269 90.9624C47.2671 90.679 48.6025 90.5981 48.7239 92.2983C48.9263 94.8082 48.7239 95.7797 48.7239 95.7797H50.5855C50.5855 95.7797 49.7356 98.2491 50.0998 99.3421C50.4641 100.476 50.9497 101.326 50.9497 101.326L52.5684 104.969C52.5684 104.969 55.7654 103.633 57.1009 102.621C58.5982 103.471 59.5694 102.5 59.5694 102.5L60.0955 104.564C60.0955 104.564 63.4544 101.447 64.2233 101.407C64.9922 101.366 65.3564 103.471 66.0443 103.633C66.7323 103.795 68.2296 100.111 68.2296 100.111L69.2818 101.002C69.2818 101.002 70.2935 97.9658 70.8196 97.6824C71.3457 97.399 71.9527 97.8038 73.2072 99.0588C74.5022 100.354 74.9069 96.7513 75.5948 96.6703C76.3233 96.8727 77.861 96.9537 77.861 96.9537C77.861 96.9537 77.942 93.7152 77.942 92.2983C77.942 91.6101 78.4276 89.7075 79.6012 90.9624C80.7748 92.2578 82.4744 94.039 82.4744 94.039C82.4744 94.039 85.2263 91.8125 84.9025 90.5171C84.6192 89.2217 84.2146 88.3716 84.9025 88.0477C85.5905 87.7239 86.1166 89.0598 86.6427 89.4241C87.2497 88.5335 87.3711 86.3475 87.3306 84.4448C87.2901 82.9875 87.6544 82.2588 90.1634 82.5827C92.6724 82.9065 93.7246 83.028 94.4935 82.4612C95.2624 81.8945 95.3433 80.6396 95.5457 78.6155C97.2453 78.8988 98.0952 78.7369 98.0952 78.7369L97.6095 73.8386C97.6095 73.8386 99.5925 73.8791 100.604 73.6362C100.24 72.0169 98.4594 67.8878 98.4594 67.8878C98.4594 67.8878 101.616 67.5235 101.98 66.8758C102.385 66.1876 98.4998 60.6416 96.6788 59.2247Z" fill="#E6E5E5"/>
<path fill-rule="evenodd" clip-rule="evenodd" d="M19.8701 54.772H22.5815L24.6049 60.0751H24.6454L26.6688 54.772H29.2183V55.1363C29.0564 55.1768 28.9755 55.2173 28.8945 55.2578C28.8136 55.3387 28.7731 55.3792 28.7327 55.4602C28.6922 55.5411 28.6922 55.5816 28.6922 55.6221C28.6922 55.6626 28.6922 55.7031 28.6922 55.7435V61.2491C28.6922 61.411 28.7327 61.4919 28.7731 61.5729C28.8541 61.6539 28.8945 61.6944 28.9755 61.7348C29.0159 61.7753 29.0564 61.7753 29.0969 61.7753C29.1373 61.7753 29.1778 61.7753 29.2183 61.8158V62.1801H26.426V61.8158C26.5878 61.7753 26.7092 61.7348 26.7902 61.6944C26.8711 61.6539 26.9116 61.5729 26.9521 61.4919C26.9925 61.4515 26.9925 61.3705 26.9925 61.33C26.9925 61.2895 26.9925 61.2491 26.9925 61.2086V55.7435H26.9116L24.4835 62.2206H23.7146L21.2056 55.6221H21.1651V61.1276C21.1651 61.3705 21.2056 61.5324 21.2865 61.6134C21.3674 61.6944 21.4888 61.7753 21.5698 61.8158C21.6103 61.8158 21.6507 61.8158 21.6507 61.8158C21.6912 61.8158 21.7317 61.8158 21.7317 61.8158V62.1801H19.8701V61.8158C20.032 61.8158 20.1939 61.7753 20.2748 61.6944C20.3557 61.6134 20.4367 61.5324 20.4367 61.4515C20.4771 61.3705 20.4771 61.33 20.4771 61.2491C20.4771 61.1681 20.4771 61.1276 20.4771 61.1276V56.0269C20.4771 55.7435 20.4367 55.5411 20.3153 55.3792C20.1939 55.2173 20.0725 55.1363 19.8701 55.1363V54.772Z" fill="#1D1D1B"/>
<path fill-rule="evenodd" clip-rule="evenodd" d="M30.5537 54.772H33.3055V55.1363C33.1032 55.1768 32.9413 55.2578 32.9008 55.3387C32.8199 55.4602 32.8199 55.5816 32.7794 55.703C32.7794 55.7435 32.7794 55.7435 32.7794 55.784C32.7794 55.8245 32.7794 55.8245 32.7794 55.865V58.9011C32.7794 58.9821 32.7794 59.063 32.7794 59.144C32.7794 59.225 32.7794 59.3059 32.7794 59.3869C32.8199 59.9132 32.9413 60.3585 33.2246 60.8038C33.5078 61.2491 34.0744 61.4515 34.9647 61.4515C35.7741 61.4515 36.3001 61.2895 36.6239 61.0062C36.9476 60.6823 37.1095 60.3585 37.1904 59.9941C37.2309 59.8727 37.2309 59.7512 37.2309 59.6703C37.2309 59.5488 37.2309 59.4679 37.2309 59.3464V55.8245C37.2309 55.784 37.2309 55.7435 37.2309 55.703C37.2309 55.6626 37.2309 55.6221 37.2309 55.5816C37.1904 55.5006 37.15 55.4197 37.069 55.3387C36.9881 55.2578 36.8262 55.2173 36.6239 55.1768V54.8125H38.4854V55.1768C38.3236 55.2173 38.1617 55.2577 38.0807 55.2982C37.9998 55.3792 37.9189 55.4602 37.8784 55.5006C37.8379 55.5411 37.8379 55.6221 37.8379 55.6626C37.8379 55.7031 37.8379 55.7435 37.8379 55.784V59.2654C37.8379 59.7107 37.7975 60.1156 37.6761 60.5204C37.5547 60.9252 37.3118 61.2491 36.9476 61.5324C36.8667 61.6134 36.7858 61.6539 36.7048 61.6944C36.6239 61.7348 36.5429 61.8158 36.462 61.8563C36.0573 62.0992 35.6931 62.2206 35.3289 62.2611C34.9647 62.3016 34.7219 62.3016 34.6005 62.3016C34.0339 62.3016 33.5888 62.2611 33.2246 62.1397C32.8603 62.0182 32.5771 61.8968 32.3343 61.7753C32.2128 61.6943 32.0914 61.6134 32.0105 61.5324C31.9296 61.4515 31.8486 61.411 31.8082 61.3705C31.7677 61.33 31.7272 61.2895 31.6868 61.2491C31.6463 61.2086 31.6058 61.1276 31.5249 61.0871C31.4035 60.9252 31.3225 60.7228 31.2011 60.4394C31.0797 60.156 31.0393 59.7917 31.0393 59.3464V55.8245C31.0393 55.784 31.0393 55.784 31.0393 55.7435C31.0393 55.7031 31.0393 55.6626 31.0393 55.6626C31.0393 55.5411 30.9988 55.4602 30.9179 55.3387C30.8369 55.2578 30.7155 55.1768 30.5132 55.1363V54.772H30.5537Z" fill="#1D1D1B"/>
<path fill-rule="evenodd" clip-rule="evenodd" d="M39.7802 54.772H41.8846L46.0528 59.5083H46.1742V55.784C46.1742 55.7435 46.1742 55.7031 46.1742 55.6626C46.1742 55.6221 46.1742 55.5411 46.1337 55.5006C46.0933 55.4197 46.0528 55.3387 45.9314 55.2982C45.8504 55.2173 45.6886 55.1768 45.4862 55.1363V54.772H47.3882V55.1363C47.1859 55.1768 47.0645 55.2173 46.9836 55.2578C46.9026 55.3387 46.8217 55.4197 46.7812 55.4602C46.7408 55.5006 46.7408 55.5816 46.7408 55.6221C46.7408 55.6626 46.7408 55.7031 46.7408 55.7435V62.2206H46.1337L41.0752 56.4317H40.9538V61.1681C40.9538 61.2086 40.9538 61.2491 40.9538 61.2895C40.9538 61.33 40.9538 61.3705 40.9943 61.411C41.0347 61.4919 41.0752 61.5729 41.1966 61.6539C41.2775 61.7348 41.4394 61.7753 41.6418 61.8158V62.1801H39.7397V61.8158C39.9421 61.7753 40.104 61.7348 40.1849 61.6539C40.2658 61.5729 40.3468 61.4919 40.3872 61.411C40.3872 61.3705 40.4277 61.33 40.4277 61.2895C40.4277 61.2491 40.4277 61.2086 40.4277 61.1681V55.784C40.4277 55.7435 40.4277 55.7031 40.4277 55.6626C40.4277 55.6221 40.4277 55.5816 40.3872 55.5006C40.3872 55.4197 40.3063 55.2982 40.2254 55.2173C40.1444 55.1363 39.9826 55.0958 39.7802 55.1363V54.772Z" fill="#1D1D1B"/>
<path fill-rule="evenodd" clip-rule="evenodd" d="M48.7236 54.772H52.042C53.337 54.772 54.2678 54.9744 54.9153 55.4197C55.5628 55.865 56.0079 56.3103 56.2507 56.7961C56.4126 57.1604 56.534 57.4843 56.5745 57.8081C56.6149 58.132 56.6554 58.3748 56.6554 58.5773C56.6554 59.1035 56.534 59.6298 56.3721 60.1156C56.1698 60.6013 55.846 61.0062 55.3604 61.3705C55.1985 61.4919 55.0367 61.6134 54.8748 61.6944C54.7129 61.7753 54.5511 61.8563 54.3892 61.9372C53.9845 62.0992 53.5798 62.1801 53.1751 62.2206C52.8109 62.2611 52.5276 62.2611 52.3658 62.2611H48.8046V61.8968C49.0878 61.8158 49.2497 61.7348 49.2902 61.6134C49.3307 61.4919 49.3711 61.3705 49.3711 61.2491V55.9459C49.3711 55.784 49.3307 55.6626 49.2902 55.5816C49.2497 55.4602 49.0878 55.3792 48.8046 55.2982V54.772H48.7236ZM50.9494 61.6539H51.7992C51.9611 61.6539 52.1634 61.6539 52.3658 61.6134C52.5681 61.5729 52.8109 61.5324 53.0537 61.4515C53.4584 61.2895 53.8631 61.0062 54.2273 60.6013C54.5915 60.156 54.7534 59.4679 54.7534 58.5368C54.7534 57.5247 54.5511 56.7961 54.1464 56.3508C53.7417 55.9055 53.2965 55.6221 52.7705 55.4602C52.5681 55.4197 52.3658 55.3792 52.2039 55.3387C52.0016 55.2982 51.8397 55.2982 51.6778 55.2982H50.9494V61.6539Z" fill="#1D1D1B"/>
<path fill-rule="evenodd" clip-rule="evenodd" d="M57.9506 54.772H60.7025V55.1363C60.5001 55.1768 60.3382 55.2578 60.2978 55.3387C60.2168 55.4602 60.1764 55.5816 60.1764 55.703C60.1764 55.7435 60.1764 55.7435 60.1764 55.784C60.1764 55.8245 60.1764 55.8245 60.1764 55.865V58.9011C60.1764 58.9821 60.1764 59.063 60.1764 59.144C60.1764 59.225 60.1764 59.3059 60.1764 59.3869C60.2168 59.9132 60.3382 60.3585 60.6215 60.8038C60.9048 61.2491 61.4714 61.4515 62.3617 61.4515C63.171 61.4515 63.6971 61.2895 64.0209 61.0062C64.3446 60.6823 64.5065 60.3585 64.5874 59.9941C64.6279 59.8727 64.6279 59.7512 64.6279 59.6703C64.6279 59.5488 64.6279 59.4679 64.6279 59.3464V55.8245C64.6279 55.784 64.6279 55.7435 64.6279 55.703C64.6279 55.6626 64.6279 55.6221 64.6279 55.5816C64.5874 55.5006 64.5469 55.4197 64.466 55.3387C64.3851 55.2578 64.2232 55.2173 64.0209 55.1768V54.8125H65.8824V55.1768C65.7205 55.2173 65.5587 55.2577 65.4777 55.2982C65.3968 55.3792 65.3158 55.4602 65.2754 55.5006C65.2349 55.5411 65.2349 55.6221 65.2349 55.6626C65.2349 55.7031 65.2349 55.7435 65.2349 55.784V59.2654C65.2349 59.7107 65.1944 60.1156 65.073 60.5204C64.9516 60.9252 64.7088 61.2491 64.3446 61.5324C64.2637 61.6134 64.1827 61.6539 64.1018 61.6944C64.0209 61.7348 63.9399 61.8158 63.859 61.8563C63.4543 62.0992 63.0901 62.2206 62.7259 62.2611C62.3617 62.3016 62.1188 62.3016 61.9974 62.3016C61.4309 62.3016 60.9857 62.2611 60.6215 62.1397C60.2573 62.0182 59.974 61.8968 59.7312 61.7753C59.6098 61.6943 59.4884 61.6134 59.4075 61.5324C59.3265 61.4515 59.2456 61.411 59.2051 61.3705C59.1647 61.33 59.1242 61.2895 59.0837 61.2491C59.0433 61.2086 59.0028 61.1276 58.9219 61.0871C58.8005 60.9252 58.7195 60.7228 58.5981 60.4394C58.5172 60.156 58.4362 59.7917 58.4362 59.3464V55.8245C58.4362 55.784 58.4362 55.784 58.4362 55.7435C58.4362 55.7031 58.4362 55.6626 58.4362 55.6626C58.4362 55.5411 58.3958 55.4602 58.3148 55.3387C58.2339 55.2578 58.1125 55.1768 57.9102 55.1363V54.772H57.9506Z" fill="#1D1D1B"/>
<path fill-rule="evenodd" clip-rule="evenodd" d="M72.3167 54.9743V56.715H71.8716C71.7502 56.3102 71.5883 55.9864 71.3455 55.784C71.1027 55.5816 70.8599 55.4196 70.5766 55.3387C70.4552 55.2982 70.3742 55.2982 70.2528 55.2577C70.1314 55.2577 70.0505 55.2172 69.9291 55.2172C69.5244 55.2172 69.2411 55.2982 69.0793 55.5006C68.8769 55.6625 68.796 55.8649 68.7555 56.1078C68.7555 56.1483 68.7555 56.1483 68.7555 56.1888C68.7555 56.2293 68.7555 56.2293 68.7555 56.2698C68.7555 56.4722 68.8364 56.6746 68.9578 56.8365C69.1197 56.9984 69.2816 57.1199 69.4435 57.2008C69.5649 57.2413 69.6863 57.3223 69.7672 57.3628C69.8886 57.4032 69.9696 57.4437 70.01 57.4437C70.0505 57.4437 70.091 57.4842 70.091 57.4842C70.1314 57.4842 70.1719 57.5247 70.2124 57.5247C70.9003 57.7676 71.5073 58.051 72.0334 58.3748C72.5595 58.6987 72.8023 59.2249 72.8023 59.9941C72.8023 60.6418 72.5595 61.2085 72.0334 61.6943C71.5478 62.1801 70.8599 62.423 70.01 62.423C69.7672 62.423 69.5649 62.423 69.3625 62.3825C69.1602 62.342 68.9983 62.3015 68.8364 62.2611C68.796 62.2611 68.796 62.2611 68.7555 62.2206C68.715 62.2206 68.715 62.2206 68.6746 62.1801C68.5532 62.1396 68.4318 62.0991 68.3104 62.0991C68.189 62.0586 68.108 62.0586 68.0271 62.0586C67.9461 62.0586 67.8652 62.0586 67.8247 62.0991C67.7843 62.1396 67.7438 62.1801 67.7033 62.2206C67.7033 62.2206 67.7033 62.2206 67.6629 62.2611C67.6629 62.2611 67.6629 62.2611 67.6629 62.3015H67.2987L67.1772 60.4394H67.6224C67.7843 60.8037 68.0675 61.0871 68.3508 61.33C68.6746 61.5729 68.9983 61.7348 69.3625 61.8158C69.4435 61.8562 69.5244 61.8562 69.5649 61.8562C69.6458 61.8562 69.7267 61.8562 69.8077 61.8562C70.2933 61.8562 70.6575 61.7753 70.9003 61.5729C71.1431 61.3705 71.3455 61.168 71.4264 60.9252C71.4669 60.8442 71.4669 60.8037 71.5073 60.7227C71.5073 60.6418 71.5073 60.6013 71.5073 60.5203C71.5073 60.1965 71.3455 59.9131 71.0622 59.7512C70.7789 59.5893 70.4147 59.4273 70.0505 59.3059C70.01 59.3059 70.01 59.3059 69.9696 59.2654C69.9291 59.2654 69.9291 59.2654 69.8886 59.2249C69.7672 59.1844 69.6053 59.1035 69.4435 59.063C69.2816 58.982 69.0793 58.9011 68.9174 58.8201C68.5936 58.6582 68.2699 58.4153 67.9866 58.0914C67.7033 57.7676 67.5415 57.3628 67.5415 56.877C67.5415 56.2698 67.7843 55.7435 68.2294 55.3387C68.6746 54.9339 69.2411 54.7314 69.8482 54.7314C70.0505 54.7314 70.2528 54.7314 70.4147 54.7719C70.5766 54.8124 70.7385 54.8529 70.8599 54.8934C70.9813 54.9339 71.1027 55.0148 71.1836 55.0553C71.2645 55.0958 71.3455 55.1363 71.3859 55.1767C71.4264 55.1767 71.4264 55.1767 71.4669 55.1767C71.4669 55.1767 71.5073 55.1767 71.5478 55.1767C71.5883 55.1767 71.5883 55.1767 71.6288 55.1767C71.6692 55.1767 71.6692 55.1767 71.7097 55.1767C71.7502 55.1767 71.7906 55.1363 71.8311 55.1363C71.8716 55.0958 71.8716 55.0958 71.912 55.0148H72.3167V54.9743Z" fill="#1D1D1B"/>
<path fill-rule="evenodd" clip-rule="evenodd" d="M81.3817 55.3791V55.9863C81.0985 56.0268 80.8961 56.1483 80.7747 56.3102C80.6533 56.4721 80.5724 56.6745 80.4914 56.8769C80.4914 56.9174 80.4914 56.9174 80.4914 56.9579C80.4914 56.9579 80.4914 56.9984 80.451 57.0389L78.5085 62.3824H77.9824L75.3924 56.8769C75.352 56.8364 75.352 56.796 75.3115 56.7555C75.3115 56.715 75.271 56.6745 75.271 56.634C75.1496 56.4316 75.0687 56.3102 74.9068 56.1887C74.7854 56.0673 74.5831 55.9863 74.2998 55.9458V55.3386H78.1848V55.9458C77.9419 55.9458 77.7801 55.9863 77.6991 56.1078C77.6182 56.1887 77.5777 56.3102 77.5777 56.4316V56.4721C77.5777 56.4721 77.5777 56.5126 77.5777 56.5531C77.5777 56.5936 77.6182 56.634 77.6182 56.6745C77.6182 56.715 77.6587 56.7555 77.6587 56.796C77.6587 56.8365 77.6991 56.8769 77.6991 56.9174C77.6991 56.9579 77.7396 56.9579 77.7396 56.9984L78.7918 59.2654H78.8727L79.6821 56.9984C79.7225 56.8769 79.763 56.796 79.763 56.715C79.763 56.634 79.8035 56.5531 79.8035 56.4721C79.8035 56.3102 79.763 56.2292 79.6416 56.1078C79.5202 56.0268 79.3988 55.9863 79.2774 55.9458H79.2369C79.2369 55.9458 79.1965 55.9458 79.156 55.9458V55.3386H81.3817V55.3791Z" fill="#1D1D1B"/>
<path fill-rule="evenodd" clip-rule="evenodd" d="M86.0354 55.3792V60.6418C86.0354 60.8847 86.0759 61.1276 86.1973 61.2895C86.3187 61.4514 86.4806 61.5729 86.6829 61.6133V62.2206H83.2026V61.6133C83.4454 61.5729 83.6073 61.4514 83.7287 61.249C83.8097 61.0871 83.8906 60.8847 83.8906 60.6013V56.9579C83.8906 56.7151 83.8501 56.5126 83.7287 56.3102C83.6073 56.1078 83.4454 56.0269 83.2431 55.9864V55.3792H86.0354ZM83.7287 52.1406C83.7287 52.1001 83.7287 52.1001 83.7287 52.0596C83.7287 52.0192 83.7287 51.9787 83.7287 51.9787C83.7692 51.7358 83.8906 51.5334 84.0929 51.331C84.2953 51.1286 84.5381 51.0476 84.8618 51.0476C85.1856 51.0476 85.4284 51.1691 85.6307 51.3715C85.8331 51.5739 85.9545 51.8168 85.9949 52.1001V52.1406V52.1811C85.9949 52.2216 85.9949 52.2216 85.9949 52.2621C85.9949 52.3025 85.9949 52.3025 85.9949 52.343C85.9545 52.5859 85.8735 52.7883 85.6307 52.9907C85.4284 53.1931 85.1856 53.3146 84.8618 53.3146H84.8214H84.7809C84.5381 53.2741 84.2953 53.1527 84.0525 52.9503C83.8501 52.7074 83.7287 52.424 83.7287 52.1406Z" fill="#1D1D1B"/>
<path fill-rule="evenodd" clip-rule="evenodd" d="M88.4233 62.2207V61.6134C88.6661 61.5325 88.828 61.411 88.9089 61.2491C88.9898 61.0872 89.0303 60.8848 89.0303 60.6014V56.958C89.0303 56.6747 88.9898 56.4723 88.8684 56.3103C88.7875 56.1484 88.6256 56.0674 88.3828 55.9865V55.3793H91.2156V56.2699H91.2561C91.4989 55.9865 91.7821 55.7436 92.1464 55.5412C92.5106 55.3388 92.9153 55.2578 93.3199 55.2578C94.0079 55.2578 94.4531 55.4602 94.7363 55.8246C94.9791 56.1889 95.141 56.6342 95.1815 57.0795C95.1815 57.2009 95.2219 57.3224 95.2219 57.4843C95.2219 57.6058 95.2219 57.7272 95.2219 57.8486V60.6824C95.2219 60.9253 95.2624 61.1277 95.3029 61.2896C95.3838 61.4515 95.5457 61.573 95.829 61.6944V62.2612H92.3892V61.6539C92.5915 61.6135 92.7129 61.5325 92.7939 61.4515C92.8748 61.3706 92.9557 61.2491 92.9962 61.1277C92.9962 61.0467 92.9962 60.9657 93.0367 60.8848C93.0367 60.8038 93.0367 60.7633 93.0367 60.6824V57.6462C93.0367 57.6058 93.0367 57.5248 93.0367 57.4843C93.0367 57.4438 93.0367 57.3629 93.0367 57.3224C92.9962 57.12 92.9557 56.958 92.8343 56.7961C92.7129 56.6342 92.551 56.5937 92.2678 56.5937C92.025 56.5937 91.7821 56.6747 91.5798 56.8771C91.3775 57.0795 91.2561 57.3224 91.2561 57.6462V60.6824C91.2561 60.7228 91.2561 60.8038 91.2561 60.8848C91.2561 60.9657 91.2561 61.0467 91.2965 61.1277C91.337 61.2491 91.3775 61.3706 91.4989 61.4515C91.5798 61.573 91.7417 61.6135 91.9036 61.6539V62.2612H88.4233V62.2207Z" fill="#1D1D1B"/>
<path fill-rule="evenodd" clip-rule="evenodd" d="M100.483 55.3792V60.6418C100.483 60.8847 100.523 61.1276 100.645 61.2895C100.725 61.4514 100.887 61.5729 101.13 61.6133V62.2206H97.6499V61.6133C97.8927 61.5729 98.0546 61.4514 98.176 61.249C98.2569 61.0871 98.3379 60.8847 98.3379 60.6013V56.9579C98.3379 56.7151 98.2974 56.5126 98.176 56.3102C98.0546 56.1078 97.8927 56.0269 97.6904 55.9864V55.3792H100.483ZM98.176 52.1406C98.176 52.1001 98.176 52.1001 98.176 52.0596C98.176 52.0192 98.176 51.9787 98.176 51.9787C98.2165 51.7358 98.3379 51.5334 98.5402 51.331C98.7425 51.1286 98.9854 51.0476 99.3091 51.0476C99.6328 51.0476 99.8757 51.1691 100.078 51.3715C100.28 51.5739 100.402 51.8168 100.442 52.1001V52.1406V52.1811C100.442 52.2216 100.442 52.2216 100.442 52.2621C100.442 52.3025 100.442 52.3025 100.442 52.343C100.402 52.5859 100.321 52.7883 100.078 52.9907C99.8757 53.1931 99.6328 53.3146 99.3091 53.3146H99.2686H99.2282C98.9854 53.2741 98.7425 53.1527 98.4997 52.9503C98.2974 52.7074 98.176 52.424 98.176 52.1406Z" fill="#1D1D1B"/>
<path d="M103.235 46.2303C102.223 46.2303 101.373 47.0399 101.373 48.0925C101.373 49.1045 102.182 49.9546 103.235 49.9546C104.246 49.9546 105.096 49.145 105.096 48.0925C105.056 47.0399 104.246 46.2303 103.235 46.2303ZM103.235 45.866C104.449 45.866 105.42 46.8375 105.42 48.052C105.42 49.2664 104.449 50.238 103.235 50.238C102.021 50.238 101.049 49.2664 101.049 48.052C101.049 46.878 102.021 45.866 103.235 45.866ZM104.165 49.3474H103.842L103.639 48.6592C103.639 48.5782 103.599 48.5378 103.558 48.4973C103.518 48.4568 103.477 48.4163 103.437 48.3758C103.396 48.3354 103.356 48.2949 103.275 48.2949C103.235 48.2544 103.154 48.2544 103.113 48.2544H102.547V49.3474H102.263V46.7566H103.275H103.437C103.477 46.7566 103.558 46.7566 103.599 46.797C103.639 46.797 103.68 46.8375 103.761 46.8375C103.801 46.878 103.842 46.878 103.882 46.9185C103.963 46.9995 104.004 47.0804 104.044 47.1614C104.084 47.2423 104.084 47.3638 104.084 47.4852C104.084 47.5662 104.084 47.6472 104.044 47.7281C104.004 47.8091 104.003 47.8901 103.963 47.9305C103.923 47.971 103.882 48.052 103.801 48.0925C103.72 48.1329 103.68 48.1734 103.599 48.1734C103.761 48.2139 103.882 48.3758 103.963 48.6592L104.165 49.3474ZM102.547 47.9305H103.235C103.437 47.9305 103.558 47.8901 103.639 47.8091C103.72 47.7281 103.761 47.6067 103.761 47.4448C103.761 47.1614 103.599 46.9995 103.275 46.9995H102.547V47.9305Z" fill="#1D1D1B"/>
<path d="M60.5 12.104C33.791 12.104 12.1 33.7618 12.1 60.5202C12.1 87.2382 33.7505 108.936 60.5 108.936C87.209 108.936 108.9 87.2787 108.9 60.5202C108.9 33.7618 87.209 12.104 60.5 12.104ZM0 60.4798C0 27.0823 27.0732 0 60.5 0C93.9268 0 121 27.0823 121 60.4798C121 93.9177 93.9268 121 60.5 121C27.0732 121 0 93.9177 0 60.4798Z" fill="#AFAEB4"/>
<path d="M32.4149 108.046C32.941 107.115 33.548 106.103 34.0741 105.374L34.0336 105.334C33.3861 105.981 32.6982 106.669 31.9698 107.317L29.0965 109.948L28.6109 109.625L29.7845 106.062C30.1082 105.05 30.4724 104.079 30.8366 103.228H30.7962C30.2701 104.038 29.6226 104.929 28.9751 105.86L26.9922 108.613L26.3042 108.167L31.0795 101.69L31.9293 102.216L30.7152 105.819C30.351 106.872 30.1082 107.641 29.744 108.491H29.7845C30.432 107.803 30.9985 107.277 31.8079 106.508L34.5597 103.917L35.4096 104.483L31.4032 111.487L30.6748 111.001L32.4149 108.046Z" fill="#292929"/>
<path d="M37.919 110.515L36.0979 109.625L34.7624 112.337L36.8263 113.349L36.4621 114.078L33.5889 112.661L37.1501 105.415L39.9019 106.75L39.5377 107.479L37.5952 106.548L36.4216 108.936L38.2427 109.827L37.919 110.515Z" fill="#292929"/>
<path d="M42.2083 107.722L39.2136 115.211L38.3638 114.887L41.3584 107.398L42.2083 107.722Z" fill="#292929"/>
<path d="M41.5205 116.102L43.8677 108.41L44.7175 108.653L45.0412 112.701C45.1222 113.632 45.2031 114.766 45.2031 115.697H45.2436C45.5269 114.482 45.8101 113.47 46.2148 112.134L47.0647 109.382L47.8336 109.625L45.4864 117.316L44.6366 117.073L44.3128 112.904C44.2319 112.013 44.1914 111.041 44.1914 109.989H44.1509C43.9081 111.041 43.6249 112.013 43.1392 113.673L42.3299 116.345L41.5205 116.102Z" fill="#292929"/>
<path d="M50.464 110.191L48.8049 118.085L47.9146 117.883L49.5737 109.989L50.464 110.191Z" fill="#292929"/>
<path d="M51.2734 118.531L52.2447 110.515L53.0945 110.637L54.1062 114.563C54.349 115.454 54.6323 116.587 54.7942 117.478H54.8346C54.9156 116.223 54.9965 115.171 55.1989 113.794L55.5631 110.92L56.3724 111.041L55.4012 119.057L54.5514 118.935L53.4992 114.887C53.2968 114.037 53.054 113.065 52.8922 112.053H52.8517C52.7708 113.146 52.6898 114.159 52.4875 115.859L52.1637 118.611L51.2734 118.531Z" fill="#292929"/>
<path d="M61.957 119.057C61.5928 119.178 61.0263 119.34 60.5406 119.3C59.8527 119.3 59.1647 119.097 58.6386 118.49C58.0721 117.883 57.6674 116.749 57.7079 115.292C57.7483 112.175 59.3671 111.122 60.7834 111.122C61.2691 111.122 61.6737 111.244 61.9166 111.365L61.7142 112.134C61.5119 112.013 61.2286 111.932 60.7834 111.932C59.7717 111.932 58.6791 112.701 58.6791 115.211C58.6386 117.68 59.5694 118.49 60.5406 118.53C60.8644 118.53 61.0263 118.49 61.1072 118.45L61.1477 115.818H60.0955V115.049H61.9975L61.957 119.057Z" fill="#292929"/>
<path d="M66.8941 115.049L64.8707 115.211L65.1539 118.207L67.4202 118.004L67.5011 118.814L64.3041 119.097L63.5757 111.082L66.6513 110.799L66.7322 111.608L64.5874 111.811L64.8302 114.442L66.8536 114.28L66.8941 115.049Z" fill="#292929"/>
<path d="M68.1079 110.758C68.4721 110.596 68.9173 110.434 69.4029 110.353C70.1718 110.191 70.8193 110.272 71.3049 110.596C71.75 110.92 72.0333 111.406 72.1547 112.053C72.3571 113.065 71.9929 113.794 71.2644 114.32V114.361C71.8715 114.442 72.3166 114.928 72.6808 115.94C73.045 116.992 73.3688 117.64 73.4902 117.883L72.5594 118.045C72.3975 117.842 72.1143 117.114 71.7501 116.142C71.3858 115.09 70.9407 114.766 70.1718 114.887L69.8076 114.968L70.4551 118.409L69.5648 118.571L68.1079 110.758ZM69.6862 114.239L70.0504 114.158C70.9002 113.997 71.3858 113.268 71.1835 112.296C71.0216 111.365 70.536 110.879 69.5648 111.041C69.4029 111.082 69.2006 111.122 69.1196 111.163L69.6862 114.239Z" fill="#292929"/>
<path d="M77.7394 116.669L77.5371 116.102L77.8608 115.049C78.306 113.551 78.8725 111.811 78.3869 110.434C78.1036 109.625 77.5775 109.26 76.8896 109.503C76.3635 109.706 76.1207 110.07 75.9588 110.272L75.5137 109.706C75.716 109.382 76.1207 108.936 76.7682 108.694C77.9822 108.289 78.8321 108.977 79.1963 110.11C79.6819 111.487 79.2367 113.147 78.7511 114.685L78.5083 115.535V115.576L80.9769 114.725L81.2602 115.495L77.7394 116.669Z" fill="#292929"/>
<path d="M85.0237 109.544C86.1972 112.134 85.8735 113.551 84.8618 113.997C83.7691 114.482 82.5146 113.511 81.4625 111.203C80.3698 108.815 80.4912 107.236 81.6648 106.71C82.7574 106.224 84.012 107.277 85.0237 109.544ZM82.2718 110.799C83.0407 112.499 83.8906 113.551 84.5785 113.227C85.226 112.904 84.9427 111.608 84.1738 109.908C83.4049 108.248 82.5551 107.155 81.9076 107.439C81.2601 107.762 81.5029 109.139 82.2718 110.799Z" fill="#292929"/>
<path d="M88.261 112.216L87.9777 111.689L88.0991 110.596C88.261 109.018 88.4633 107.196 87.7349 105.941C87.2897 105.212 86.7232 104.929 86.0757 105.293C85.5901 105.577 85.4282 106.022 85.3068 106.224L84.7402 105.739C84.8616 105.415 85.1854 104.888 85.7924 104.524C86.9255 103.876 87.8563 104.403 88.4633 105.415C89.1917 106.67 89.0703 108.37 88.9085 109.989L88.8275 110.88V110.92L91.0533 109.625L91.458 110.313L88.261 112.216Z" fill="#292929"/>
<path d="M90.6487 102.621L90.0417 103.998L89.4751 103.512L90.244 101.771L90.851 101.326L95.4239 107.601L94.6955 108.127L90.6487 102.621Z" fill="#292929"/>
<path d="M9.9148 63.3136H9.30778L8.41748 62.6659C7.12249 61.7348 5.66564 60.6418 4.20878 60.6418C3.35895 60.6418 2.83286 61.0062 2.83286 61.7348C2.83286 62.3016 3.11614 62.6659 3.27801 62.8683L2.59005 63.1112C2.34724 62.8279 2.06396 62.3016 2.06396 61.5729C2.06396 60.2775 3.0352 59.7108 4.20878 59.7108C5.66564 59.7108 7.08203 60.6823 8.37701 61.6134L9.10544 62.1397H9.1459V59.5488H9.95527L9.9148 63.3136Z" fill="#292929"/>
<path d="M5.94887 56.7149C5.46325 57.3222 4.73482 57.6055 4.08733 57.565C2.91375 57.4436 2.22579 56.553 2.30672 55.5814C2.38766 54.4884 3.39937 54.0026 4.28967 54.0836C4.97763 54.1646 5.58465 54.5289 6.0298 55.2981H6.07027C6.59636 54.6099 7.36525 54.1646 8.29602 54.2455C9.51007 54.367 10.3599 55.2576 10.2385 56.4316C10.1171 57.727 9.02445 58.2532 8.09368 58.1723C6.96057 58.0508 6.35355 57.3626 5.94887 56.7149ZM4.08733 56.6744C4.85622 56.7554 5.30137 56.3101 5.66559 55.8648C5.38231 55.379 4.89669 55.0147 4.28967 54.9742C3.52077 54.8933 2.99468 55.1766 2.95422 55.7434C2.91375 56.2291 3.39937 56.5935 4.08733 56.6744ZM8.21509 55.1361C7.32478 55.0552 6.75823 55.541 6.31308 56.0672C6.63683 56.7149 7.28432 57.1602 7.93181 57.2412C8.78164 57.3222 9.42913 56.9983 9.51007 56.3101C9.59101 55.7434 9.18632 55.2171 8.21509 55.1361Z" fill="#292929"/>
<path d="M2.71143 51.2497L3.56126 51.3711L3.68266 50.6831L4.12781 50.764L4.00641 51.452L6.19169 51.8162C6.67731 51.8972 6.83919 51.7353 6.87965 51.5329C6.87965 51.452 6.87965 51.3711 6.87965 51.2901L7.3248 51.3306C7.36527 51.452 7.36527 51.5734 7.3248 51.7757C7.28434 52.0186 7.2034 52.1804 7.00106 52.3018C6.79872 52.4232 6.55591 52.4637 6.02982 52.3828L3.92547 52.0186L3.84454 52.4637L3.39939 52.3828L3.48032 51.9376L2.8733 51.8162L2.71143 51.2497Z" fill="#292929"/>
<path d="M2.34717 49.1443L2.46857 48.5777L4.41105 49.0229C4.28964 48.9015 4.20871 48.7801 4.16824 48.6587C4.12777 48.4968 4.0873 48.3349 4.12777 48.1326C4.24917 47.6874 4.69433 47.3637 5.58463 47.566L8.01272 48.0921L7.89131 48.6587L5.54416 48.1326C5.09901 48.0516 4.65386 48.0516 4.57292 48.4158C4.53245 48.6991 4.65386 48.9419 5.01807 49.1038C5.09901 49.1443 5.22041 49.1847 5.30135 49.1847L7.64851 49.7108L7.5271 50.2774L2.34717 49.1443Z" fill="#292929"/>
<path d="M13.5569 41.4532C13.5569 41.8175 13.5164 42.4247 13.3141 42.9105C13.0713 43.5582 12.6666 44.125 11.8977 44.4084C11.1288 44.7322 9.91473 44.7322 8.53881 44.2059C5.58463 43.1129 5.13948 41.2508 5.6251 39.9149C5.78697 39.4291 6.02978 39.1052 6.23212 38.9028L6.92008 39.3481C6.75821 39.5101 6.55587 39.7529 6.43446 40.1578C6.07025 41.0888 6.47493 42.3843 8.82209 43.2749C11.1692 44.125 12.2214 43.5178 12.5856 42.6272C12.707 42.3438 12.707 42.1414 12.707 42.0604L10.2385 41.1698L9.87426 42.1414L9.14583 41.858L9.79333 40.0768L13.5569 41.4532Z" fill="#292929"/>
<path d="M7.32471 36.4741C7.40564 36.0693 7.56752 35.624 7.76986 35.2192C8.13407 34.4905 8.53875 34.0452 9.10531 33.8428C9.6314 33.6809 10.198 33.7618 10.7645 34.0452C11.6953 34.4905 12.0595 35.2192 12.0595 36.1098H12.1C12.5451 35.6645 13.1926 35.624 14.2043 35.9478C15.2969 36.2717 15.9444 36.4336 16.2277 36.4336L15.823 37.2837C15.5398 37.2837 14.8113 37.0813 13.8401 36.7979C12.7879 36.4741 12.2618 36.5955 11.8976 37.2837L11.7357 37.6076L14.8923 39.1864L14.4876 39.996L7.32471 36.4741ZM11.0478 37.3242L11.2097 37.0004C11.6143 36.1907 11.2906 35.3811 10.4408 34.9763C9.59093 34.5715 8.90297 34.6524 8.45782 35.543C8.37688 35.7049 8.29594 35.8669 8.29594 35.9883L11.0478 37.3242Z" fill="#292929"/>
<path d="M15.3781 33.1952L17.1183 34.9359L16.6327 35.6646L10.8457 29.7947L11.4123 28.9446L19.1417 31.7783L18.6561 32.5475L16.3494 31.6973L15.3781 33.1952ZM15.621 31.3735L13.6785 30.6448C13.1119 30.4424 12.5049 30.159 11.9383 29.9161L11.8979 29.9566C12.343 30.3614 12.8691 30.8472 13.2738 31.2116L14.7711 32.6689L15.621 31.3735Z" fill="#292929"/>
<path d="M19.9509 30.6852L13.7188 25.5845L14.2853 24.8963L18.1298 26.1513C19.0201 26.4347 20.1127 26.799 20.9626 27.1228C19.9509 26.3942 19.101 25.7465 18.0084 24.8559L15.7826 23.0342L16.3087 22.3865L22.5408 27.4872L21.9743 28.1754L18.0084 26.9204C17.1585 26.6775 16.2278 26.3537 15.297 25.9489C16.1873 26.5561 16.9967 27.2038 18.3321 28.2968L20.4769 30.0375L19.9509 30.6852Z" fill="#292929"/>
<path d="M18.251 20.4835C18.4128 20.1597 18.6961 19.8358 19.0199 19.512C19.6269 18.9048 20.1935 18.6619 20.8005 18.6214C21.6098 18.5809 22.662 18.9857 23.8761 20.2002C25.171 21.5361 25.5353 22.5481 25.5353 23.3173C25.5757 24.1269 25.2115 24.8556 24.564 25.5033C24.2807 25.7462 23.9975 26.0295 23.7547 26.151L18.251 20.4835ZM23.9165 24.977C24.0379 24.8961 24.1189 24.8151 24.1998 24.7341C24.9282 24.0055 25.1306 22.8315 23.1881 20.8479C21.7717 19.3905 20.5577 19.0262 19.6269 19.9168C19.5055 19.9978 19.4246 20.1597 19.3436 20.2406L23.9165 24.977Z" fill="#292929"/>
<path d="M25.7782 13.7234L30.594 20.16L29.8655 20.7267L25.0498 14.2901L25.7782 13.7234Z" fill="#292929"/>
<path d="M32.0914 19.0671L27.8423 12.2257L28.5707 11.7804L31.8082 14.2093C32.5366 14.776 33.4674 15.4642 34.1553 16.0714H34.1958C33.4674 15.0189 32.9008 14.1688 32.1319 12.9948L30.5941 10.5659L31.2821 10.1206L35.6122 16.8811L34.8838 17.3264L31.5249 14.857C30.8369 14.3307 30.0276 13.7235 29.2587 13.0353H29.2182C29.8657 13.9259 30.3918 14.776 31.3226 16.2334L32.7794 18.5813L32.0914 19.0671Z" fill="#292929"/>
<path d="M34.9243 9.10835L33.5888 9.75605L33.2246 9.02738L36.7049 7.32715L37.0691 8.05582L35.7336 8.70353L38.8902 15.2211L38.0808 15.6259L34.9243 9.10835Z" fill="#292929"/>
<path d="M42.8556 9.47283L40.9536 10.2015L42.0058 13.0352L44.1506 12.2256L44.4339 12.9947L41.4392 14.1282L38.6064 6.59862L41.4797 5.50562L41.763 6.27477L39.7396 7.04392L40.6703 9.51331L42.5723 8.78464L42.8556 9.47283Z" fill="#292929"/>
<path d="M43.7461 4.89827C44.1103 4.69586 44.5555 4.53393 45.0006 4.41249C45.7695 4.21008 46.3765 4.21008 46.9026 4.49345C47.3882 4.77682 47.6715 5.26261 47.8334 5.86983C48.1167 6.88188 47.7929 7.65103 47.105 8.21777V8.25826C47.712 8.25826 48.1571 8.74404 48.6023 9.7156C49.0474 10.7276 49.4116 11.3754 49.5735 11.5778L48.6832 11.8207C48.5213 11.6182 48.1571 10.9301 47.7524 9.99897C47.3073 8.98693 46.8621 8.66307 46.0933 8.86548L45.729 8.94645L46.6193 12.3469L45.729 12.5898L43.7461 4.89827ZM45.5672 8.21777L45.9314 8.13681C46.7812 7.89392 47.1859 7.12477 46.9431 6.19369C46.7003 5.30309 46.1742 4.81731 45.2434 5.0602C45.0815 5.10068 44.9197 5.18164 44.7983 5.22212L45.5672 8.21777Z" fill="#292929"/>
<path d="M50.9094 11.2538L49.6953 3.2789L50.5451 3.15746L52.5686 6.67937C53.0137 7.48901 53.5803 8.50105 53.9849 9.31069H54.0254C53.7826 8.05575 53.5803 7.04371 53.3779 5.66733L52.9328 2.8336L53.7421 2.71216L54.9562 10.6871L54.1063 10.8085L52.002 7.20563C51.5568 6.43648 51.0712 5.58636 50.6665 4.65528H50.6261C50.8689 5.70781 51.0308 6.71985 51.2736 8.42009L51.6783 11.1728L50.9094 11.2538Z" fill="#292929"/>
<path d="M57.627 8.05588L57.1818 10.4848L56.2915 10.5253L57.8293 2.42891L58.841 2.38843L60.9049 10.3633L60.0146 10.4038L59.4076 8.01539L57.627 8.05588ZM59.2862 7.24624L58.8005 5.22215C58.6791 4.65541 58.5173 4.0077 58.3959 3.40047H58.3554C58.2744 4.0077 58.1935 4.69589 58.1126 5.26263L57.7888 7.3272L59.2862 7.24624Z" fill="#292929"/>
<path d="M62.9686 3.19797L61.5117 3.11701L61.5522 2.30737L65.3967 2.50978L65.3562 3.31942L63.8993 3.23845L63.5351 10.4847L62.6044 10.4442L62.9686 3.19797Z" fill="#292929"/>
<path d="M68.2292 2.8336L67.2579 10.849L66.3271 10.7275L67.2984 2.71216L68.2292 2.8336Z" fill="#292929"/>
<path d="M74.0976 7.97505C73.4905 10.9302 72.1956 11.8613 70.9411 11.5779C69.6461 11.2946 69.039 9.71577 69.6056 7.08445C70.1722 4.49362 71.3862 3.23869 72.7621 3.56254C74.138 3.80543 74.6237 5.46518 74.0976 7.97505ZM70.5364 7.28686C70.1722 8.90613 70.1722 10.6064 71.1434 10.8088C72.1551 11.0112 72.8026 9.35143 73.1263 7.81313C73.4501 6.35578 73.531 4.5341 72.5193 4.33169C71.5481 4.0888 70.9006 5.66759 70.5364 7.28686Z" fill="#292929"/>
<path d="M74.6641 12.3469L77.2136 4.6958L78.0229 4.97917L78.2253 9.02735C78.2657 9.95843 78.3062 11.0919 78.3062 12.023H78.3467C78.6704 10.8085 78.9942 9.7965 79.4393 8.46061L80.3701 5.74833L81.139 5.99122L78.5895 13.6423L77.7801 13.3589L77.5778 9.18928C77.5373 8.29868 77.4968 7.32712 77.5373 6.27459H77.4968C77.2136 7.32712 76.9303 8.29868 76.3637 9.91795L75.4734 12.5493L74.6641 12.3469Z" fill="#292929"/>
<path d="M82.1504 12.5897L80.6531 14.5328L79.8438 14.1684L84.9427 7.65088L85.8735 8.09618L84.0929 16.1521L83.2835 15.7472L83.8096 13.3183L82.1504 12.5897ZM83.9715 12.6301L84.4571 10.606C84.5785 10.0393 84.7809 9.39159 84.9427 8.78437H84.9023C84.5381 9.31063 84.1739 9.87738 83.8096 10.3227L82.5551 11.9824L83.9715 12.6301Z" fill="#292929"/>
<path d="M89.3944 9.91821L90.2037 10.404L86.4806 16.6382L88.4231 17.8122L88.0184 18.4599L85.2666 16.8406L89.3944 9.91821Z" fill="#292929"/>
<path d="M91.4985 20.9695L95.5049 13.8042L96.2333 14.4114L94.2504 17.8119C93.7243 18.7025 93.2387 19.4716 92.6721 20.2813L92.7126 20.3218C93.441 19.5931 94.1694 19.0668 94.9788 18.4191L98.0544 15.9497L98.6614 16.476L96.7999 19.836C96.3142 20.6861 95.8691 21.4957 95.2216 22.4268L95.2621 22.4673C96.1119 21.6577 96.7999 21.0909 97.4878 20.4837L100.482 17.9738L101.17 18.5406L94.7765 23.6817L94.0885 23.115L96.031 19.6336C96.4761 18.9049 96.9213 18.0953 97.4069 17.3666C96.7189 17.9738 96.0714 18.581 95.343 19.1478L92.227 21.6172L91.4985 20.9695Z" fill="#292929"/>
<path d="M103.235 20.8481L97.4073 26.3941L96.7598 25.7464L102.587 20.2004L103.235 20.8481Z" fill="#292929"/>
<path d="M98.7021 27.7704L104.975 22.7102L105.501 23.3984L103.477 26.9203C103.032 27.7299 102.425 28.7015 101.94 29.4707C102.87 28.6205 103.68 27.9324 104.772 27.0822L107.039 25.2606L107.565 25.9083L101.292 30.9685L100.766 30.2803L102.83 26.6774C103.275 25.9083 103.761 25.0581 104.368 24.208C103.558 24.9367 102.789 25.5844 101.454 26.6774L99.2687 28.4181L98.7021 27.7704Z" fill="#292929"/>
<path d="M107.119 32.8711L106.027 31.1709L103.477 32.7901L104.732 34.7332L104.044 35.1785L102.304 32.4663L109.062 28.0942L110.721 30.6851L110.033 31.1304L108.86 29.3087L106.634 30.766L107.726 32.4663L107.119 32.8711Z" fill="#292929"/>
<path d="M108.495 38.4172L106.067 38.903L105.703 38.0934L113.797 36.4741L114.201 37.4052L107.605 42.344L107.241 41.5343L109.224 40.0365L108.495 38.4172ZM109.831 39.5912L111.531 38.3768C112.016 38.0124 112.583 37.6481 113.068 37.3242V37.2838C112.461 37.4457 111.773 37.6076 111.247 37.7291L109.224 38.1744L109.831 39.5912Z" fill="#292929"/>
<path d="M108.252 44.0845L115.496 40.2388L115.78 41.1699L112.259 42.951C111.328 43.3963 110.519 43.8012 109.588 44.1655V44.206C110.6 44.0036 111.49 43.9226 112.502 43.8012L116.427 43.3559L116.67 44.125L113.27 45.9467C112.421 46.392 111.571 46.8373 110.559 47.2826V47.3231C111.692 47.1207 112.583 46.9992 113.513 46.8778L117.358 46.392L117.641 47.2421L109.466 48.1327L109.183 47.2826L112.704 45.38C113.473 44.9751 114.282 44.5703 115.092 44.206V44.1655C114.201 44.3274 113.311 44.4489 112.421 44.5298L108.455 44.8942L108.252 44.0845Z" fill="#292929"/>
<path d="M112.583 50.9261L110.114 50.8047L109.952 49.9141L118.208 50.3594L118.37 51.3714L110.762 54.529L110.6 53.6384L112.866 52.7073L112.583 50.9261ZM113.594 52.4644L115.537 51.6953C116.063 51.4929 116.71 51.25 117.277 51.0476V51.0071C116.67 51.0071 115.941 51.0071 115.415 51.0071L113.351 50.9666L113.594 52.4644Z" fill="#292929"/>
<path d="M118.815 55.4194C118.936 55.8243 119.017 56.2695 119.057 56.7148C119.098 57.5245 118.976 58.1317 118.612 58.577C118.248 58.9818 117.722 59.1842 117.074 59.2247C116.063 59.3057 115.334 58.8604 114.93 58.0912H114.889C114.768 58.6985 114.201 59.0628 113.149 59.3057C112.056 59.5486 111.368 59.751 111.126 59.8724L111.045 58.9413C111.287 58.8199 112.016 58.6175 113.028 58.3746C114.12 58.1317 114.525 57.7674 114.444 56.9577L114.403 56.5934L110.883 56.8363L110.842 55.9052L118.815 55.4194ZM115.132 56.5529L115.172 56.9173C115.213 57.8079 115.901 58.3341 116.872 58.2936C117.803 58.2127 118.329 57.8079 118.288 56.8363C118.288 56.6744 118.248 56.472 118.208 56.3505L115.132 56.5529Z" fill="#292929"/>
<path d="M119.058 61.4919C119.139 61.8562 119.179 62.261 119.179 62.7468C119.138 63.5969 118.896 64.2041 118.491 64.609C117.924 65.2162 116.872 65.621 115.173 65.5805C113.352 65.4996 112.34 65.0138 111.814 64.4875C111.247 63.9208 111.004 63.1516 111.045 62.2205C111.045 61.8562 111.085 61.4514 111.166 61.2085L119.058 61.4919ZM111.854 62.1396C111.814 62.261 111.814 62.3825 111.814 62.5039C111.773 63.516 112.461 64.528 115.213 64.6494C117.236 64.7304 118.37 64.1637 118.451 62.8683C118.451 62.7063 118.451 62.5444 118.41 62.4229L111.854 62.1396Z" fill="#292929"/>
<path d="M37.5949 86.7118L37.3926 83.1494H38.1615C38.5257 84.1209 38.9708 84.8496 39.4969 85.3354C40.023 85.8212 40.5896 86.1046 41.2371 86.1046C41.7227 86.1046 42.0869 85.9831 42.3702 85.7402C42.6534 85.4973 42.8153 85.1735 42.8153 84.7687C42.8153 84.4043 42.6939 84.1209 42.4511 83.9185C42.2083 83.6756 41.8036 83.4732 41.1966 83.3113L39.9016 82.866C39.2136 82.6231 38.6471 82.2993 38.2829 81.8135C37.9187 81.3277 37.7163 80.8014 37.7163 80.1537C37.7163 79.3441 37.9591 78.7369 38.4852 78.2106C39.0113 77.7248 39.6993 77.4819 40.5086 77.4819C40.711 77.4819 40.8728 77.4819 41.0752 77.5224C41.2775 77.5629 41.5203 77.6439 41.7631 77.7248C41.8845 77.7653 42.006 77.8058 42.1274 77.8868C42.2488 77.9272 42.3297 77.9677 42.3297 77.9677C42.3297 77.9677 42.3702 77.9677 42.4511 77.9677C42.4916 77.9677 42.532 77.9677 42.5725 77.9677C42.6939 77.9677 42.7749 77.9272 42.8558 77.8463C42.9367 77.7653 42.9772 77.6439 43.0177 77.4819H43.5842L43.7461 80.3157H43.1391C42.7749 79.587 42.4106 79.0202 42.006 78.6559C41.6013 78.2916 41.1157 78.1296 40.5896 78.1296C40.1444 78.1296 39.7802 78.2511 39.4969 78.4535C39.2136 78.6559 39.0922 78.9393 39.0922 79.2631C39.0922 79.5465 39.2136 79.7894 39.4565 80.0323C39.6993 80.2752 40.023 80.4371 40.4682 80.5585L41.8036 80.9634C42.613 81.2063 43.2605 81.6111 43.6652 82.0969C44.0698 82.5826 44.2722 83.1899 44.2722 83.9185C44.2722 84.7687 43.9889 85.4568 43.4628 85.9831C42.8963 86.5094 42.2083 86.7927 41.3585 86.7927C41.1561 86.7927 40.9133 86.7523 40.711 86.7118C40.5086 86.6713 40.2254 86.5903 39.9016 86.4689C39.7802 86.4284 39.6183 86.3474 39.3351 86.2665C39.0922 86.145 38.8899 86.1046 38.7685 86.1046C38.6471 86.1046 38.5662 86.145 38.4852 86.2665C38.4043 86.3879 38.3638 86.5094 38.3233 86.7118H37.5949Z" fill="#AFAEB4"/>
<path d="M46.2148 79.2631C46.2148 78.8583 46.1338 78.6154 46.0124 78.4939C45.891 78.3725 45.6077 78.2915 45.1626 78.251V77.6438H49.4522V78.251C49.0071 78.2915 48.7238 78.3725 48.6024 78.4939C48.481 78.6154 48.4001 78.8582 48.4001 79.3035V84.89C48.4001 85.2948 48.481 85.5782 48.6024 85.6592C48.7238 85.7806 49.0071 85.8616 49.4522 85.9021V86.5093H45.1626V85.9021C45.6077 85.8616 45.891 85.7806 46.0124 85.6592C46.1338 85.5377 46.2148 85.2948 46.2148 84.89V79.2631Z" fill="#AFAEB4"/>
<path d="M53.4991 84.89C53.4991 85.3353 53.5801 85.6187 53.7824 85.7402C53.9443 85.8616 54.3489 85.9426 54.9155 85.9426C55.7653 85.9426 56.4533 85.6997 56.9389 85.2139C57.4245 84.7281 57.7078 84.0399 57.7888 83.1088H58.4767L58.2744 86.5093H50.2212V85.9021C50.6663 85.8616 50.9496 85.7806 51.071 85.6592C51.1924 85.5377 51.2734 85.2948 51.2734 84.89V79.2631C51.2734 78.8583 51.1924 78.6154 51.071 78.4939C50.9496 78.3725 50.6663 78.2915 50.2212 78.251V77.6438H54.5108V78.251C54.0657 78.2915 53.7824 78.3725 53.661 78.4939C53.5396 78.6154 53.4587 78.8582 53.4587 79.3035V84.89H53.4991Z" fill="#AFAEB4"/>
<path d="M61.1877 86.7522L58.4764 79.344C58.355 78.9797 58.1931 78.7368 58.0312 78.5749C57.8693 78.4129 57.6265 78.332 57.3433 78.251V77.6438H61.552V78.251C61.2282 78.2915 60.9854 78.3725 60.864 78.4129C60.7426 78.4939 60.6617 78.6154 60.6617 78.7773C60.6617 78.8178 60.6617 78.8987 60.7021 78.9392C60.7021 79.0202 60.7426 79.1011 60.7831 79.1821L62.6446 84.2423L64.3038 79.506C64.3038 79.4655 64.3443 79.425 64.3443 79.3845C64.4252 79.1416 64.4657 78.9392 64.4657 78.8583C64.4657 78.6963 64.3847 78.5749 64.2633 78.4939C64.1015 78.4129 63.8586 78.332 63.4944 78.2915V77.6843H66.2867V78.2915C66.0035 78.332 65.8011 78.4534 65.5988 78.6558C65.4369 78.8178 65.275 79.1416 65.1132 79.506L62.4423 86.7927H61.1877V86.7522Z" fill="#AFAEB4"/>
<path d="M66.4893 86.5093V85.9021C66.9344 85.8616 67.2177 85.7806 67.3391 85.6592C67.4605 85.5377 67.5414 85.2948 67.5414 84.89V79.2631C67.5414 78.8583 67.4605 78.6154 67.3391 78.4939C67.2177 78.3725 66.9344 78.2915 66.4893 78.251V77.6438H74.8257L75.0281 80.6394H74.3401C74.1782 79.7893 73.8545 79.1821 73.3689 78.8178C72.8832 78.4534 72.1548 78.251 71.1836 78.251C70.5765 78.251 70.2123 78.2915 70.01 78.4129C69.8481 78.5344 69.7267 78.8178 69.7267 79.2631V81.5705H70.2528C70.7789 81.5705 71.1431 81.4491 71.4264 81.1657C71.6692 80.8823 71.8311 80.437 71.912 79.8298H72.519V83.9994H71.912C71.8715 83.3922 71.7097 82.9469 71.4264 82.6635C71.1836 82.3802 70.7789 82.2587 70.2528 82.2587H69.7267V84.89C69.7267 85.3353 69.8077 85.6187 70.01 85.7402C70.1719 85.8616 70.5765 85.9021 71.224 85.9021C72.2762 85.9021 73.0046 85.6997 73.5307 85.2948C74.0163 84.89 74.3401 84.2018 74.4615 83.2708H75.1495L74.9471 86.5093H66.4893Z" fill="#AFAEB4"/>
<path d="M79.3985 84.89C79.3985 85.2948 79.4795 85.5377 79.6009 85.6592C79.7223 85.7806 80.046 85.8616 80.5721 85.9021V86.5093H76.1206V85.9021C76.5658 85.8616 76.849 85.7806 76.9704 85.6592C77.0918 85.5377 77.1728 85.2948 77.1728 84.89V79.2631C77.1728 78.8583 77.0918 78.6154 76.9704 78.4939C76.849 78.3725 76.5658 78.2915 76.1206 78.251V77.6438H80.6126C81.948 77.6438 82.9597 77.8057 83.5668 78.1701C84.2142 78.5344 84.538 79.0607 84.538 79.8298C84.538 80.3966 84.2952 80.8823 83.85 81.2062C83.3644 81.53 82.6765 81.7729 81.7052 81.8944C82.3122 82.0158 82.7979 82.2587 83.1621 82.5016C83.5263 82.785 83.7286 83.1088 83.85 83.5137C83.931 83.8375 84.0119 84.2423 84.0524 84.7686C84.0524 84.971 84.0928 85.0924 84.0928 85.1734C84.1333 85.3758 84.1738 85.5377 84.2143 85.6187C84.2547 85.6997 84.3761 85.7402 84.4571 85.7402C84.6594 85.7402 84.7808 85.6592 84.8617 85.4568C84.9427 85.2544 85.0236 84.971 85.0236 84.6067H85.5902C85.5902 84.6471 85.5902 84.6876 85.5902 84.7281C85.5902 84.7686 85.5902 84.8091 85.5902 84.89C85.5902 85.4973 85.4283 85.983 85.1046 86.3069C84.7808 86.6307 84.3357 86.7927 83.7691 86.7927C83.4454 86.7927 83.1216 86.7522 82.8788 86.6307C82.636 86.5498 82.4336 86.3879 82.2718 86.1854C82.029 85.9021 81.9076 85.3353 81.8671 84.5257C81.8671 84.4447 81.8671 84.4042 81.8671 84.3638C81.8266 83.4732 81.6243 82.9064 81.3005 82.6231C81.1387 82.5016 80.9768 82.3802 80.734 82.3397C80.4912 82.2587 80.2079 82.2587 79.8841 82.2587H79.3581V84.89H79.3985ZM79.3985 79.2631V81.5705H80.0865C80.8959 81.5705 81.4624 81.4491 81.7862 81.2062C82.1099 80.9633 82.3122 80.5585 82.3122 79.9513C82.3122 79.3845 82.1504 78.9797 81.8671 78.6558C81.5838 78.3725 81.1387 78.2105 80.6126 78.2105C80.127 78.2105 79.8032 78.2915 79.6413 78.4129C79.4795 78.5344 79.3985 78.8178 79.3985 79.2631Z" fill="#AFAEB4"/>
</svg>
