<svg width="121" height="121" viewBox="0 0 121 121" fill="none" xmlns="http://www.w3.org/2000/svg">
<path d="M60.5 121C93.9132 121 121 93.9132 121 60.5C121 27.0868 93.9132 0 60.5 0C27.0868 0 0 27.0868 0 60.5C0 93.9132 27.0868 121 60.5 121Z" fill="#CC6D45"/>
<path d="M60.4998 101.493C83.1396 101.493 101.493 83.1399 101.493 60.5001C101.493 37.8603 83.1396 19.5071 60.4998 19.5071C37.86 19.5071 19.5068 37.8603 19.5068 60.5001C19.5068 83.1399 37.86 101.493 60.4998 101.493Z" fill="white"/>
<path d="M58.3998 44.9103C57.9556 44.9103 57.5113 44.9507 57.1478 44.9911C56.5824 45.0315 56.1785 45.5565 56.0977 46.0008C55.9766 46.5258 56.2997 47.0105 56.6632 47.2528C56.8651 47.3739 57.067 47.4951 57.3093 47.6163C57.4305 47.697 57.5517 47.7374 57.6728 47.8182C57.9959 48.0201 58.2383 48.3836 58.521 48.7471L58.6421 48.9087C58.9248 49.3125 59.046 49.878 59.046 50.6857C59.046 51.4127 59.0056 52.18 58.9248 53.0685C58.9248 53.2301 58.8845 53.3513 58.8845 53.5128C58.8441 54.1186 58.8037 54.684 58.6017 55.2091C58.521 55.411 58.521 55.6937 58.5614 55.9764C58.6825 56.7842 58.6421 57.4304 58.4402 58.0766C58.2786 58.6016 58.1979 59.0862 58.1171 59.6113C58.0767 59.8132 58.0363 60.0151 57.9959 60.2171C57.6325 60.7017 57.1882 61.3883 57.1882 62.2768C57.1882 62.2768 57.1478 62.3172 57.1478 62.3576C56.7439 62.923 56.542 63.5288 56.4208 63.9731C56.3401 64.2962 56.2189 64.6597 56.0574 65.0231L55.9766 65.2655C55.6131 66.2348 55.2092 67.2041 54.8053 68.133C54.6034 68.6176 54.3207 69.1023 54.0784 69.6273L53.8764 70.0312C53.7957 70.1523 53.7149 70.3139 53.3918 70.435C53.3918 70.435 53.3918 70.435 53.3514 70.435C53.0283 70.0312 52.8668 69.7081 52.8264 69.3446C52.8264 69.2638 52.8264 69.1426 52.8264 69.0619C52.8264 68.6984 52.786 68.2137 52.5841 67.7291C52.6244 67.406 52.5841 67.0829 52.5841 66.881C52.5437 66.679 52.5437 66.5175 52.5841 66.4367C52.8264 65.9924 52.6648 65.5482 52.5841 65.3462C52.5437 65.2655 52.5033 65.1847 52.5033 65.1039C52.6244 64.8212 52.6244 64.4981 52.4225 64.2558L52.3417 64.0942C52.3013 64.0135 52.261 63.9731 52.2206 63.8923C52.2206 63.8519 52.1802 63.8519 52.1802 63.8115C52.3013 63.5288 52.5841 63.0038 52.3013 62.3576C52.3013 62.3172 52.3013 62.2768 52.3417 62.196C52.3417 62.0749 52.3821 61.9537 52.3821 61.7922C52.3821 61.6306 52.3821 61.4691 52.4225 61.3075C52.4225 61.1056 52.4225 60.944 52.4629 60.7421C52.5437 59.894 52.6648 59.0458 52.7456 58.2381C52.7456 58.1169 52.786 57.9958 52.8264 57.8342C52.8668 57.7131 52.9072 57.6323 52.9475 57.5111C53.0283 57.3496 53.1091 57.188 53.1495 56.9861C53.2706 56.5418 53.4322 56.138 53.5533 55.6937L53.7149 55.1687C53.8361 54.8052 53.7149 54.4417 53.4322 54.1994C52.9475 53.7955 52.6244 53.5936 51.9782 53.5936C51.8975 53.5936 51.8167 53.5936 51.7359 53.5936C51.6955 53.5936 51.6148 53.5532 51.5744 53.5532H51.4936C51.009 53.432 50.4839 53.3109 49.9185 53.3109C49.4742 53.3109 49.1108 53.3916 48.7069 53.5128C47.8991 53.7955 47.4145 54.3609 47.2529 55.1687C47.2529 55.2091 47.2529 55.2091 47.1722 55.2898C46.9702 55.4918 46.7683 55.6937 46.6068 55.8956C46.2029 56.3399 45.799 56.7438 45.3951 57.0669C45.274 57.1476 45.1528 57.2688 44.9913 57.39C44.6682 57.6727 44.3451 57.915 44.022 58.1169C43.7796 58.2381 43.5777 58.44 43.4162 58.5612L43.295 58.6824L42.2045 59.5709L41.4372 60.2171C40.791 60.4998 40.3064 60.944 39.8621 61.3075C39.7005 61.4287 39.539 61.5902 39.3774 61.7114L39.1755 61.8729C38.8524 62.1153 38.5293 62.3576 38.2062 62.5999C38.0851 62.6807 37.9235 62.7615 37.8023 62.8422C37.6408 62.9634 37.4792 63.0442 37.3177 63.1653C36.7119 63.6096 36.1465 63.9731 35.6618 64.3769L35.4599 64.5385C35.0964 64.8212 34.6925 65.1039 34.329 65.4674C34.006 65.8309 33.6829 66.0732 33.3598 66.2751C33.0367 66.4771 32.7136 66.7194 32.4712 66.9213L32.1885 67.1637C31.2596 67.931 30.3711 68.6176 29.4018 69.2234C28.8768 69.5465 28.3114 69.7484 27.7055 69.91C27.7459 69.8292 27.7863 69.7081 27.8267 69.5869C27.9075 69.4254 27.9479 69.2638 28.0286 69.0619C28.1902 68.4561 28.3921 67.8906 28.7556 67.1233C28.8768 66.881 28.9576 66.679 28.9979 66.4771C29.0787 66.2751 29.1595 66.0732 29.2403 65.9521C29.7249 65.2655 30.0076 64.5385 30.2499 63.8923C30.2903 63.8519 30.2903 63.7711 30.3307 63.6904C30.4519 63.448 30.6134 63.2461 30.7346 63.0038C31.0173 62.5191 31.3 62.0345 31.5423 61.5498C31.6635 61.3075 31.7443 61.0652 31.825 60.8633C31.8654 60.7825 31.9058 60.6613 31.9462 60.5806C31.9866 60.4998 32.0674 60.3786 32.1078 60.2978C32.1481 60.2171 32.1885 60.1767 32.2289 60.1363C32.2693 60.0555 32.3097 59.9747 32.3905 59.9344C32.4712 59.8132 32.552 59.6516 32.6328 59.5305C32.7539 59.2882 32.9155 59.0458 33.0367 58.8843C33.3194 58.5612 33.6829 58.2381 34.0463 57.915C34.2483 57.7535 34.4098 57.5515 34.6118 57.39C34.8541 57.1476 35.0964 56.9053 35.2983 56.663C35.8234 56.0976 36.308 55.5322 36.8331 54.9264C36.9542 54.7648 37.2369 54.4821 37.2369 54.0378C37.2369 54.0378 37.2369 54.0378 37.2773 54.0378C37.8023 53.7551 38.1658 53.2705 38.2466 52.6243C38.2466 52.5839 38.2466 52.5839 38.2466 52.5839C38.9332 51.9781 38.7313 51.2511 38.6505 51.0088C38.4082 50.1203 37.6004 50.0395 37.3177 49.9991C36.9542 49.9587 36.6715 49.9587 36.3484 49.9587C35.6618 49.9587 35.056 50.0395 34.4906 50.201C34.4098 50.2414 34.2887 50.2414 34.1271 50.2414C33.9656 50.2414 33.7636 50.2414 33.6021 50.201C33.4001 50.201 33.1578 50.1607 32.9155 50.1607C32.5116 50.1607 32.1481 50.2414 31.7847 50.3626C31.6635 50.3626 31.5423 50.3626 31.3808 50.3626C30.9365 50.3626 30.4519 50.403 29.8865 50.5241C29.2403 50.6453 28.5941 50.7261 27.9883 50.8472C27.6652 50.8876 27.3825 50.928 27.0997 50.9684C27.019 50.9684 26.9382 50.9684 26.8574 50.9684C26.6555 50.9684 26.4132 51.0088 26.1708 51.0492C24.3534 51.4934 22.536 51.8973 20.7186 52.3416L20.2743 52.4627C19.9916 52.5435 19.7493 52.5839 19.4666 52.6647C18.9819 52.7858 18.4973 52.907 18.053 52.9878C17.9722 52.9878 17.8511 52.9878 17.7299 52.9878C17.5684 52.9878 17.326 52.9878 17.1241 53.0282C16.6395 53.1089 16.074 53.2301 15.4682 53.3916C14.5393 53.634 13.772 53.7147 13.045 53.7551C12.9642 53.7551 12.9238 53.7551 12.8431 53.7551C12.5604 53.7551 12.3584 53.8359 12.1565 53.9571C12.0353 54.0378 11.8738 54.0782 11.5507 54.0782C11.3891 54.0782 11.268 54.1186 11.1064 54.1186C10.3794 54.2398 9.61209 54.3609 8.88512 54.4821L7.71389 54.684C7.3908 54.7244 7.02731 54.8052 6.70421 54.8456C5.85608 54.9667 5.00795 55.1283 4.15982 55.2898C3.63479 55.411 2.86743 55.6129 2.18085 56.138C1.93853 56.3399 1.81736 56.663 1.85775 56.9861C1.89814 57.3092 2.14046 57.5919 2.42317 57.7131C2.46356 57.7535 2.54433 57.7535 2.58472 57.7535C2.74627 58.0362 2.98859 58.1977 3.23092 58.2785C3.39246 58.3189 3.55401 58.3996 3.71556 58.44C4.15982 58.6016 4.68485 58.7631 5.25027 58.8035C5.45221 58.8035 5.65415 58.8035 5.85608 58.8439C6.13879 58.8439 6.4215 58.8843 6.70421 58.8843C7.02731 58.8843 7.35041 58.8439 7.63312 58.8035C8.03699 58.7227 8.48125 58.6824 8.92551 58.6824C9.20822 58.6824 9.53132 58.642 9.81403 58.6016C10.2179 58.5612 10.9045 58.4804 11.4699 58.0362H11.5103C11.7526 57.9958 12.0353 57.915 12.2776 57.8746L12.6007 57.7938C13.045 57.7131 13.3681 57.2688 13.3277 56.8245V56.7034C13.3277 56.6226 13.2873 56.5418 13.2469 56.4611C13.3277 56.4611 13.4085 56.4207 13.4893 56.4207C13.8124 56.3399 14.1758 56.2995 14.5393 56.2591C14.822 56.2187 15.0644 56.1784 15.3471 56.138C15.6702 56.0572 16.0337 56.0572 16.4375 56.0168C17.1241 55.9764 17.8915 55.936 18.6588 55.6129C18.6992 55.6129 18.6992 55.6129 18.7396 55.6129L20.1935 55.411C21.3244 55.2494 22.4148 55.1283 23.5457 54.9667C24.6361 54.8052 25.767 54.684 26.8574 54.684C26.9382 54.684 27.019 54.684 27.0997 54.684C27.4228 54.684 27.6652 54.8052 27.9883 55.0879C27.9075 55.1687 27.8267 55.2898 27.7863 55.4514C27.5844 55.8956 27.3421 56.3399 27.0594 56.8245C26.7766 57.3092 26.4535 57.8342 26.2112 58.3996C26.1708 58.5208 26.0497 58.6824 25.9285 58.8439C25.767 59.0862 25.565 59.3286 25.4439 59.6517C25.3631 59.8536 25.2419 60.0555 25.1208 60.2978C24.8784 60.7421 24.6361 61.2268 24.515 61.7922C24.4746 61.8326 24.3938 61.9133 24.3534 61.9941C24.2323 62.1557 24.1111 62.3576 23.9495 62.5191C23.5457 63.0442 23.1014 63.65 22.9802 64.5385L22.8187 64.8212C22.6975 65.0635 22.5764 65.3059 22.4148 65.5078L22.3341 65.6693C22.2129 65.9117 22.0513 66.1944 21.9302 66.4771C21.809 66.8002 21.6879 67.1637 21.6071 67.4868C21.5263 67.7291 21.4455 67.931 21.3648 68.1733C21.3648 68.1733 21.3648 68.2137 21.3244 68.2137C21.284 68.2945 21.2436 68.3349 21.2032 68.4157L21.1628 68.4964C21.0821 68.6176 21.0013 68.7792 20.9205 68.9811C20.6782 69.7484 20.4762 70.5158 20.2743 71.2832C20.1935 71.6063 20.1128 71.9697 20.032 72.2928L19.9916 72.5352C19.9916 72.6159 19.9512 72.6967 19.9512 72.7775C19.9512 72.8179 19.9512 72.8583 19.9512 72.8583C19.5473 73.7872 19.7897 74.7968 20.5974 75.3623C21.1224 75.7257 21.6475 75.8873 22.011 75.9681C22.4956 76.0892 22.9802 76.1296 23.5053 76.1296C24.1111 76.1296 24.7169 76.0488 25.2419 76.0085C27.3017 75.7661 28.796 74.9584 29.7653 73.5045C29.9268 73.3025 30.1288 73.0602 30.3711 72.8583C30.8557 72.4544 31.3 72.0505 31.7847 71.6466C32.027 71.4447 32.3097 71.2428 32.552 71.0005C32.6732 70.9197 32.7539 70.7985 32.8751 70.7177C33.279 70.3946 33.6829 70.0715 34.0463 69.6677C34.4098 69.2638 34.8541 68.9407 35.3791 68.5772C36.0253 68.133 36.6715 67.6079 37.2773 67.1637C37.6408 66.881 38.0043 66.5982 38.3678 66.3155C38.6909 66.0732 39.0543 65.8309 39.4178 65.5886L39.7813 65.3462C40.0236 65.1847 40.266 65.0231 40.5083 64.8616C41.0333 64.5385 41.5584 64.2154 42.043 63.8115C42.8911 63.1653 43.6989 62.5191 44.5066 61.8729C44.9509 61.5095 45.3951 61.1864 45.8394 60.8229C45.9202 60.7825 46.0009 60.7017 46.0413 60.7017C46.4048 60.7825 46.4452 61.1056 46.4452 61.2671C46.4452 61.9133 46.4452 62.5595 46.4452 63.2057V64.0942C46.4452 64.1346 46.4452 64.1346 46.4452 64.175C46.2433 64.8212 46.4452 65.3866 46.5664 65.7905V65.8309C46.6068 65.9117 46.6471 66.0328 46.6471 66.0732C46.4856 66.8406 46.6068 67.5675 46.7683 68.2137C47.051 69.3042 47.4549 70.3543 47.8184 71.2832C47.9395 71.6063 48.1415 71.8486 48.2626 72.0101C48.3434 72.0909 48.4242 72.2121 48.4646 72.2928C48.9896 73.3833 49.9589 74.1103 51.2513 74.3122C51.9379 74.4334 52.5841 74.4737 53.2303 74.4737C54.1188 74.4737 55.0073 74.3526 55.8554 74.1506C56.0977 74.0699 56.5016 73.9487 56.8247 73.7064C57.0266 73.5852 57.4709 73.1814 57.5517 72.6159C57.6325 72.1717 57.7132 71.7274 57.9152 71.3639C58.0363 71.162 58.0767 70.9197 58.1171 70.637C58.1171 70.435 58.1979 70.2735 58.319 70.0312C58.6017 69.5061 58.8037 68.9811 58.9652 68.4157C59.0864 68.0118 59.1268 67.6079 59.1268 67.2444V67.0425C59.1268 66.881 59.1672 66.5579 59.2076 66.4771C60.0961 65.8713 60.4192 64.9424 60.6615 64.2154C60.7019 64.0942 60.7423 64.0135 60.7826 63.8923C60.8634 63.65 60.9846 63.3673 61.1057 63.125L61.2269 62.8826C61.2673 62.8019 61.3077 62.6807 61.3885 62.5595C61.5904 62.2364 61.6712 61.9537 61.7923 61.671C61.8731 61.3883 61.9539 61.1864 62.075 61.0652C62.1962 60.944 62.277 60.7825 62.3577 60.6209C62.3981 60.3786 62.6001 60.1767 62.8424 59.894C63.1655 59.5305 63.5694 59.0458 63.7309 58.44C64.1348 57.9554 64.3367 57.3496 64.3367 56.7034C64.3367 56.663 64.3367 56.6226 64.3367 56.5418C64.6194 56.0572 64.6598 55.5725 64.7406 55.2091C64.7406 55.0879 64.781 54.9667 64.8214 54.8052C65.0233 53.9167 65.1849 53.1089 65.1041 52.18C65.1041 51.9781 65.1041 51.7358 65.1041 51.4531C65.1445 50.9684 65.1445 50.4434 64.9829 49.878C64.9425 49.7568 64.8618 49.3933 64.9021 49.1914C65.0233 48.4644 64.7406 47.899 64.4983 47.4143C64.4175 47.2932 64.3771 47.1316 64.3367 46.9701C64.1752 46.3643 63.7713 45.6373 62.6808 45.3142C61.3077 44.9507 59.9749 44.8296 58.8441 44.7488C58.6825 44.9103 58.521 44.9103 58.3998 44.9103Z" fill="white"/>
<path d="M86.7921 52.584C86.671 52.584 86.5094 52.584 86.3883 52.584C85.217 52.6244 84.692 53.311 84.4497 53.9168C84.3689 54.1187 84.2477 54.2802 84.0458 54.4014C83.6419 54.6841 83.2784 55.0072 82.9553 55.2899L82.6323 55.5726L82.5919 55.613C82.4707 55.6938 82.2688 55.8553 82.1476 56.1381C81.9457 56.2188 81.7437 56.34 81.5822 56.4612C81.2591 56.7439 80.8956 56.9862 80.5321 57.2285L80.3302 57.3497C80.0475 57.5516 79.7244 57.6728 79.4013 57.7535C79.4013 57.6728 79.4417 57.6324 79.4417 57.592C79.482 57.4304 79.5224 57.2689 79.5628 57.1477C79.8051 56.6631 79.7244 56.2188 79.684 55.9361C79.684 55.8957 79.6436 55.815 79.6436 55.7746C79.7648 55.3303 79.6436 54.8861 79.5224 54.563C79.482 54.4822 79.482 54.361 79.4417 54.2802C79.4013 53.9975 79.1993 53.7552 78.9166 53.6341C78.1897 53.311 77.4223 53.1494 76.6549 53.1494C76.3319 53.1494 76.0088 53.1898 75.6857 53.2302C75.0798 53.3513 74.7568 53.6744 74.5548 53.9168C74.3933 54.1591 74.1913 54.563 74.3125 55.1284C74.474 56.0573 74.3933 57.067 74.3125 57.9959C74.1913 59.0459 74.0702 60.096 73.9894 61.1865L73.8278 62.6808C73.7875 62.9231 73.7875 63.1654 73.7471 63.4078C73.7067 63.9328 73.6663 64.4174 73.5855 64.8617C73.424 65.7502 73.222 66.6791 73.0605 67.5676C72.9797 67.9311 72.8989 68.2946 72.8182 68.6581L72.7778 68.8196C72.7374 68.9812 72.7374 69.1023 72.697 69.2639C72.5758 69.6274 72.4547 70.0312 72.3335 70.3947C72.2124 70.7582 72.0912 71.1217 72.0104 71.4852C71.8893 71.8891 71.6873 72.5756 72.172 73.3026C72.3335 73.5045 72.5355 73.6661 72.7778 73.7065C73.1413 73.7469 73.5047 73.7873 73.8278 73.7873C74.7164 73.7873 75.5241 73.5853 76.2915 73.2218C77.0992 72.818 77.3011 72.2525 77.3011 71.8487C77.3415 71.4852 77.3011 71.0813 77.3011 70.7178C77.3011 70.4755 77.3011 70.2332 77.3011 69.9909V69.8293C77.3011 69.7889 77.3011 69.7889 77.3011 69.7485C77.7858 69.2235 77.907 68.6177 77.9877 68.1734C78.0281 67.9311 78.0685 67.6888 78.1897 67.5272C78.2704 67.3657 78.3108 67.1234 78.3108 66.9214C78.3108 66.8407 78.3916 66.6791 78.4724 66.4772C78.5531 66.2752 78.6339 66.0733 78.7147 65.831C78.7551 65.629 78.8762 65.4271 78.9974 65.1848C79.0782 65.0232 79.159 64.8617 79.2397 64.6597C79.2801 64.4982 79.3609 64.377 79.4013 64.2155C79.4417 64.0539 79.482 63.9328 79.5224 63.852C79.684 63.5289 79.8859 63.2058 80.0475 62.8827C80.411 62.1557 80.7744 61.4692 81.2591 60.9037C81.3802 60.7826 81.4206 60.6614 81.461 60.5806C81.6226 60.2575 81.9053 59.9748 82.3092 59.6114L82.3495 59.571C82.4707 59.4498 82.6726 59.2883 82.8342 59.0863C83.0361 58.7632 83.3996 58.5209 83.7631 58.2786C83.8035 58.319 83.8035 58.3593 83.8035 58.3997C83.6823 58.6421 83.6419 58.8844 83.6419 59.0863V59.2075C83.6015 59.3286 83.6015 59.4902 83.5612 59.6114C83.5208 59.8133 83.5208 59.9748 83.4804 60.1768C83.44 60.4191 83.3592 60.621 83.3188 60.8634C83.2381 61.1461 83.1977 61.3884 83.1169 61.6711C83.0361 62.1557 82.915 62.6404 82.8342 63.125L82.7938 63.3674L82.7534 63.5693C82.6322 64.2559 82.5111 64.9828 82.3899 65.6694C82.3495 65.9118 82.3092 66.1541 82.3092 66.4368L82.2688 66.7195L82.0668 68.5773L81.9457 69.587L81.9053 69.9505C81.8649 70.2332 81.8245 70.5563 81.8245 70.839V70.9198C81.8245 71.2025 81.7841 71.6063 81.9457 71.9698C82.0668 72.2525 82.0668 72.616 82.1072 73.0199V73.1411V73.1814C82.1072 73.4238 82.1072 73.6661 82.188 73.9488C82.4303 74.9181 83.0765 75.1604 83.6823 75.2412C83.8439 75.2816 84.0054 75.2816 84.2074 75.2816C85.1766 75.2816 85.9844 74.9585 86.7921 74.5546C87.4383 74.2719 87.8018 73.7065 87.8018 72.9795C87.8018 72.7372 87.8018 72.3333 87.8826 72.091C88.0037 71.8083 88.1249 71.566 88.2461 71.3236C88.5288 70.7582 88.8115 70.1928 88.973 69.5466L89.0134 69.5062C89.0538 69.4658 89.0538 69.3851 89.0942 69.3447C89.1346 69.2235 89.175 69.1427 89.2558 69.0216C89.3769 68.7389 89.5385 68.4561 89.6596 68.0927C89.7404 67.7696 89.8616 67.5272 90.0635 67.2849C90.225 67.0426 90.4674 66.7195 90.5481 66.2349C90.5885 66.1945 90.5885 66.1541 90.6289 66.1541C90.7097 66.0733 90.8309 65.9118 90.9116 65.7906C91.0328 65.629 91.0732 65.4271 91.1539 65.2656C91.1943 65.1848 91.1943 65.1444 91.2347 65.0636C91.3963 64.7001 91.3155 64.2963 91.0328 64.0539C90.8712 63.8924 90.6289 63.8116 90.427 63.8116C90.3058 63.8116 90.1443 63.852 90.0231 63.8924C89.2557 64.2963 88.8923 64.8617 88.6096 65.4271C88.3268 65.9925 87.8826 66.4368 87.2364 66.8003C87.1152 66.8407 87.0345 66.881 86.9133 66.9214C86.9133 66.8407 86.9133 66.7599 86.9133 66.7195C86.9133 66.5983 86.9537 66.4368 86.9941 66.3156C87.1556 65.4675 87.2768 64.6598 87.4383 63.8116V63.7712C87.7614 63.2866 87.8018 62.8019 87.8422 62.4385V62.3173C87.8826 62.0346 87.923 61.7923 87.9634 61.5096C87.9634 61.4692 88.0037 61.4288 88.0037 61.3884C88.0441 61.2672 88.0845 61.1461 88.1249 60.9845C88.1653 60.7422 88.2057 60.4999 88.2057 60.2575C88.2461 59.8133 88.2865 59.4094 88.4884 59.0863C88.8519 58.3997 89.0538 57.6324 89.2558 56.9458C89.4173 56.34 89.5385 55.7746 89.6192 55.2092V55.088C89.6192 55.0072 89.6192 54.8861 89.6596 54.8861C89.9423 54.6841 90.0635 54.4014 90.0635 54.0783C90.0231 53.7552 89.8212 53.4725 89.5385 53.3513C89.4577 53.311 89.3769 53.2706 89.2961 53.2302C89.0942 53.1494 88.9327 53.0686 88.7307 52.9879C88.1653 52.6648 87.5595 52.584 86.7921 52.584Z" fill="white"/>
<path d="M102.543 53.1089C102.341 53.1089 102.139 53.1493 101.978 53.23C101.816 53.3108 101.614 53.3512 101.372 53.3512C101.21 53.3512 101.049 53.3512 100.887 53.3512C100.766 53.3512 100.685 53.3512 100.564 53.3512C100.483 53.3512 100.443 53.3512 100.362 53.3512C99.5141 53.3512 98.8275 53.5935 98.3025 54.1186C98.3025 54.1186 98.2621 54.1589 98.2217 54.1589C98.1409 54.1993 98.0198 54.2801 97.939 54.3205C97.8582 54.4013 97.7774 54.4417 97.6563 54.5224C97.3332 54.7244 96.9697 54.9667 96.687 55.3706C96.6062 55.4917 96.485 55.6129 96.3639 55.7744C96.1216 56.0168 95.8389 56.3399 95.6369 56.7841C95.5965 56.8649 95.4754 56.9861 95.3946 57.1476C95.233 57.3092 95.0715 57.5111 94.9503 57.7534L94.9099 57.7938C94.3445 58.8035 93.7387 59.8535 93.2541 60.944L93.1329 61.1863C92.8906 61.671 92.6079 62.2364 92.6079 62.9634C92.6079 63.0441 92.6079 63.2461 92.1232 63.448C91.9213 63.5288 91.7194 63.6499 91.5174 63.7711C91.4366 63.8115 91.3559 63.8519 91.2751 63.8923C91.0328 64.0134 90.8308 64.2961 90.7905 64.5788C90.7501 64.8616 90.8712 65.1443 91.0732 65.3462C91.1539 65.427 91.3155 65.5885 91.5982 65.6693C91.6386 65.6693 91.679 65.7097 91.7194 65.7097V65.7501C91.7194 65.9116 91.679 66.1136 91.679 66.2751C91.679 66.3963 91.6386 66.477 91.6386 66.5982C91.6386 66.6386 91.6386 66.6386 91.6386 66.679C91.5982 66.8405 91.5578 67.1232 91.6386 67.4059C91.679 67.5271 91.679 67.729 91.679 67.9714C91.679 68.3752 91.6386 68.8599 91.8809 69.3849C92.0021 70.8792 92.8502 71.9697 93.4964 72.6967C94.3445 73.666 95.435 74.2718 96.6466 74.4737C97.414 74.6353 98.2217 74.6756 99.1102 74.6756C100.201 74.6756 101.251 74.5545 102.058 74.4737C102.543 74.4333 103.028 74.3122 103.472 74.2314C103.674 74.191 103.836 74.1506 104.037 74.1102C104.401 74.0294 104.643 73.7871 104.764 73.464C104.805 73.2621 104.886 73.0198 104.926 72.8178C105.007 72.414 105.088 72.0909 105.209 71.7678C105.451 71.2023 105.411 70.7177 105.37 70.3138C105.37 70.233 105.37 70.1523 105.37 70.0715C105.37 69.8696 105.33 69.708 105.289 69.6272V69.5869C105.451 69.1426 105.249 68.7791 105.168 68.5368C105.128 68.4964 105.128 68.456 105.088 68.3752C104.966 68.0521 104.684 67.8098 104.361 67.7694C104.32 67.7694 104.28 67.7694 104.239 67.7694C103.916 67.7694 103.634 67.931 103.472 68.1733L103.028 68.8599C102.705 69.3445 102.382 69.8292 102.099 70.3138C101.695 70.9196 101.251 71.3639 100.645 71.687C100.16 71.7274 99.6756 71.7678 99.191 71.8082H99.0698H99.0294C98.8275 71.8082 98.6256 71.687 98.2621 71.3235C98.1813 71.2427 98.1005 71.0812 98.0198 70.8792C97.8986 70.5965 97.737 70.2734 97.4543 69.9907C97.4543 69.9503 97.4543 69.91 97.4139 69.8696V69.8292C97.3736 69.6676 97.3332 69.3849 97.0908 69.1022C97.0908 69.0618 97.0908 68.9003 97.0908 68.8195V68.658C97.0908 68.5772 97.0908 68.456 97.0908 68.3752C97.0908 68.2137 97.0505 68.0521 97.0908 67.8906V67.5675C97.0908 67.1232 97.0909 66.679 97.1716 66.2751C97.6159 66.2347 98.1409 66.0328 98.666 65.7097C98.8275 65.6289 98.9891 65.5077 99.1506 65.3866C99.9987 64.8616 100.726 64.4173 101.574 64.3365C101.857 64.3365 102.139 64.2557 102.341 64.175L102.422 64.1346C103.391 63.8519 104.32 63.5692 105.289 63.3268L107.066 62.8018L107.228 62.7614C107.268 62.7614 107.309 62.721 107.39 62.721C108.561 62.6807 109.772 62.6403 110.984 62.5999C111.348 62.5999 111.751 62.5999 112.115 62.5999C112.398 62.5999 112.68 62.5999 112.963 62.5999C113.205 62.5999 113.448 62.6403 113.69 62.6806C113.852 62.721 114.013 62.7614 114.175 62.8018C114.498 62.8826 114.821 62.9634 115.144 62.9634C115.427 63.0037 115.629 63.0845 115.911 63.3268C115.871 63.4884 115.871 63.6499 115.831 63.8115L115.79 64.1346C115.709 64.4981 115.871 64.8616 116.194 65.0635C116.356 65.1443 116.517 65.225 116.679 65.225C116.84 65.225 117.042 65.1847 117.163 65.0635C117.284 64.9827 117.406 64.9019 117.527 64.8212C117.809 64.6596 118.133 64.4577 118.415 64.175C118.738 63.8519 119.021 63.3672 119.183 62.8826C119.425 62.1152 119.061 61.2671 118.294 60.8228C117.648 60.419 116.921 60.1766 116.154 60.0959C114.74 59.9343 113.65 59.8132 112.6 59.7728C112.155 59.7728 111.671 59.7324 111.226 59.7324C110.499 59.7324 109.853 59.7728 109.207 59.8132C108.884 59.8535 108.561 59.8939 108.238 59.9343C107.551 60.0151 106.865 60.0959 106.218 60.0959C106.138 60.0959 106.057 60.0959 105.976 60.0959C105.895 60.0959 105.814 60.0959 105.734 60.0959C105.411 60.0959 105.088 60.1363 104.805 60.1766C104.764 60.1766 104.724 60.1766 104.684 60.1766C104.845 59.8132 105.047 59.4093 105.209 59.0458C105.33 58.7227 105.451 58.44 105.532 58.1573L105.572 58.0765C105.774 57.5111 105.814 56.9457 105.855 56.3802C105.895 56.0168 105.936 55.6937 105.976 55.3706C106.016 55.209 106.016 55.0879 106.016 55.0071C106.057 54.1993 105.491 53.8359 105.289 53.7551C104.764 53.432 104.239 53.3108 103.795 53.2704C103.553 53.23 103.31 53.1897 103.149 53.1089C102.907 53.1493 102.745 53.1089 102.543 53.1089ZM98.3429 61.5094C98.3832 61.3479 98.4236 61.1863 98.4236 61.0652C98.4236 60.7421 98.5044 60.5401 98.7063 60.2978C98.989 59.9343 99.191 59.5708 99.3929 59.2073C99.4737 59.0458 99.5545 58.9246 99.6352 58.8035C99.6756 58.7227 99.716 58.6823 99.7968 58.6015C99.8372 58.5612 99.8776 58.4804 99.918 58.44L100.201 58.0361C100.362 57.7938 100.564 57.5111 100.726 57.2688L100.887 57.0668C100.968 56.9457 101.089 56.7841 101.17 56.7033V56.7437C101.17 56.8245 101.17 56.9053 101.17 56.9861C101.21 57.6322 101.008 58.2784 100.524 59.1266C100.241 59.6112 99.918 60.0959 99.5949 60.5805L99.4333 60.8228C99.4333 60.8632 99.3121 60.9036 99.2718 60.9844L99.2314 61.0248C99.0698 61.1055 98.9083 61.2267 98.7467 61.4286C98.666 61.4286 98.6256 61.5094 98.3429 61.5094Z" fill="white"/>
<path d="M67.6883 53.0687C66.8402 53.0687 66.2344 53.6745 66.0728 54.563C66.0325 54.7246 66.0324 54.8861 65.9921 55.0073C65.8709 55.4515 65.7497 55.9362 65.6286 56.3805C65.4266 57.1478 65.2651 57.8748 64.9824 58.5614C64.942 58.6421 64.9016 58.8037 64.8612 58.9652C64.5785 60.3788 64.3362 61.9135 64.2958 63.529C64.2958 64.1752 64.1746 64.9022 64.0939 65.508C64.0535 65.8714 63.9727 66.1945 63.9323 66.558C63.8112 67.2446 63.69 67.9312 63.6496 68.6985C63.6496 69.1024 63.6092 69.4659 63.5688 69.8698C63.4881 70.9602 63.4073 72.1315 63.7304 73.3027C63.7304 73.8681 64.0131 74.3124 64.5381 74.5951C65.1035 74.9182 65.7094 75.0797 66.2748 75.0797C66.5575 75.0797 66.8402 75.0393 67.1229 74.9586C67.2844 74.9182 67.446 74.8778 67.6883 74.8778C68.3749 74.8778 68.9403 74.5547 69.2634 74.3527C69.8692 73.9893 69.8692 73.3835 69.8692 73.1815V73.1411C70.1519 72.3738 70.3943 71.6064 70.5962 70.9602C70.6366 70.8391 70.677 70.7179 70.7174 70.6371C70.8789 70.2736 71.0808 69.789 71.0405 69.1832C71.0405 69.1832 71.0405 69.1832 71.0405 69.1428L71.2828 68.3755C71.4039 67.9312 71.5655 67.4869 71.6867 67.0427C71.7674 66.7196 71.8886 66.2753 71.6867 65.7503C71.6867 65.7099 71.6867 65.6695 71.6867 65.6695C71.6867 65.6291 71.727 65.5483 71.727 65.508C71.727 65.4272 71.7674 65.3868 71.7674 65.306C71.7674 65.2656 71.8078 65.1849 71.8078 65.1445C71.8886 64.8214 71.8078 64.4983 71.6059 64.256C71.4443 64.0944 71.202 63.9732 70.9597 63.9732C70.8789 63.9732 70.7981 63.9732 70.7174 64.0136C70.2327 64.1348 70.0308 64.4579 69.95 64.5791C69.7885 64.781 69.6673 65.0233 69.5461 65.2252C69.3442 65.5887 69.1423 65.9522 68.8596 66.2349C68.8596 65.9926 68.8192 65.7503 68.7788 65.508C68.7384 65.306 68.7788 65.0233 68.8596 64.8214C69.1423 64.256 69.1423 63.7309 69.1019 63.4078C69.1019 63.2463 69.0615 63.1251 69.1019 63.004C69.1423 62.6405 69.223 62.3174 69.2634 61.9539C69.3442 61.5904 69.3846 61.1865 69.425 60.823C69.5461 59.8941 69.7481 58.9248 70.2731 58.0767C70.3539 57.9556 70.5154 57.6728 70.5558 57.3497C70.5962 57.0267 70.7174 56.6632 70.8385 56.2997C70.8789 56.1381 70.9597 55.9766 71.0001 55.815V55.7343C71.1212 55.3708 71.1212 55.3304 71.2828 55.2496C71.6059 55.0881 71.7674 54.8054 71.8078 54.4419C71.8078 54.1188 71.6463 53.7957 71.3232 53.6341C71.2424 53.5937 71.1616 53.5534 71.1212 53.513C70.9597 53.3918 70.7174 53.2706 70.3943 53.2303H70.2731C69.425 53.1495 68.5768 53.0283 67.6883 53.0283C67.7287 53.0687 67.6883 53.0687 67.6883 53.0687Z" fill="white"/>
<path d="M70.7184 44.9912C70.1934 44.9912 69.7087 45.1528 69.3856 45.3951C69.2241 45.5566 69.1029 45.7586 69.0625 46.0009L69.0221 46.4855C68.9817 46.849 68.9414 47.1721 68.901 47.4952C68.901 47.576 68.8606 47.6164 68.8606 47.6972C68.8606 47.7779 68.8202 47.8183 68.8202 47.8991L68.7798 48.1414C68.7394 48.4645 68.699 48.6664 68.6183 48.828C68.3355 49.2723 68.2548 49.7165 68.4163 50.1608C68.5779 50.605 68.9414 50.9685 69.5068 51.1705C69.8703 51.2916 70.2741 51.3724 70.678 51.3724C71.1223 51.3724 71.5261 51.2916 71.8896 51.2512C72.8589 51.0897 73.3436 50.3223 73.6263 49.9184C73.8282 49.6357 73.909 49.3126 74.0301 49.0703C74.0705 48.9492 74.1109 48.828 74.1513 48.7068C74.1917 48.5857 74.2725 48.4645 74.3532 48.3837C74.636 48.101 74.9187 47.7779 75.2014 47.4952L75.5649 47.1317C75.888 46.8086 75.9283 46.2836 75.6456 45.9201C75.1206 45.2739 74.434 45.1931 74.0301 45.1931C73.2224 45.1528 72.455 45.1124 71.6473 45.072L70.8799 45.0316C70.8396 44.9912 70.7992 44.9912 70.7184 44.9912Z" fill="white"/>
<path d="M8.07741 56.1383C8.15818 56.4614 8.36012 56.5017 8.60244 56.5017C8.92554 56.5017 9.24864 56.5017 9.57174 56.5017C10.1372 56.4614 10.6622 56.4614 11.2276 56.421C11.5911 56.421 11.995 56.3806 12.3585 56.3806C12.3585 56.421 12.3585 56.4614 12.3585 56.5017C11.995 56.5825 11.6315 56.6633 11.2276 56.7441C11.1064 56.7845 10.9449 56.7845 10.8641 56.8652C10.5006 57.1883 10.0564 57.2691 9.61212 57.3095C8.84477 57.3903 8.07741 57.3499 7.35044 57.5114C6.62347 57.673 5.8965 57.5114 5.16953 57.5114C4.56373 57.5114 3.9983 57.1883 3.3925 57.0268C3.35211 57.0268 3.27134 56.946 3.27134 56.9056C3.23095 56.5825 2.90785 56.5825 2.66553 56.4614C3.15017 56.0575 3.71559 55.8959 4.28101 55.7748C5.45224 55.5324 6.62347 55.3709 7.83509 55.169C8.96593 54.967 10.0968 54.7651 11.2276 54.6035C11.7123 54.5228 12.2373 54.5632 12.6412 54.2401C12.7219 54.1997 12.8431 54.1997 12.9643 54.1997C13.8528 54.1997 14.7413 54.0381 15.5894 53.8362C16.1145 53.715 16.6395 53.5939 17.1645 53.5131C17.4876 53.4727 17.8107 53.5131 18.1338 53.4323C18.9012 53.2708 19.6281 53.0688 20.3955 52.8669C22.3745 52.3822 24.3131 51.938 26.292 51.4533C26.5747 51.3726 26.8575 51.413 27.0998 51.3726C27.3825 51.3322 27.7056 51.2918 27.9883 51.2514C28.6345 51.1302 29.2807 51.0495 29.9673 50.9283C30.5731 50.8071 31.2193 50.7668 31.8251 50.8071C32.7136 50.3225 33.6829 50.8475 34.5714 50.6052C35.3791 50.3629 36.2273 50.3629 37.035 50.4437C37.2773 50.484 37.5197 50.484 37.6004 50.8071C37.6812 51.0495 37.7216 51.2918 37.4389 51.4937C37.2773 51.6149 37.1966 51.8572 37.1562 52.0591C37.1158 52.3822 36.9542 52.6246 36.6715 52.7861C36.3888 52.9477 36.1465 53.1496 36.1465 53.5131C36.1465 53.6343 36.0253 53.7554 35.9446 53.8766C35.4599 54.442 34.9349 55.0074 34.4502 55.5728C34.2483 55.8152 34.006 56.0171 33.804 56.2594C33.279 56.7845 32.7136 57.2691 32.2289 57.7941C31.9058 58.1172 31.7039 58.5615 31.4616 58.9654C31.3808 59.0865 31.2597 59.2481 31.1789 59.3692C31.0981 59.4904 31.0173 59.6519 30.9366 59.7731C30.8154 60.0558 30.7346 60.3789 30.5731 60.6616C30.1692 61.3886 29.7653 62.0752 29.3615 62.7618C29.2807 62.8829 29.2403 63.0041 29.1999 63.1252C28.9576 63.7714 28.7153 64.3772 28.3114 64.983C28.0287 65.3465 27.9479 65.8716 27.746 66.3158C27.4229 67.0024 27.1402 67.689 26.9382 68.416C26.8575 68.7391 26.6555 69.0622 26.6151 69.3853C26.5747 69.5064 26.494 69.668 26.4536 69.7891C26.2516 70.1526 26.3324 70.4353 26.7363 70.5161C26.9382 70.5565 27.1402 70.5565 27.3421 70.5161C28.1498 70.2738 28.9576 70.0314 29.6846 69.5872C30.8154 68.9006 31.8251 68.0525 32.8348 67.2447C33.0771 67.0428 33.3598 66.8409 33.6425 66.6389C34.0868 66.3562 34.4502 66.0331 34.7733 65.6696C35.1368 65.3061 35.5407 64.983 35.985 64.7003C36.51 64.2965 37.0754 63.8926 37.6004 63.5291C37.8832 63.3272 38.2062 63.1656 38.5293 62.9637C38.9332 62.681 39.3371 62.3579 39.741 62.0348C40.3468 61.5501 40.9122 60.9443 41.6392 60.6212C41.6795 60.6212 41.7199 60.5808 41.7603 60.5808C42.4065 60.0558 43.0527 59.4904 43.6989 58.9654C43.9008 58.8038 44.1028 58.6019 44.3047 58.4807C44.8297 58.1576 45.274 57.7537 45.7587 57.3903C46.4856 56.8248 47.0107 56.1786 47.6568 55.5324C47.8184 55.3709 47.9396 55.169 47.9799 54.9266C48.0607 54.442 48.3434 54.1593 48.8281 53.9977C49.5954 53.715 50.3628 53.8766 51.1301 54.0381C51.2917 54.0785 51.4532 54.1189 51.6148 54.1189C52.0994 54.0785 52.2206 54.1189 52.6649 54.5228C52.5033 55.1286 52.3014 55.694 52.0994 56.2998C52.0187 56.5825 51.8571 56.8248 51.7763 57.1075C51.6956 57.3095 51.6552 57.5114 51.6148 57.673C51.4936 58.5211 51.4129 59.3692 51.3321 60.2174C51.2917 60.5808 51.2917 60.9039 51.2513 61.2674C51.2513 61.429 51.2109 61.6309 51.1705 61.7925C51.1705 61.8732 51.1301 61.9944 51.1705 62.0752C51.3725 62.3983 51.2917 62.6406 51.1301 62.9637C50.9686 63.2464 51.0494 63.5291 51.1705 63.8118C51.2513 63.9734 51.3321 64.0945 51.4532 64.2561C51.3725 64.3772 51.3321 64.4984 51.2513 64.5792C51.3321 64.7811 51.4129 64.9427 51.4936 65.1446C51.534 65.2658 51.6148 65.4273 51.5744 65.5081C51.2513 66.0331 51.5744 66.5985 51.4936 67.1236C51.4532 67.2851 51.4532 67.4467 51.534 67.5678C51.7763 68.0121 51.736 68.4563 51.7763 68.941C51.8167 69.5468 52.0994 70.0718 52.5033 70.5161C52.786 70.8392 53.1495 70.92 53.5534 70.7584C53.9573 70.5969 54.2803 70.3142 54.4823 69.9507C54.8054 69.3045 55.1689 68.6583 55.4516 68.0121C55.8958 66.962 56.3401 65.912 56.744 64.8619C56.9055 64.4984 57.0267 64.0945 57.1478 63.6907C57.269 63.206 57.4305 62.8021 57.7133 62.3983C57.8344 62.2367 57.9152 61.9944 57.9152 61.7925C57.9152 61.1463 58.2383 60.6616 58.6018 60.177C58.6422 60.0962 58.6825 60.0154 58.7229 59.9346C58.8441 59.2481 58.9653 58.5211 59.1672 57.8345C59.4095 57.0268 59.4095 56.1786 59.2884 55.3709C59.2884 55.2497 59.2884 55.1286 59.2884 55.0478C59.5711 54.2804 59.5711 53.4727 59.6518 52.7053C59.7326 51.8976 59.773 51.0899 59.773 50.2417C59.773 49.434 59.6518 48.5859 59.2076 47.9397C58.8441 47.455 58.521 46.8896 57.9556 46.5665C57.6325 46.3646 57.3094 46.203 56.9863 46.0415C56.9055 46.0011 56.7843 45.8395 56.8247 45.7587C56.8651 45.6376 56.9863 45.476 57.0671 45.476C57.5921 45.4357 58.1171 45.3953 58.6018 45.3953C59.8538 45.476 61.0654 45.5972 62.277 45.9203C62.802 46.0415 63.1655 46.3646 63.2867 46.8896C63.3271 47.1319 63.4482 47.3338 63.529 47.5762C63.7309 47.9397 63.8925 48.3031 63.8521 48.7878C63.8117 49.1109 63.8925 49.4744 63.9733 49.8379C64.1752 50.5648 63.9733 51.2918 64.054 51.9784C64.1348 52.7861 63.9733 53.5535 63.8117 54.3208C63.6906 54.8459 63.7309 55.3709 63.4482 55.8555C63.3675 56.0171 63.3675 56.219 63.3675 56.3806C63.3675 56.8652 63.2059 57.2691 62.8828 57.6326C62.8424 57.673 62.802 57.673 62.802 57.7134C62.6809 58.6826 61.6712 59.1673 61.4289 60.0558C60.9442 60.5001 60.9442 61.1867 60.6211 61.7521C60.5404 61.8732 60.4596 62.0348 60.3788 62.1963C60.2173 62.5598 60.0153 62.9233 59.8942 63.3272C59.6115 64.1349 59.4499 64.9427 58.6825 65.5081C58.3191 65.7908 58.2787 66.2754 58.2383 66.7197C58.1979 67.1236 58.1979 67.5274 58.0767 67.9313C57.9556 68.416 57.7536 68.9006 57.5113 69.3853C57.3498 69.7084 57.2286 70.0314 57.1882 70.3545C57.1882 70.4757 57.1478 70.5969 57.1074 70.6776C56.8651 71.1623 56.744 71.6873 56.6632 72.2124C56.6228 72.4143 56.4613 72.6162 56.2997 72.7374C56.0978 72.8585 55.8554 72.9393 55.6535 73.0201C54.24 73.3836 52.8264 73.3836 51.4129 73.1816C50.484 73.0201 49.7166 72.5758 49.3127 71.6469C49.1512 71.3238 48.8281 71.0411 48.7069 70.6776C48.3434 69.7084 47.9799 68.6987 47.6972 67.689C47.5357 67.1236 47.4145 66.5582 47.5761 65.9523C47.6165 65.71 47.5357 65.4273 47.4549 65.2254C47.3338 64.8619 47.2126 64.4984 47.3338 64.0945C47.3741 64.0138 47.3338 63.8926 47.3338 63.8118C47.3338 62.8829 47.3338 61.9136 47.3338 60.9847C47.3338 60.2577 46.9299 59.6519 46.2029 59.4904C46.0414 59.45 45.8798 59.4904 45.7183 59.5308C45.5567 59.5712 45.3952 59.6923 45.2336 59.8135C43.9816 60.8232 42.7296 61.8328 41.4372 62.8021C40.7506 63.3272 39.9429 63.7714 39.2159 64.2965C38.7313 64.6196 38.2466 64.9427 37.762 65.3061C36.7523 66.0331 35.8234 66.8409 34.8137 67.5274C34.2887 67.8909 33.7637 68.2948 33.3194 68.7794C32.9155 69.2641 32.3905 69.6276 31.9462 70.0314C31.2193 70.6373 30.4519 71.2431 29.7653 71.8893C29.4826 72.1316 29.2403 72.4143 29.0384 72.697C28.1095 74.0702 26.7363 74.6356 25.1612 74.7971C24.1919 74.9183 23.1822 74.9991 22.2129 74.7971C21.8091 74.7164 21.4456 74.5548 21.1225 74.3529C20.6378 74.0298 20.5571 73.4644 20.7994 72.8989C20.8398 72.7374 20.8398 72.5758 20.8801 72.4143C20.9609 72.0104 21.0417 71.6066 21.1629 71.2027C21.3648 70.4353 21.5667 69.668 21.8091 68.941C21.8494 68.8198 21.9302 68.6583 22.011 68.5371C22.0918 68.416 22.1725 68.2948 22.2129 68.1332C22.4149 67.5678 22.5764 67.0024 22.7783 66.4774C22.8995 66.1543 23.0611 65.8716 23.2226 65.5889C23.3842 65.2658 23.5861 64.9023 23.788 64.5792C23.8284 64.5388 23.8688 64.4984 23.8688 64.4176C23.8688 63.4483 24.6362 62.8425 25.0804 62.0752C25.1612 61.954 25.2824 61.8732 25.2824 61.7521C25.4439 60.9847 25.8882 60.3385 26.2113 59.6116C26.4132 59.1673 26.8171 58.8038 26.9786 58.3596C27.4229 57.3095 28.1095 56.4614 28.5537 55.4113C28.5941 55.2901 28.6749 55.169 28.7556 55.0882C28.998 54.7247 28.998 54.4824 28.6749 54.1997C28.2306 53.7554 27.7056 53.3919 27.019 53.3919C25.767 53.3515 24.5554 53.5131 23.3034 53.6746C21.6879 53.8766 20.1128 54.0785 18.4973 54.3208C18.4165 54.3208 18.3358 54.3208 18.2954 54.3612C17.2453 54.8055 16.1548 54.6439 15.0644 54.8459C14.4586 54.967 13.8124 55.0074 13.1662 55.169C12.7219 55.2497 12.2373 55.3305 11.793 55.3305C10.7834 55.2901 9.81406 55.6536 8.84477 55.8555C8.64283 55.8555 8.36012 56.0171 8.07741 56.1383Z" fill="black"/>
<path d="M90.3863 64.2155C90.2652 64.4982 90.2248 64.6597 90.144 64.8213C89.9824 65.0636 89.6997 65.2655 89.6593 65.5482C89.619 65.8713 89.4574 66.0733 89.2959 66.3156C89.0535 66.6387 88.892 67.0022 88.7708 67.4061C88.6497 67.8099 88.4477 68.133 88.2862 68.5369C88.2458 68.6581 88.165 68.7388 88.165 68.8196C87.9227 69.7081 87.4381 70.4755 87.115 71.3236C86.9534 71.6871 86.9534 72.1717 86.9534 72.5756C86.9534 72.9391 86.7919 73.1814 86.5091 73.3026C85.661 73.6661 84.8533 74.0296 83.884 73.9084C83.4397 73.868 83.2378 73.7468 83.157 73.3026C83.1166 73.1006 83.1166 72.8583 83.0762 72.6564C83.0762 72.1717 83.0762 71.6467 82.8743 71.1621C82.7935 70.9197 82.8339 70.637 82.8339 70.3947C82.8743 69.9908 82.9147 69.587 82.9551 69.1831C83.0359 68.2138 83.157 67.2849 83.2378 66.3156C83.2782 65.9925 83.2782 65.6694 83.3589 65.3059C83.4801 64.5386 83.6013 63.7712 83.7628 63.0039C83.8436 62.4384 83.9648 61.873 84.0859 61.3076C84.2071 60.8229 84.3282 60.2979 84.409 59.8133C84.4898 59.4902 84.5302 59.1671 84.5706 58.844C84.611 58.642 84.611 58.4401 84.6917 58.2382C84.8937 57.7535 84.6513 57.39 84.409 57.0265C84.2071 56.7438 83.8032 56.6631 83.5205 56.865C83.0359 57.2285 82.4704 57.5516 82.1069 58.0766C82.0262 58.1978 81.8646 58.3189 81.7435 58.3997C81.2992 58.7632 80.9357 59.1267 80.653 59.6517C80.6126 59.7325 80.5722 59.7729 80.5318 59.8537C79.7645 60.7826 79.3202 61.9134 78.7144 62.9231C78.5529 63.2058 78.5125 63.5693 78.3913 63.852C78.2298 64.2962 77.9875 64.7001 77.8663 65.1444C77.7451 65.629 77.3816 66.0329 77.4624 66.5983C77.0586 67.2849 77.2605 68.1734 76.5739 68.7792C76.4124 68.9004 76.4527 69.2639 76.4527 69.5062C76.4527 70.112 76.4527 70.7178 76.4527 71.3236C76.4527 71.6063 76.2104 71.8083 75.9277 71.9294C74.9584 72.4141 73.9891 72.4544 72.9391 72.3333C72.6967 71.9698 72.8179 71.6467 72.8987 71.2832C73.141 70.5563 73.3429 69.7889 73.5853 69.0619C73.666 68.86 73.7064 68.6177 73.7468 68.4157C73.9891 67.1637 74.2718 65.8713 74.5142 64.6193C74.6353 63.8924 74.6757 63.125 74.7565 62.3577C74.918 60.7826 75.12 59.2478 75.2815 57.6727C75.4027 56.6227 75.4431 55.613 75.2815 54.5629C75.2007 54.1187 75.4431 53.7956 75.9277 53.7148C76.8566 53.5533 77.7855 53.6744 78.6336 54.0379C78.7144 54.4418 78.9164 54.8456 78.8356 55.1687C78.7144 55.5726 78.9971 55.9361 78.7952 56.2996C78.6337 56.6227 78.5933 57.0669 78.4721 57.4304C78.2702 58.0362 78.5529 58.3997 79.1991 58.3189C79.8049 58.2382 80.3299 58.0362 80.8549 57.7131C81.3396 57.39 81.8242 57.1073 82.2281 56.7034C82.3089 56.6227 82.43 56.5823 82.5108 56.5419C82.7128 56.4611 82.9147 56.4207 82.9551 56.138C82.9955 56.0169 83.1166 55.9361 83.1974 55.8553C83.6417 55.4918 84.0859 55.088 84.5706 54.7245C84.8937 54.4822 85.136 54.1994 85.2975 53.836C85.4995 53.3109 85.863 53.109 86.4284 53.0686C87.115 53.0686 87.8015 53.0686 88.4477 53.2705C88.6497 53.3513 88.892 53.4725 89.1747 53.5936C88.7708 53.8763 88.7708 54.1994 88.7304 54.5629C88.6497 55.088 88.5689 55.613 88.4073 56.138C88.2054 56.8246 88.0035 57.5112 87.6804 58.1574C87.3573 58.844 87.3573 59.5709 87.2361 60.2979C87.1957 60.4595 87.115 60.621 87.0746 60.8229C86.9938 61.146 86.9534 61.4288 86.913 61.7518C86.8726 62.1557 86.8726 62.5192 86.5899 62.8423C86.5091 62.9231 86.5091 63.0442 86.5091 63.1654C86.3476 63.9731 86.2264 64.8213 86.0649 65.629C86.0245 65.7906 86.0245 65.9521 85.9841 66.1137C85.9437 66.356 85.9437 66.5983 85.9033 66.8406C85.863 67.2041 85.9437 67.3657 86.2668 67.3657C86.7515 67.4061 87.1957 67.3657 87.5996 67.1233C88.367 66.7195 88.9324 66.154 89.3363 65.3867C89.619 64.902 89.8613 64.4578 90.3863 64.2155Z" fill="black"/>
<path d="M103.916 72.7778C103.31 72.899 102.664 73.0201 101.978 73.1009C100.281 73.3029 98.5447 73.424 96.8484 73.1009C95.758 72.899 94.8694 72.3739 94.1829 71.6066C93.4559 70.7988 92.8097 69.8296 92.8097 68.6583C92.4462 68.0525 92.7289 67.3659 92.5674 66.7197C92.527 66.5582 92.6078 66.3966 92.6078 66.2351C92.6481 65.9524 92.6885 65.6293 92.6885 65.3466C92.7289 64.7408 92.527 64.4984 91.8404 64.3369C91.8 64.3369 91.8 64.2965 91.7192 64.2157C92.0019 64.0542 92.2443 63.933 92.4866 63.8119C93.052 63.5695 93.4559 63.1253 93.4963 62.5195C93.5367 61.9137 93.8194 61.3886 94.0617 60.8636C94.5463 59.8135 95.1521 58.7635 95.7176 57.7134C95.9195 57.3499 96.283 57.0672 96.4445 56.7037C96.6869 56.1787 97.1311 55.8556 97.4542 55.4113C97.6965 55.0478 98.1408 54.8459 98.4639 54.6036C98.5851 54.5228 98.7466 54.442 98.8678 54.3209C99.312 53.8766 99.8774 53.7958 100.443 53.7958C101.089 53.8362 101.695 53.917 102.301 53.6343C102.381 53.5939 102.543 53.5939 102.624 53.6343C103.27 53.917 103.997 53.8362 104.643 54.2401C104.845 54.3613 104.966 54.4824 104.926 54.7247C104.926 54.8055 104.926 54.8863 104.926 54.9671C104.724 55.8152 104.805 56.7441 104.522 57.5922C104.441 57.8749 104.32 58.198 104.199 58.4808C103.916 59.0866 103.633 59.7328 103.351 60.3386C103.189 60.6617 103.27 60.8636 103.553 61.0251C103.633 61.0655 103.755 61.1059 103.755 61.1059C104.158 60.9848 104.441 60.8636 104.764 60.8232C105.087 60.7828 105.451 60.7424 105.774 60.7828C106.905 60.8232 108.036 60.6213 109.126 60.5001C110.217 60.379 111.307 60.4193 112.397 60.4597C113.569 60.5001 114.74 60.6213 115.871 60.7424C116.477 60.8232 117.082 61.0251 117.648 61.3482C118.011 61.5502 118.294 61.9944 118.132 62.3579C118.011 62.681 117.85 63.0445 117.567 63.2868C117.284 63.5695 116.921 63.7311 116.477 64.0138C116.557 63.6503 116.598 63.3676 116.638 63.0445C116.679 62.883 116.679 62.7214 116.557 62.6002C116.153 62.156 115.669 61.8329 115.023 61.7521C114.538 61.7117 114.094 61.5502 113.609 61.4694C113.326 61.429 113.044 61.3886 112.721 61.3482C112.034 61.3482 111.347 61.3482 110.701 61.3482C109.49 61.3886 108.278 61.429 107.066 61.4694C106.905 61.4694 106.743 61.5502 106.582 61.5906C105.047 62.0348 103.472 62.4791 101.937 62.9233C101.735 63.0041 101.493 63.0445 101.291 63.0849C99.9986 63.1657 98.9889 63.933 97.9389 64.5388C97.6158 64.7408 97.2119 64.9427 96.808 64.9831C96.283 65.0639 96.0811 65.3466 96.0003 65.7504C95.9195 66.3159 95.9195 66.8813 95.9195 67.4467C95.9195 67.7294 95.9599 68.0121 95.9599 68.2948C95.9599 68.6583 95.9599 68.9814 96.2022 69.3045C96.283 69.4257 96.283 69.5872 96.3234 69.7084C96.3638 69.8295 96.3638 69.9911 96.4445 70.0719C96.9292 70.4757 97.01 71.1219 97.4138 71.5258C97.8581 71.9297 98.3023 72.3336 98.9485 72.2528C99.4736 72.2124 100.039 72.172 100.564 72.0912C100.645 72.0912 100.766 72.0508 100.847 72.0105C101.614 71.6066 102.18 71.0008 102.664 70.2738C103.108 69.5872 103.553 68.9006 104.078 68.1333C104.158 68.3756 104.32 68.6179 104.28 68.7795C104.158 69.1026 104.32 69.3449 104.32 69.6276C104.32 70.0719 104.441 70.5161 104.239 70.9604C104.199 71.5258 104.118 72.1316 103.916 72.7778ZM102.058 56.4614C102.058 56.2191 102.058 55.9767 102.018 55.7344C101.897 55.0882 101.251 54.8459 100.766 55.2902C100.443 55.5729 100.241 55.9364 99.9582 56.2595C99.6755 56.6633 99.3928 57.0268 99.1505 57.4307C99.0293 57.5922 98.9082 57.7134 98.8274 57.8749C98.5447 58.3192 98.3427 58.8442 98.0196 59.2481C97.6562 59.652 97.535 60.0559 97.4946 60.5405C97.4946 60.702 97.4138 60.904 97.3331 61.0655C97.0503 61.5502 97.2119 61.8733 97.7773 61.9137C98.3831 61.9541 99.0293 61.9944 99.4332 61.429C99.514 61.3482 99.6351 61.3079 99.7563 61.1867C99.8774 61.0655 100.039 60.9444 100.16 60.7828C100.564 60.2174 100.968 59.6116 101.291 59.0058C101.735 58.2788 102.099 57.4307 102.058 56.4614Z" fill="black"/>
<path d="M70.9602 54.0783C70.3948 54.361 70.314 54.7649 70.1928 55.1687C70.0313 55.7342 69.789 56.2996 69.7082 56.9054C69.7082 57.0265 69.6274 57.1477 69.5466 57.2689C68.9408 58.1978 68.7389 59.2882 68.5773 60.3787C68.4562 61.1057 68.335 61.8326 68.2139 62.5596C68.1735 62.7615 68.2139 62.9635 68.2139 63.1654C68.2542 63.4885 68.2139 63.7712 68.0523 64.0943C67.8504 64.4578 67.81 65.0232 67.8908 65.3867C68.0119 65.8309 67.9715 66.2348 67.81 66.6387C67.7696 66.7195 67.81 66.8406 67.81 66.9618C68.0927 67.0022 68.3754 67.0022 68.6177 67.0426C68.9004 67.083 69.062 66.9214 69.2235 66.7599C69.8697 66.1944 70.1928 65.4271 70.6371 64.7405C70.6775 64.6597 70.7179 64.5789 70.8794 64.5386C70.839 64.7001 70.7583 64.8617 70.7583 65.0232C70.7179 65.2251 70.6371 65.4675 70.7179 65.6694C70.839 65.9521 70.7986 66.1944 70.7179 66.4771C70.5159 67.1637 70.314 67.8503 70.1121 68.5369C70.0717 68.6177 70.0313 68.7388 70.0717 68.8196C70.1928 69.385 69.8293 69.8293 69.6678 70.3543C69.4255 71.0813 69.1832 71.8082 68.9408 72.5352C68.8601 72.7775 68.9812 73.0603 68.6985 73.2218C68.335 73.4237 67.9715 73.5853 67.5677 73.6257C67.3253 73.6257 67.0426 73.6661 66.8003 73.7065C66.1137 73.9084 65.4675 73.7468 64.8617 73.4237C64.6598 73.3026 64.4982 73.141 64.5386 72.8987C64.5386 72.8583 64.5386 72.8179 64.5386 72.7775C64.0944 71.2832 64.4175 69.7889 64.4579 68.335C64.4982 67.3253 64.7406 66.2752 64.9021 65.2655C64.9829 64.5789 65.104 63.852 65.104 63.1654C65.1444 61.6711 65.3868 60.2171 65.6695 58.7632C65.6695 58.6824 65.7099 58.6016 65.7502 58.5209C66.2349 57.3496 66.4368 56.0976 66.8003 54.886C66.8407 54.7245 66.8811 54.5225 66.9215 54.361C67.0022 53.9167 67.2446 53.5936 67.6888 53.634C68.5773 53.6744 69.4659 53.7552 70.3544 53.8763C70.5159 53.7956 70.6775 53.9167 70.9602 54.0783Z" fill="black"/>
<path d="M69.9909 45.6778C70.1928 45.5163 70.5159 45.4355 70.839 45.4759C71.8891 45.5163 72.9392 45.5566 73.9892 45.6374C74.3123 45.6778 74.6758 45.6778 74.9585 46.0413C74.5547 46.4452 74.1104 46.8894 73.7065 47.2933C73.545 47.4548 73.4238 47.6568 73.343 47.8587C73.1815 48.2222 73.1007 48.6261 72.8584 48.9896C72.5757 49.3934 72.293 49.8377 71.7275 49.9588C71.0814 50.08 70.4352 50.1608 69.789 49.9185C69.2639 49.7165 69.062 49.353 69.3851 48.9088C69.6274 48.5049 69.6678 48.101 69.7486 47.6568C69.789 47.4952 69.789 47.3741 69.8293 47.2125C69.8697 46.7279 69.9101 46.2432 69.9909 45.6778Z" fill="black"/>
<path d="M21.4051 89.1749C21.4859 89.0942 21.5667 88.973 21.6878 88.8114C21.809 88.6903 21.8494 88.4884 21.9302 88.3268C21.9705 88.1249 21.9705 87.9229 21.9705 87.6806C21.9302 87.4383 21.809 87.196 21.6474 86.9133C21.5263 86.7517 21.3647 86.5902 21.1628 86.4286C20.9609 86.2671 20.7185 86.1863 20.4358 86.1459C20.1531 86.1055 19.83 86.1055 19.4261 86.2267C19.0627 86.3074 18.6184 86.5094 18.1741 86.8325C17.8914 87.0344 17.6087 87.2767 17.3664 87.5191C17.1241 87.7614 16.9625 88.0441 16.8414 88.3268C16.7202 88.6095 16.6798 88.8922 16.6798 89.1749C16.6798 89.4576 16.801 89.7807 17.0029 90.0635C17.2452 90.4269 17.5683 90.6693 17.9722 90.7904C18.3761 90.9116 18.78 90.8712 19.2646 90.6693L20.1935 92.0424C19.7896 92.204 19.3858 92.3251 18.9819 92.3655C18.578 92.4059 18.1741 92.4059 17.8107 92.2847C17.4472 92.204 17.0837 92.002 16.7606 91.7597C16.4375 91.5174 16.1144 91.1943 15.8317 90.7904C15.549 90.3462 15.347 89.9019 15.2259 89.4173C15.1047 88.9326 15.1451 88.4884 15.2259 88.0037C15.347 87.5594 15.549 87.0748 15.8721 86.6305C16.1952 86.1863 16.6394 85.7824 17.2049 85.3785C17.7703 84.9747 18.3357 84.7323 18.8607 84.5708C19.3858 84.4496 19.9108 84.4092 20.3954 84.49C20.8801 84.5708 21.3243 84.7323 21.6878 85.0151C22.0917 85.2978 22.4148 85.6209 22.6975 86.0651C23.0206 86.5498 23.2225 87.0344 23.3437 87.4787C23.4245 87.9229 23.4245 88.3672 23.3437 88.7307C23.2629 89.1345 23.1418 89.4576 22.9398 89.7404C22.7379 90.0231 22.536 90.2654 22.2936 90.4673L21.4051 89.1749Z" fill="#292929"/>
<path d="M24.2725 93.2942L26.413 95.5155L28.5939 93.4153L29.7247 94.6269L24.0301 100.16L22.8993 98.9484L25.4841 96.4848L23.3436 94.2635L20.7588 96.7271L19.6279 95.5155L25.3629 89.9824L26.4938 91.194L24.2725 93.2942Z" fill="#292929"/>
<path d="M34.3293 98.1002L31.9061 106.178L30.4521 105.128L31.0176 103.512L28.6347 101.775L27.2212 102.785L25.8076 101.775L32.7946 97.0098L34.3293 98.1002ZM29.7656 100.927L31.5022 102.179L32.4715 98.9887L29.7656 100.927Z" fill="#292929"/>
<path d="M35.9846 106.864L39.5386 108.641L38.9328 109.853L33.9248 107.309L37.5193 100.2L39.0136 100.968L35.9846 106.864Z" fill="#292929"/>
<path d="M43.0931 109.974L46.8491 111.226L46.4048 112.519L41.0737 110.742L43.5777 103.189L45.1528 103.714L43.0931 109.974Z" fill="#292929"/>
<path d="M55.8549 106.178L55.6126 107.511L51.4527 106.824L51.17 108.44L55.0068 109.086L54.7645 110.419L50.9277 109.772L50.5642 111.953L54.8856 112.68L54.6433 114.013L48.666 113.003L49.9584 105.168L55.8549 106.178Z" fill="#292929"/>
<path d="M59.0057 106.339L62.2367 111.832H62.2771L62.1963 106.299L63.731 106.259L63.8522 114.215L62.1963 114.255L58.8845 108.641H58.8441L58.9249 114.336L57.3902 114.376L57.269 106.42L59.0057 106.339Z" fill="#292929"/>
<path d="M69.708 109.126L72.9794 108.52L73.7467 112.721L72.6563 112.923L72.3332 111.953C72.2524 112.074 72.1716 112.236 72.0505 112.398C71.9293 112.559 71.8082 112.721 71.6466 112.882C71.4851 113.044 71.2831 113.165 71.0004 113.286C70.7581 113.407 70.435 113.528 70.1119 113.569C69.6273 113.65 69.183 113.65 68.6984 113.569C68.2541 113.488 67.8098 113.286 67.406 113.003C67.0021 112.721 66.679 112.357 66.3963 111.873C66.1136 111.388 65.9116 110.822 65.7905 110.136C65.7097 109.611 65.6693 109.086 65.7501 108.561C65.7905 108.036 65.952 107.551 66.1943 107.107C66.4367 106.663 66.7598 106.299 67.204 105.976C67.6483 105.653 68.1733 105.451 68.8195 105.33C69.4253 105.209 69.9504 105.209 70.3946 105.289C70.8389 105.37 71.2427 105.532 71.5658 105.774C71.8889 105.976 72.1313 106.259 72.3332 106.541C72.5351 106.824 72.6563 107.107 72.7371 107.349L71.1216 107.632C71.1216 107.551 71.0408 107.43 70.96 107.309C70.8793 107.188 70.7177 107.066 70.5562 106.945C70.3946 106.824 70.1927 106.743 69.9503 106.663C69.708 106.582 69.4657 106.582 69.183 106.663C68.9003 106.703 68.6176 106.824 68.3753 106.986C68.1329 107.147 67.8906 107.349 67.7291 107.592C67.5675 107.834 67.4463 108.157 67.3656 108.561C67.2848 108.924 67.3252 109.369 67.406 109.853C67.4867 110.378 67.6483 110.822 67.8502 111.146C68.0522 111.469 68.2945 111.711 68.5368 111.873C68.7791 112.034 69.0618 112.155 69.3445 112.155C69.6273 112.196 69.91 112.196 70.1927 112.115C70.2734 112.115 70.435 112.074 70.5965 111.994C70.7581 111.913 70.9196 111.832 71.1216 111.671C71.2831 111.509 71.4447 111.307 71.5658 111.065C71.687 110.822 71.7678 110.459 71.7678 110.055L69.9503 110.378L69.708 109.126Z" fill="#292929"/>
<path d="M79.3203 102.422L79.8049 103.714L75.847 105.168L76.4124 106.703L80.0473 105.37L80.5319 106.663L76.8971 107.995L77.6644 110.055L81.7839 108.52L82.2686 109.813L76.6143 111.913L73.8276 104.441L79.3203 102.422Z" fill="#292929"/>
<path d="M84.8934 102.745C84.6511 102.381 84.4895 102.058 84.4088 101.735C84.328 101.412 84.2876 101.17 84.2876 100.887C84.2876 100.645 84.3684 100.402 84.4492 100.2C84.5299 99.9986 84.6511 99.7966 84.7722 99.6351C84.8934 99.4735 85.0146 99.3524 85.1761 99.2312C85.2973 99.11 85.4184 99.0293 85.5396 98.9889C85.8627 98.7869 86.1858 98.6254 86.5089 98.5446C86.832 98.4638 87.1551 98.4235 87.4782 98.4638C87.8013 98.5042 88.084 98.6254 88.3667 98.7869C88.6494 98.9485 88.8917 99.2312 89.1341 99.5543C89.336 99.837 89.4572 100.12 89.4975 100.362C89.5783 100.645 89.5783 100.887 89.5783 101.17C89.5783 101.412 89.4975 101.654 89.4168 101.897C89.336 102.139 89.2552 102.341 89.1744 102.583C88.9321 103.189 88.7302 103.633 88.609 103.957C88.4879 104.28 88.4475 104.562 88.4879 104.764L91.3554 102.906L92.1227 104.037L87.6397 106.986C87.5186 106.784 87.4378 106.582 87.3166 106.38C87.1955 106.178 87.1551 105.895 87.1147 105.653C87.0743 105.37 87.0743 105.047 87.1147 104.683C87.1551 104.32 87.2763 103.876 87.4782 103.391C87.6397 102.987 87.7609 102.624 87.8821 102.341C88.0032 102.058 88.0436 101.776 88.084 101.533C88.1244 101.291 88.1244 101.089 88.084 100.927C88.0436 100.726 87.9628 100.564 87.8417 100.362C87.7609 100.241 87.6801 100.16 87.559 100.079C87.4378 99.9986 87.3166 99.9178 87.1955 99.8774C87.0743 99.837 86.9128 99.837 86.7512 99.837C86.5897 99.837 86.4281 99.9178 86.307 100.039C86.0646 100.2 85.9435 100.362 85.8627 100.524C85.7819 100.685 85.7415 100.847 85.7819 101.008C85.7819 101.17 85.8627 101.331 85.9435 101.493C86.0242 101.654 86.105 101.776 86.1858 101.897L84.8934 102.745Z" fill="#292929"/>
<path d="M91.2347 99.9987C90.3058 98.9486 89.8212 98.0197 89.7404 97.2524C89.6596 96.485 89.9423 95.758 90.6693 95.1522C91.3559 94.5464 92.0829 94.3445 92.8502 94.5464C93.6176 94.7484 94.4253 95.3946 95.3542 96.4042C96.2427 97.4543 96.7678 98.3428 96.8486 99.1506C96.9293 99.9179 96.6466 100.645 95.96 101.251C95.2735 101.857 94.5061 102.058 93.7387 101.857C92.9714 101.655 92.1636 101.008 91.2347 99.9987ZM92.4463 98.9486C92.7694 99.3121 93.0925 99.6352 93.3349 99.8775C93.5772 100.12 93.8195 100.322 94.0618 100.403C94.2638 100.524 94.4657 100.564 94.6273 100.524C94.7888 100.524 94.9907 100.443 95.1523 100.281C95.3138 100.12 95.435 99.9987 95.4754 99.7968C95.5158 99.6352 95.5158 99.4333 95.435 99.191C95.3542 98.9486 95.1927 98.7063 94.9907 98.4236C94.7888 98.1409 94.5061 97.7774 94.183 97.4139C93.8599 97.0504 93.5772 96.7273 93.2945 96.485C93.0522 96.2427 92.8098 96.0811 92.6079 95.96C92.406 95.8388 92.204 95.7984 92.0425 95.8388C91.8809 95.8388 91.679 95.9196 91.5174 96.0811C91.3559 96.2427 91.2347 96.3639 91.1943 96.5658C91.154 96.7273 91.154 96.9293 91.2347 97.1716C91.3155 97.4139 91.4771 97.6562 91.679 97.939C91.8405 98.2217 92.1232 98.5448 92.4463 98.9486Z" fill="#292929"/>
<path d="M95.3948 94.5866C95.0717 94.3039 94.8294 94.0212 94.6678 93.7789C94.5063 93.4962 94.3851 93.2538 94.3447 93.0115C94.3043 92.7692 94.2639 92.5269 94.3043 92.3249C94.3447 92.123 94.3851 91.8807 94.4659 91.7191C94.5466 91.5172 94.6274 91.3556 94.7082 91.2345C94.789 91.1133 94.9101 90.9922 94.9909 90.871C95.2332 90.5883 95.5159 90.346 95.7987 90.1844C96.0814 90.0229 96.4045 89.9017 96.7276 89.8613C97.0507 89.8209 97.3737 89.8209 97.6968 89.9421C98.0199 90.0229 98.343 90.2248 98.6258 90.4671C98.8681 90.6691 99.07 90.9114 99.1912 91.1537C99.3123 91.396 99.4335 91.6383 99.4739 91.8807C99.5143 92.123 99.5547 92.3653 99.5143 92.648C99.5143 92.8903 99.4739 93.1327 99.4335 93.375C99.3527 94.0212 99.3123 94.5058 99.272 94.8693C99.272 95.2328 99.2719 95.5155 99.3527 95.6771L101.614 93.0923L102.664 93.9808L99.1508 98.0195C98.9892 97.858 98.8277 97.6964 98.6661 97.4945C98.5046 97.2926 98.3834 97.0906 98.2623 96.8483C98.1411 96.606 98.0603 96.2829 98.0199 95.9194C97.9796 95.5559 97.9796 95.1116 98.0199 94.5866C98.0603 94.1424 98.1007 93.7789 98.1007 93.4558C98.1411 93.1327 98.1007 92.8903 98.1007 92.648C98.0603 92.4057 98.0199 92.2038 97.9392 92.0422C97.8584 91.8807 97.7372 91.7191 97.5757 91.5576C97.4949 91.4768 97.3738 91.396 97.2526 91.3556C97.1314 91.3153 97.0103 91.2749 96.8487 91.2749C96.7276 91.2749 96.566 91.2749 96.4448 91.3556C96.3237 91.396 96.1621 91.5172 96.041 91.6383C95.8794 91.8403 95.7583 92.0422 95.7179 92.2038C95.6775 92.3653 95.7179 92.5673 95.7583 92.6884C95.839 92.85 95.9198 92.9711 96.041 93.0923C96.1621 93.2134 96.2833 93.3346 96.4045 93.4154L95.3948 94.5866Z" fill="#292929"/>
<path d="M98.7466 88.4073L98.8677 88.2054C99.0697 87.8823 99.1908 87.5996 99.2716 87.3573C99.3524 87.115 99.3524 86.8726 99.312 86.7111C99.2716 86.5091 99.2312 86.3476 99.1101 86.2264C99.0293 86.1053 98.9081 85.9841 98.787 85.9033L99.4736 84.8533L106.057 89.1747L105.209 90.4671L100.685 87.4784L99.6351 89.0535L98.7466 88.4073Z" fill="#292929"/>
<path d="M22.4956 33.2388L21.5666 34.612L15.0239 30.0482L15.9528 28.675L22.4956 33.2388Z" fill="#292929"/>
<path d="M18.7801 25.0403L24.9997 26.3731L20.8802 22.6575L21.9303 21.5266L27.8672 26.8577L26.7364 28.1097L20.3552 26.7366L20.3148 26.7769L24.5555 30.5733L23.5054 31.7042L17.6089 26.3327L18.7801 25.0403Z" fill="#292929"/>
<path d="M31.8654 23.5055L30.6134 24.5151L26.4535 19.386L24.5957 20.8803L23.7476 19.8302L28.796 15.7915L29.6441 16.8416L27.7863 18.3359L31.8654 23.5055Z" fill="#292929"/>
<path d="M35.9042 11.5107L36.5908 12.682L32.9156 14.7821L33.7233 16.1957L37.0754 14.2571L37.762 15.4283L34.4099 17.3669L35.5003 19.2651L39.2967 17.0842L39.9833 18.2554L34.733 21.2844L30.8154 14.4186L35.9042 11.5107Z" fill="#292929"/>
<path d="M42.8914 17.1245L41.3567 17.6899L38.6104 10.2183L42.4067 8.80472C42.7298 8.68356 43.0529 8.60278 43.2953 8.60278C43.578 8.60278 43.8203 8.60278 44.0222 8.68356C44.2242 8.72394 44.4261 8.80472 44.5877 8.92588C44.7492 9.04704 44.9108 9.1682 45.0319 9.28936C45.1531 9.41053 45.2338 9.57208 45.3146 9.69324C45.3954 9.8144 45.4358 9.93556 45.4762 10.0567C45.6377 10.4606 45.6781 10.8645 45.5973 11.2683C45.5166 11.6722 45.3146 11.9953 44.9915 12.2376C45.1531 12.2376 45.3146 12.278 45.4762 12.3184C45.6377 12.3588 45.7589 12.3992 45.88 12.5203C46.0012 12.6415 46.1224 12.7627 46.2435 12.9646C46.3647 13.1665 46.4859 13.4492 46.607 13.7723C46.7282 14.0551 46.8089 14.257 46.8493 14.4589C46.9301 14.6205 46.9705 14.782 47.0513 14.8628C47.132 14.9436 47.1724 15.0243 47.2532 15.0647C47.334 15.1051 47.4148 15.1455 47.4955 15.1051L47.5763 15.3071L45.8397 15.9532C45.7185 15.7917 45.5973 15.6302 45.4762 15.3878C45.355 15.1859 45.2338 14.8628 45.1127 14.4993C45.0319 14.257 44.9108 14.0147 44.83 13.8531C44.7492 13.6916 44.628 13.5704 44.5069 13.4896C44.3857 13.4089 44.2242 13.3685 44.0626 13.3685C43.9011 13.3685 43.6588 13.4492 43.376 13.53L41.7606 14.1358L42.8914 17.1245ZM41.3567 12.9242L43.1741 12.2376C43.578 12.0761 43.8607 11.9145 43.9818 11.6722C44.103 11.4299 44.103 11.1472 43.9818 10.7837C43.9415 10.6625 43.9011 10.5818 43.8203 10.4606C43.7395 10.3394 43.6588 10.2587 43.5376 10.2183C43.4164 10.1375 43.2549 10.0971 43.0933 10.0971C42.9318 10.0971 42.7298 10.1375 42.4875 10.2183L40.5489 10.9452L41.3567 12.9242Z" fill="#292929"/>
<path d="M49.2323 6.90648L53.3114 11.7933H53.3518L52.3825 6.34106L53.9172 6.05835L55.3307 13.8935L53.6748 14.1762L49.4746 9.16816H49.4342L50.4439 14.7416L48.9092 15.0243L47.4956 7.18919L49.2323 6.90648Z" fill="#292929"/>
<path d="M61.1461 5.73511L64.054 13.651L62.2366 13.6914L61.7116 12.0355L58.8037 12.0759L58.2786 13.7318L56.542 13.7722L59.2479 5.77549L61.1461 5.73511ZM59.2075 10.7027L61.3481 10.6623L60.2172 7.55253H60.1768L59.2075 10.7027Z" fill="#292929"/>
<path d="M68.7393 14.4183L67.1238 14.176L68.1739 7.67366L65.791 7.31018L65.993 5.93701L72.3741 6.94669L72.1722 8.31986L69.7894 7.95637L68.7393 14.4183Z" fill="#292929"/>
<path d="M73.9086 15.6706L72.3335 15.2263L74.474 7.55273L76.0491 7.99699L73.9086 15.6706Z" fill="#292929"/>
<path d="M77.0179 12.3183C77.2603 11.7529 77.543 11.2683 77.8257 10.9048C78.1488 10.5413 78.4315 10.2586 78.795 10.0567C79.1181 9.85473 79.4412 9.73357 79.7643 9.6528C80.0874 9.57202 80.4105 9.57202 80.6932 9.57202C81.0163 9.57202 81.2586 9.61241 81.5413 9.69318C81.7836 9.77396 81.9856 9.81434 82.1471 9.89512C82.3087 9.97589 82.5106 10.0567 82.7125 10.1778C82.9145 10.299 83.1568 10.4605 83.3587 10.7029C83.5607 10.9048 83.7626 11.1471 83.9645 11.4298C84.1665 11.7125 84.2876 12.0356 84.3684 12.3991C84.4492 12.7626 84.4896 13.2069 84.4088 13.6511C84.3684 14.1358 84.2068 14.6204 83.9645 15.2262C83.7222 15.832 83.4395 16.2763 83.1568 16.6398C82.8741 17.0033 82.551 17.286 82.1875 17.4879C81.8644 17.6898 81.5413 17.811 81.1778 17.8918C80.8547 17.9726 80.5316 17.9726 80.2489 17.9726C79.9258 17.9726 79.6835 17.9322 79.4008 17.8514C79.1585 17.7706 78.9565 17.7302 78.795 17.6495C78.6334 17.5687 78.4315 17.4879 78.2295 17.3667C78.0276 17.2456 77.7853 17.084 77.5834 16.8417C77.3814 16.6398 77.1795 16.3975 76.9775 16.1147C76.7756 15.832 76.6544 15.5089 76.5737 15.1455C76.4929 14.782 76.4525 14.3377 76.5333 13.8935C76.6141 13.4088 76.7756 12.8838 77.0179 12.3183ZM78.5526 12.9645C78.3507 13.4896 78.2296 13.9338 78.1892 14.2973C78.1892 14.7012 78.2295 15.0243 78.3507 15.307C78.4719 15.5897 78.6334 15.7916 78.8354 15.9936C79.0373 16.1551 79.2392 16.3167 79.4412 16.3975C79.6431 16.4782 79.8854 16.559 80.1681 16.559C80.4508 16.5994 80.6932 16.559 80.9759 16.4378C81.2586 16.3167 81.5413 16.1551 81.7836 15.8724C82.0663 15.5897 82.3087 15.1858 82.5106 14.7012C82.7125 14.1762 82.8337 13.7319 82.8741 13.3684C82.8741 12.9645 82.8337 12.6414 82.7125 12.3587C82.5914 12.076 82.4298 11.8741 82.2279 11.6722C82.0259 11.5106 81.824 11.3491 81.6221 11.2683C81.4201 11.1875 81.1778 11.1067 80.8951 11.1067C80.6124 11.0663 80.3701 11.1067 80.0874 11.2279C79.8046 11.3491 79.5219 11.5106 79.2796 11.7933C78.9969 12.076 78.7546 12.4799 78.5526 12.9645Z" fill="#292929"/>
<path d="M89.6187 14.0953L89.1744 20.4764L92.2439 15.8723L93.5363 16.7204L89.134 23.3439L87.7609 22.415L88.2051 15.9127H88.1648L85.0146 20.5976L83.7222 19.7495L88.1244 13.126L89.6187 14.0953Z" fill="#292929"/>
<path d="M99.0297 21.6072L95.5564 29.2808L94.264 28.0288L95.0314 26.494L92.9313 24.4747L91.3965 25.2824L90.1445 24.0708L97.6969 20.2744L99.0297 21.6072ZM94.1832 23.7881L95.718 25.242L97.0911 22.213L94.1832 23.7881Z" fill="#292929"/>
<path d="M98.4234 30.8155L100.806 33.9657L99.7158 34.7734L96.3232 30.2905L102.664 25.4844L103.674 26.8172L98.4234 30.8155Z" fill="#292929"/>
<path d="M48.1419 32.9154C48.3438 32.9961 48.5054 33.0769 48.6265 33.1981C48.7477 33.3192 48.8285 33.4404 48.9093 33.6019C48.99 33.7635 49.0304 33.925 49.0708 34.0866C49.1112 34.2885 49.1112 34.4501 49.1112 34.652C49.1112 35.5405 48.9093 36.1867 48.5458 36.5906C48.1419 36.9945 47.5765 37.1964 46.8091 37.1964H44.9917V28.9978H46.8495C47.5765 28.9978 48.1419 29.1997 48.5054 29.5632C48.8689 29.9671 49.0708 30.5325 49.0708 31.2999C49.0708 31.4614 49.0708 31.623 49.0304 31.7845C48.99 31.9461 48.9496 32.1076 48.8689 32.2288C48.7881 32.3903 48.7073 32.5115 48.5862 32.5923C48.465 32.7134 48.3438 32.7942 48.1823 32.8346V32.9154H48.1419ZM47.4957 31.3403C47.4957 31.0172 47.4553 30.8152 47.3342 30.6941C47.213 30.5729 47.0111 30.5325 46.7687 30.5325H46.6072V32.1884H46.8091C47.2534 32.148 47.4957 31.9057 47.4957 31.3403ZM47.5765 34.5712C47.5765 34.2481 47.5361 34.0058 47.4149 33.8847C47.2938 33.7635 47.1322 33.6827 46.8899 33.6827H46.6072V35.7425H46.8899C47.0514 35.7425 47.1726 35.7021 47.2534 35.6617C47.3342 35.6213 47.4149 35.5405 47.4553 35.4194C47.4957 35.2982 47.5361 35.177 47.5361 35.0559C47.5765 34.8539 47.5765 34.7328 47.5765 34.5712Z" fill="#292929"/>
<path d="M52.5037 28.9978C52.8268 28.9978 53.1499 29.0382 53.4326 29.119C53.7154 29.1997 53.9577 29.3209 54.1596 29.5228C54.3615 29.7248 54.5231 29.9671 54.6443 30.2902C54.7654 30.6133 54.8058 30.9768 54.8058 31.421C54.8058 31.9865 54.725 32.4307 54.5635 32.7942C54.4019 33.1577 54.2 33.4404 53.8769 33.6423L55.0481 37.2368H53.3923L52.423 34.0058H52.0999V37.2368H50.4844V28.9978H52.5037ZM52.1806 30.5325V32.4711H52.423C52.5441 32.4711 52.6653 32.4711 52.7461 32.4307C52.8672 32.3903 52.948 32.3499 53.0288 32.2692C53.1095 32.1884 53.1903 32.0672 53.2307 31.9461C53.2711 31.8249 53.3115 31.6634 53.3115 31.421C53.3115 31.0979 53.2307 30.8556 53.0692 30.7345C52.9076 30.5729 52.7057 30.5325 52.4633 30.5325H52.1806Z" fill="#292929"/>
<path d="M60.2984 35.2176C60.2984 35.9446 60.1369 36.4696 59.7734 36.7927C59.4099 37.1158 58.8849 37.3178 58.1983 37.3178C56.7847 37.3178 56.0981 36.6312 56.0981 35.2176V30.977C56.0981 30.25 56.3001 29.725 56.6636 29.4019C57.0271 29.0788 57.5521 28.9172 58.1983 28.9172C58.9253 28.9172 59.4503 29.0788 59.8138 29.4019C60.1773 29.725 60.3388 30.25 60.3388 30.977V35.2176H60.2984ZM58.6425 30.9366C58.6425 30.7347 58.6021 30.6135 58.5214 30.5327C58.4406 30.4519 58.3194 30.4116 58.1983 30.4116C58.0771 30.4116 57.956 30.4519 57.8348 30.5327C57.754 30.6135 57.6732 30.7347 57.6732 30.9366V35.2984C57.6732 35.5003 57.7136 35.6215 57.8348 35.7023C57.9156 35.7831 58.0367 35.8234 58.1983 35.8234C58.3598 35.8234 58.4406 35.7831 58.5214 35.7023C58.6021 35.6215 58.6425 35.5003 58.6425 35.2984V30.9366Z" fill="#292929"/>
<path d="M64.7011 32.8751V28.9575H66.2762V37.1965H64.903L63.9337 34.7733L63.3683 33.1982H63.3279V37.1561H61.7124V28.9979H63.126L64.0952 31.3808L64.6607 32.8751H64.7011Z" fill="#292929"/>
<path d="M67.4067 37.2368V35.7829L69.3857 30.5325H67.4471V28.9978H71.1224V30.4114L69.103 35.7021H71.1224V37.2368H67.4067Z" fill="#292929"/>
<path d="M72.2935 37.2368V28.9978H76.0898V30.5325H73.9089V32.2692H75.8071V33.8039H73.9089V35.6617H76.0898V37.1964H72.2935V37.2368Z" fill="#292929"/>
<path d="M47.4954 85.7016L46.7684 89.6191H44.9914L43.7798 81.3801H45.6376L46.0819 85.9843H46.1222L46.8896 81.3801H48.2224L48.9897 86.065H49.0705L49.434 81.3801H51.2918L50.0802 89.6191H48.2628L47.5762 85.7016H47.4954Z" fill="#292929"/>
<path d="M52.2202 89.6191V81.3801H53.8357V89.6191H52.2202Z" fill="#292929"/>
<path d="M58.3187 85.2573V81.3397H59.8938V89.5787H58.5207L57.5514 87.1555L56.986 85.5804H56.9456V89.5383H55.3301V81.2993H56.7436L57.7129 83.6822L58.2783 85.1765H58.3187V85.2573Z" fill="#292929"/>
<path d="M64.3368 85.2573V81.3397H65.9119V89.5787H64.5387L63.5694 87.1555L63.004 85.5804H62.9636V89.5383H61.3481V81.2993H62.7617L63.731 83.6822L64.2964 85.1765H64.3368V85.2573Z" fill="#292929"/>
<path d="M67.3657 89.6191V81.3801H71.1621V82.9148H68.9812V84.6515H70.8794V86.1862H68.9812V88.044H71.1621V89.5787H67.3657V89.6191Z" fill="#292929"/>
<path d="M74.3123 81.3396C74.6354 81.3396 74.9585 81.38 75.2412 81.4608C75.5239 81.5415 75.7663 81.6627 75.9682 81.8646C76.1701 82.0666 76.3317 82.3089 76.4528 82.632C76.574 82.9551 76.6144 83.3186 76.6144 83.7628C76.6144 84.3283 76.5336 84.7725 76.3721 85.136C76.2105 85.4995 76.0086 85.7822 75.6855 85.9841L76.8567 89.5786H75.2008L74.2316 86.3476H73.9085V89.5786H72.293V81.3396H74.3123ZM73.9488 82.9147V84.8533H74.1912C74.3123 84.8533 74.4335 84.8533 74.5143 84.8129C74.6354 84.7725 74.7162 84.7321 74.797 84.6513C74.8777 84.5706 74.9585 84.4494 74.9989 84.3283C75.0393 84.2071 75.0797 84.0455 75.0797 83.8032C75.0797 83.4801 74.9989 83.2378 74.8374 83.1166C74.6758 82.9551 74.4739 82.9147 74.2316 82.9147H73.9488Z" fill="#292929"/>
</svg>
