<svg width="121" height="152" viewBox="0 0 121 152" fill="none" xmlns="http://www.w3.org/2000/svg">
<path fill-rule="evenodd" clip-rule="evenodd" d="M96.6945 59.3706C97.3427 58.5178 99.044 54.3757 98.7605 53.6447C98.4364 52.9138 94.8311 51.8985 94.8311 51.8985C94.8311 51.8985 95.3577 51.0051 95.8033 50.1929C93.8184 49.1371 90.0916 49.8275 89.5245 49.3401C88.9573 48.8528 91.1853 47.3097 90.4967 46.4975C89.808 45.6853 82.962 48.4874 80.572 48.6904C77.0477 49.0153 73.2804 47.6346 68.3383 47.3503C68.3383 47.6752 68.3383 48 68.3383 48.1219C68.9054 48.2437 71.9436 49.0559 74.5767 52.467C76.8452 55.4315 84.3798 65.5838 85.3926 67.0051C87.2965 69.7259 88.0256 76.6295 91.7119 80.2843C87.7421 77.4823 87.4585 70.7412 84.3798 67.0863C80.6935 62.6599 76.7642 56.4061 73.1994 52.264C71.4575 50.2335 69.5536 49.6244 68.4598 49.4214C68.7029 52.5483 68.6219 58.0711 68.2573 61.2792C69.5941 62.1726 74.0096 65.7868 77.7364 75.6549C81.5037 85.5635 81.7062 87.1473 82.719 92.3452C82.2329 90.1929 79.0732 79.797 77.2503 76.0204C75.4679 72.3655 73.6045 67.0457 68.1358 62.0102C67.6497 65.462 66.7585 69.0762 65.6647 72.4874C71.579 78.4569 73.4019 84.8731 73.807 96.2843C72.4702 82.5178 69.6346 77.7665 65.3812 73.3808C64.8546 74.9645 64.2874 76.4671 63.7203 77.8884C61.7354 82.7209 52.7019 104.65 52.7019 104.65C52.7019 104.65 52.7829 103.635 53.9982 100.426C55.2134 97.2183 61.6949 81.665 63.1127 77.5229C64.5305 73.3808 66.2319 68.1016 67.1636 61.6041C67.7712 57.3401 67.4066 51.0863 67.2446 48.6092C65.0571 50.8021 59.7099 56.2031 55.9831 59.6955C55.9021 73.2995 45.4103 84.3046 42.9798 86.3351C54.6463 73.7868 55.0514 63.066 54.9704 60.6701C54.1602 61.4417 53.4311 62.0508 52.9449 62.4569C49.7447 65.0153 42.6152 69.929 39.3745 71.8782C36.0122 73.8681 24.7913 79.3097 24.7913 79.3097C24.7913 79.3097 35.3236 73.462 38.6048 71.4721C41.562 69.6853 48.0839 65.0559 51.9727 61.9696C55.578 59.127 64.9356 48.8122 66.3534 47.1879C65.0976 47.3097 62.9506 47.5533 61.3708 47.9188C59.5074 48.3249 41.3999 51.7767 35.4856 51.6549C28.6396 51.533 23.2519 48.9747 22.0367 47.8376C22.0367 47.8376 29.2067 51.4112 35.9312 51.0457C44.1545 50.599 57.9275 47.9594 61.1277 47.2285C63.7203 46.6599 65.8268 46.4163 66.799 46.3351C66.7585 46.2945 66.7585 46.2945 66.7585 46.2945C66.7585 46.2945 64.5305 40.3249 64.3685 39.9594C63.0722 37.4823 59.8315 32.7716 54.7678 28.2234C58.8187 30.9442 64.1659 38.0102 64.1659 38.0102C64.1659 38.0102 66.0293 31.7158 64.9761 26.7615C64.2874 23.6346 61.8164 19.2082 59.5479 16.6498C63.2747 19.9391 65.3812 26.0305 65.3812 26.0305C65.3812 26.0305 67.4471 25.0559 68.8649 22.0508C68.6219 23.066 68.2573 24.5686 65.5837 26.4772C66.9205 31.7564 64.733 38.6599 64.733 38.6599C64.733 38.6599 66.4344 42.6396 67.2041 45.1168C68.1358 41.4214 70.7688 35.6143 72.2272 31.9188C74.4552 26.2335 71.8626 17.0965 71.417 15.5533C71.417 15.5533 74.2526 22.4163 73.483 28.7107C74.4552 28.1828 77.4123 26.0305 77.4933 20.5483C77.5338 21.198 78.0199 26.7615 73.4424 29.1574C73.3209 30.0102 73.1184 30.8224 72.8753 31.6346C71.579 35.4112 70.4448 37.4823 69.351 40.2843C70.0802 39.2691 70.8904 38.5787 72.4297 37.2386C75.3869 34.6802 77.1287 32.8122 78.182 30.7818C78.182 30.7818 77.4528 33.665 73.9691 36.6295C71.0119 39.1473 69.351 41.0559 68.5004 42.8021C68.0548 44.0204 67.7307 45.1168 67.6497 46.0102C67.6497 46.132 67.6902 46.1726 67.7712 46.132C67.9332 44.7919 68.9054 42.3554 74.4957 37.929C82.1113 31.8376 81.0176 26.1929 80.8151 24.6498C80.1264 25.2589 79.4378 26.8021 78.9111 26.5178C78.3845 26.2335 79.5998 21.2792 77.5338 17.3808C77.0882 18.599 76.5616 20.3046 76.5616 20.3046C76.5616 20.3046 73.807 15.1879 71.4575 14.863C69.108 14.5381 70.6068 21.7259 69.108 21.4417C67.6092 21.1574 65.4217 15.6346 65.1381 16.5686C64.8546 17.5026 64.652 19.0457 64.652 19.0457C64.652 19.0457 59.872 15.4721 58.9808 15.8782C57.968 16.3249 59.2238 20.6701 58.9808 20.9138C58.7377 21.1574 53.188 18.8427 52.7019 18.6802C52.5804 20.2234 53.35 22.4569 53.35 22.4569C53.35 22.4569 49.8258 22.0102 47.7598 22.9848C48.7725 23.8376 50.1903 24.528 50.1093 25.0559C49.9878 25.9899 47.1117 27.2894 47.4357 27.6955C47.7598 28.1422 51.8917 27.1269 51.122 32.1625C50.5954 35.6955 47.8813 34.396 47.4357 33.5026C46.9901 32.6092 46.6256 35.8173 46.6256 35.8173C46.6256 35.8173 43.2633 35.6955 43.2633 36.264C43.2633 36.7919 43.2633 37.4011 43.2633 37.4011C43.2633 37.4011 42.7772 37.1168 41.9265 36.6701C41.805 37.4823 41.967 40.7716 41.967 40.7716C41.967 40.7716 42.2506 42.2335 39.8606 41.8275C37.4706 41.3808 34.9995 40.3249 33.0551 40.1625C34.2704 42.5584 33.1361 43.8579 30.5841 43.2082C28.0725 42.5584 28.6801 42.6802 26.6547 42.3148C25.966 42.5178 27.2218 44.6295 27.2218 44.6295L23.495 44.9544C23.495 44.9544 24.1836 45.8884 23.9406 46.3757C23.657 46.863 20.5379 45.8072 20.4568 47.3503C20.4163 48.528 24.6292 53.6853 24.6292 53.6853L21.6316 54.9442L24.5482 60.5483C24.5482 60.5483 21.348 63.2285 21.0645 63.3097C20.7809 63.4315 25.1964 66.396 25.1964 66.396C25.1964 66.396 22.8063 68.4264 22.9279 68.7513C23.0494 69.0762 24.6292 69.6447 24.6292 69.6447C24.6292 69.6447 20.6999 70.8224 21.186 71.6346C21.6721 72.4467 23.1709 73.7056 23.1709 73.7056L21.9962 75.533L23.1709 76.264L23.0494 78.8224C23.0494 78.8224 24.5077 79.0254 24.6292 79.4721C24.7508 79.9188 24.8723 81.6244 24.8723 81.6244L29.3283 83.9391C29.3283 83.9391 29.1662 85.2386 29.3283 85.8072C30.0979 86.3757 33.0956 85.8072 33.0956 85.8072L33.7437 87.1879C33.7437 87.1879 37.187 85.6853 37.349 86.863C37.4706 88.0407 37.7541 90.6803 38.3618 92.2234C39.415 92.6701 43.9115 91.2894 45.6534 91.0051C47.3952 90.7209 48.732 90.6396 48.8536 92.3452C49.0561 94.863 48.8536 95.8376 48.8536 95.8376H50.717C50.717 95.8376 49.8663 98.3148 50.2309 99.4112C50.5954 100.548 51.0815 101.401 51.0815 101.401L52.7019 105.056C52.7019 105.056 55.9021 103.716 57.2389 102.701C58.7377 103.553 59.7099 102.579 59.7099 102.579L60.2365 104.65C60.2365 104.65 63.5988 101.523 64.3685 101.482C65.0976 101.442 65.5027 103.553 66.1913 103.716C66.88 103.878 68.3788 100.183 68.3788 100.183L69.4321 101.076C69.4321 101.076 70.4448 98.0305 70.9714 97.7462C71.498 97.462 72.1056 97.8681 73.3614 99.127C74.6577 100.426 75.0628 96.8122 75.7514 96.731C76.4806 96.9341 77.9794 97.0153 77.9794 97.0153C77.9794 97.0153 78.0604 93.7665 78.0604 92.3452C78.0604 91.6549 78.5466 89.7462 79.7213 91.0051C80.8961 92.3046 82.5974 94.0914 82.5974 94.0914C82.5974 94.0914 85.3115 91.8579 85.028 90.5584C84.7444 89.2589 84.3393 88.4061 85.028 88.0813C85.7166 87.7564 86.2432 89.0965 86.7699 89.462C87.3775 88.5686 87.499 86.3757 87.4585 84.467C87.418 83.0051 87.7826 82.2742 90.2941 82.599C92.8057 82.9239 93.8589 83.0457 94.6286 82.4772C95.3577 81.9493 95.4793 80.6498 95.6818 78.6193C97.3832 78.9036 98.2339 78.7412 98.2339 78.7412L97.7478 73.8275C97.7478 73.8275 99.7327 73.8681 100.745 73.6244C100.381 72 98.5984 67.8579 98.5984 67.8579C98.5984 67.8579 101.758 67.4924 102.123 66.8427C102.406 66.3554 98.5174 60.7919 96.6945 59.3706Z" fill="#FDF1CD"/>
<path fill-rule="evenodd" clip-rule="evenodd" d="M19.8491 54.9036H22.5632L24.5887 60.2234H24.6292L26.6546 54.9036H29.2067V55.2691C29.0446 55.3097 28.9636 55.3503 28.8826 55.3909C28.8016 55.4721 28.7611 55.5127 28.7206 55.5939C28.6801 55.6751 28.6801 55.7157 28.6801 55.7564C28.6801 55.797 28.6801 55.8376 28.6801 55.8782V61.3604C28.6801 61.5229 28.7206 61.6041 28.7611 61.6853C28.8421 61.7665 28.8826 61.8071 28.9636 61.8477C29.0041 61.8883 29.0446 61.8883 29.0851 61.8883C29.1257 61.8883 29.1662 61.8883 29.2067 61.9289V62.2944H26.4521V61.9289C26.6141 61.8883 26.7356 61.8477 26.8166 61.8071C26.8977 61.7665 26.9382 61.6853 26.9787 61.6041C27.0192 61.5635 27.0192 61.4822 27.0192 61.4416C27.0192 61.401 27.0192 61.3604 27.0192 61.3198V55.8376H26.9382L24.4671 62.2944H23.6975L21.1859 55.6751H21.1454V61.198C21.1454 61.4416 21.1859 61.6041 21.2669 61.6853C21.3479 61.7665 21.4695 61.8477 21.5505 61.8883C21.591 61.8883 21.6315 61.8883 21.6315 61.8883C21.672 61.8883 21.7125 61.8883 21.7125 61.8883V62.2538H19.8491V61.8883C20.0112 61.8883 20.1732 61.8477 20.2542 61.7665C20.3352 61.6853 20.4162 61.6041 20.4162 61.5229C20.4568 61.4416 20.4568 61.401 20.4568 61.3198C20.4568 61.2386 20.4568 61.198 20.4568 61.198V56.0812C20.4568 55.797 20.4162 55.5939 20.2947 55.4315C20.1732 55.269 20.0517 55.1878 19.8491 55.1878V54.9036Z" fill="#1D1D1B"/>
<path fill-rule="evenodd" clip-rule="evenodd" d="M30.5435 54.9036H33.2981V55.2691C33.0955 55.3097 32.9335 55.3909 32.893 55.4721C32.812 55.5939 32.812 55.7157 32.7714 55.8376C32.7714 55.8782 32.7714 55.8782 32.7714 55.9188C32.7714 55.9594 32.7714 55.9594 32.7714 56V59.0457C32.7714 59.1269 32.7714 59.2081 32.7714 59.2894C32.7714 59.3706 32.7714 59.4518 32.7714 59.533C32.812 60.0609 32.9335 60.5076 33.217 60.9543C33.5006 61.401 34.0677 61.6041 34.9589 61.6041C35.7691 61.6041 36.2957 61.4416 36.6198 61.1574C36.9439 60.8325 37.1059 60.5076 37.1869 60.1421C37.2274 60.0203 37.2274 59.8985 37.2274 59.8173C37.2274 59.6954 37.2274 59.6142 37.2274 59.4924V55.9594C37.2274 55.9188 37.2274 55.8782 37.2274 55.8376C37.2274 55.797 37.2274 55.7564 37.2274 55.7157C37.1869 55.6345 37.1464 55.5533 37.0654 55.4721C36.9844 55.3909 36.8223 55.3503 36.6198 55.3097V54.9442H38.4832V55.3097C38.3212 55.3503 38.1591 55.3909 38.0781 55.4315C37.9971 55.5127 37.9161 55.5939 37.8756 55.6345C37.8351 55.6751 37.8351 55.7564 37.8351 55.797C37.8351 55.8376 37.8351 55.8782 37.8351 55.9188V59.4112C37.8351 59.8579 37.7945 60.264 37.673 60.6295C37.5515 61.0355 37.3084 61.3604 36.9844 61.6447C36.9034 61.7259 36.8223 61.7665 36.7413 61.8071C36.6603 61.8477 36.5793 61.9289 36.4983 61.9696C36.0932 62.2132 35.7286 62.335 35.364 62.3756C34.9994 62.4163 34.7564 62.4163 34.6349 62.4163C34.0677 62.4163 33.6221 62.3756 33.2576 62.2538C32.893 62.132 32.6094 62.0102 32.3664 61.8883C32.2448 61.8071 32.1233 61.7259 32.0423 61.6447C31.9613 61.5635 31.8803 61.5229 31.8397 61.4822C31.7992 61.4416 31.7587 61.401 31.7182 61.3604C31.6777 61.3198 31.6372 61.2386 31.5562 61.198C31.4347 61.0355 31.3536 60.8325 31.2321 60.5482C31.1106 60.264 31.0701 59.8985 31.0701 59.4518V55.9188C31.0701 55.8782 31.0701 55.8782 31.0701 55.8376C31.0701 55.797 31.0701 55.7564 31.0701 55.7564C31.0701 55.6345 31.0296 55.5533 30.9485 55.4315C30.8675 55.3503 30.746 55.269 30.5435 55.2284V54.9036Z" fill="#1D1D1B"/>
<path fill-rule="evenodd" clip-rule="evenodd" d="M39.7798 54.9036H41.8862L46.0181 59.6548H46.1396V55.9594C46.1396 55.9188 46.1396 55.8782 46.1396 55.8376C46.1396 55.797 46.1396 55.7158 46.0991 55.6751C46.0586 55.5939 46.0181 55.5127 45.8966 55.4721C45.8156 55.3909 45.6535 55.3503 45.451 55.3097V54.9442H47.3549V55.3097C47.1524 55.3503 47.0308 55.3909 46.9498 55.4315C46.8688 55.5127 46.7878 55.5939 46.7473 55.6345C46.7068 55.6751 46.7068 55.7564 46.7068 55.797C46.7068 55.8376 46.7068 55.8782 46.7068 55.9188V62.3756H46.0991L41.0355 56.5685H40.914V61.3198C40.914 61.3604 40.914 61.401 40.914 61.4416C40.914 61.4822 40.914 61.5229 40.9545 61.5635C40.995 61.6447 41.0355 61.7259 41.1571 61.8071C41.2381 61.8883 41.4001 61.9289 41.6026 61.9696V62.335H39.6987V61.9696C39.9013 61.9289 40.0633 61.8883 40.1443 61.8071C40.2253 61.7259 40.3064 61.6447 40.3469 61.5635C40.3469 61.5229 40.3874 61.4822 40.3874 61.4416C40.3874 61.401 40.3874 61.3604 40.3874 61.3198V55.9188C40.3874 55.8782 40.3874 55.8376 40.3874 55.797C40.3874 55.7564 40.3874 55.7157 40.3469 55.6345C40.3469 55.5533 40.2659 55.4315 40.1848 55.3503C40.1038 55.269 39.9418 55.2284 39.7392 55.2691V54.9036H39.7798Z" fill="#1D1D1B"/>
<path fill-rule="evenodd" clip-rule="evenodd" d="M48.7319 54.9036H52.0537C53.3499 54.9036 54.2817 55.1066 54.9298 55.5533C55.5779 56 56.0235 56.4467 56.2666 56.934C56.4286 57.2995 56.5501 57.6244 56.5907 57.9492C56.6312 58.2741 56.6717 58.5178 56.6717 58.7208C56.6717 59.2487 56.5501 59.7767 56.3881 60.2234C56.1856 60.7107 55.8615 61.1168 55.3754 61.4822C55.2134 61.6041 55.0513 61.7259 54.8893 61.8071C54.7272 61.8883 54.5652 61.9696 54.4032 62.0508C53.9981 62.2132 53.593 62.2944 53.1879 62.335C52.8233 62.3756 52.5398 62.3756 52.3777 62.3756H48.7319V62.0102C49.0155 61.9289 49.1775 61.8477 49.218 61.7259C49.2585 61.6041 49.2991 61.4822 49.2991 61.3604V56.0812C49.2991 55.9188 49.2585 55.797 49.218 55.7157C49.1775 55.5939 49.0155 55.5127 48.7319 55.4315V54.9036ZM50.9599 61.8071H51.8106C51.9726 61.8071 52.1752 61.8071 52.3777 61.7665C52.5803 61.7259 52.8233 61.6853 53.0664 61.6041C53.4715 61.4416 53.8766 61.1574 54.2411 60.7513C54.6057 60.3046 54.7678 59.6142 54.7678 58.6802C54.7678 57.665 54.5652 56.934 54.1601 56.4873C53.755 56.0406 53.3094 55.7564 52.7828 55.5939C52.5803 55.5533 52.3777 55.5127 52.2157 55.4721C52.0132 55.4315 51.8511 55.4315 51.6891 55.4315H50.9599V61.8071Z" fill="#1D1D1B"/>
<path fill-rule="evenodd" clip-rule="evenodd" d="M57.9682 54.9036H60.7229V55.2691C60.5203 55.3097 60.3583 55.3909 60.3178 55.4721C60.2367 55.5939 60.1962 55.7157 60.1962 55.8376C60.1962 55.8782 60.1962 55.8782 60.1962 55.9188C60.1962 55.9594 60.1962 55.9594 60.1962 56V59.0457C60.1962 59.1269 60.1962 59.2081 60.1962 59.2894C60.1962 59.3706 60.1962 59.4518 60.1962 59.533C60.2367 60.0609 60.3583 60.5076 60.6418 60.9543C60.9254 61.401 61.4925 61.6041 62.3837 61.6041C63.1939 61.6041 63.7205 61.4416 64.0446 61.1574C64.3686 60.8325 64.5307 60.5076 64.6117 60.1421C64.6522 60.0203 64.6522 59.8985 64.6522 59.8173C64.6522 59.6954 64.6522 59.6142 64.6522 59.4924V55.9594C64.6522 55.9188 64.6522 55.8782 64.6522 55.8376C64.6522 55.797 64.6522 55.7564 64.6522 55.7157C64.6117 55.6345 64.5712 55.5533 64.4902 55.4721C64.4092 55.3909 64.2471 55.3503 64.0446 55.3097V54.9442H65.908V55.3097C65.7459 55.3503 65.5839 55.3909 65.5029 55.4315C65.4219 55.5127 65.3409 55.5939 65.3003 55.6345C65.2598 55.6751 65.2598 55.7564 65.2598 55.797C65.2598 55.8376 65.2598 55.8782 65.2598 55.9188V59.4112C65.2598 59.8579 65.2193 60.264 65.0978 60.6295C64.9763 61.0355 64.7332 61.3604 64.3686 61.6447C64.2876 61.7259 64.2066 61.7665 64.1256 61.8071C64.0446 61.8477 63.9636 61.9289 63.8825 61.9696C63.4774 62.2132 63.1129 62.335 62.7483 62.3756C62.3837 62.4163 62.1407 62.4163 62.0191 62.4163C61.452 62.4163 61.0064 62.3756 60.6418 62.2538C60.2772 62.132 59.9937 62.0102 59.7506 61.8883C59.6291 61.8071 59.5076 61.7259 59.4266 61.6447C59.3455 61.5635 59.2645 61.5229 59.224 61.4822C59.1835 61.4416 59.143 61.401 59.1025 61.3604C59.062 61.3198 59.0215 61.2386 58.9405 61.198C58.8189 61.0355 58.7379 60.8325 58.6164 60.5482C58.5354 60.264 58.4544 59.8985 58.4544 59.4518V55.9188C58.4544 55.8782 58.4544 55.8782 58.4544 55.8376C58.4544 55.797 58.4544 55.7564 58.4544 55.7564C58.4544 55.6345 58.4138 55.5533 58.3328 55.4315C58.2518 55.3503 58.1303 55.269 57.9277 55.2284V54.9036H57.9682Z" fill="#1D1D1B"/>
<path fill-rule="evenodd" clip-rule="evenodd" d="M72.3082 55.1067V56.8529H71.8626C71.7411 56.4468 71.579 56.1219 71.336 55.9189C71.0929 55.7158 70.8499 55.5534 70.5663 55.4722C70.4448 55.4316 70.3638 55.4316 70.2423 55.391C70.1207 55.391 70.0397 55.3503 69.9182 55.3503C69.5131 55.3503 69.2295 55.4316 69.0675 55.6346C68.8649 55.797 68.7839 56.0001 68.7434 56.2437C68.7434 56.2844 68.7434 56.2844 68.7434 56.325C68.7434 56.3656 68.7434 56.3656 68.7434 56.4062C68.7434 56.6092 68.8244 56.8123 68.946 56.9747C69.108 57.1371 69.27 57.259 69.4321 57.3402C69.5536 57.3808 69.6751 57.462 69.7561 57.5026C69.8777 57.5432 69.9587 57.5838 69.9992 57.5838C70.0397 57.5838 70.0802 57.6245 70.0802 57.6245C70.1207 57.6245 70.1612 57.6651 70.2017 57.6651C70.8904 57.9087 71.498 58.193 72.0246 58.5179C72.5513 58.8427 72.7943 59.3707 72.7943 60.1422C72.7943 60.792 72.5513 61.3605 72.0246 61.8478C71.5385 62.3351 70.8499 62.5788 69.9992 62.5788C69.7561 62.5788 69.5536 62.5788 69.3511 62.5382C69.1485 62.4976 68.9865 62.4569 68.8244 62.4163C68.7839 62.4163 68.7839 62.4163 68.7434 62.3757C68.7029 62.3757 68.7029 62.3757 68.6624 62.3351C68.5409 62.2945 68.4194 62.2539 68.2978 62.2539C68.1763 62.2133 68.0953 62.2133 68.0143 62.2133C67.9332 62.2133 67.8522 62.2133 67.8117 62.2539C67.7712 62.2945 67.7307 62.3351 67.6902 62.3757C67.6902 62.3757 67.6902 62.3757 67.6497 62.4163C67.6497 62.4163 67.6497 62.4163 67.6497 62.4569H67.2851L67.1636 60.5889H67.6092C67.7712 60.9544 68.0548 61.2387 68.3383 61.4823C68.6624 61.726 68.9865 61.8884 69.3511 61.9696C69.4321 62.0102 69.5131 62.0102 69.5536 62.0102C69.6346 62.0102 69.7156 62.0102 69.7967 62.0102C70.2828 62.0102 70.6473 61.929 70.8904 61.726C71.1334 61.5229 71.336 61.3199 71.417 61.0762C71.4575 60.995 71.4575 60.9544 71.498 60.8732C71.498 60.792 71.498 60.7514 71.498 60.6701C71.498 60.3453 71.336 60.061 71.0524 59.8986C70.7689 59.7361 70.4043 59.5737 70.0397 59.4519C69.9992 59.4519 69.9992 59.4519 69.9587 59.4113C69.9182 59.4113 69.9182 59.4113 69.8777 59.3706C69.7561 59.33 69.5941 59.2488 69.4321 59.2082C69.27 59.127 69.0675 59.0458 68.9055 58.9646C68.5814 58.8021 68.2573 58.5585 67.9738 58.2336C67.6902 57.9087 67.5282 57.5026 67.5282 57.0153C67.5282 56.4062 67.7712 55.8783 68.2168 55.4722C68.6624 55.0661 69.2295 54.863 69.8372 54.863C70.0397 54.863 70.2422 54.863 70.4043 54.9036C70.5663 54.9443 70.7284 54.9849 70.8499 55.0255C70.9714 55.0661 71.0929 55.1473 71.174 55.1879C71.255 55.2285 71.336 55.2691 71.3765 55.3097C71.417 55.3097 71.417 55.3097 71.4575 55.3097C71.4575 55.3097 71.498 55.3097 71.5385 55.3097C71.579 55.3097 71.579 55.3097 71.6196 55.3097C71.6601 55.3097 71.6601 55.3097 71.7006 55.3097C71.7411 55.3097 71.7816 55.2691 71.8221 55.2691C71.8626 55.2285 71.8626 55.2285 71.9031 55.1473H72.3082V55.1067Z" fill="#1D1D1B"/>
<path fill-rule="evenodd" clip-rule="evenodd" d="M81.3825 55.5127V56.1218C81.0989 56.1624 80.8964 56.2843 80.7749 56.4467C80.6534 56.6091 80.5723 56.8122 80.4913 57.0152C80.4913 57.0558 80.4913 57.0558 80.4913 57.0965C80.4913 57.0965 80.4913 57.1371 80.4508 57.1777L78.5064 62.5381H77.9798L75.3872 57.0558C75.3467 57.0152 75.3467 56.9746 75.3062 56.934C75.3062 56.8934 75.2657 56.8528 75.2657 56.8122C75.1441 56.6091 75.0631 56.4873 74.9011 56.3655C74.7796 56.2437 74.577 56.1624 74.2935 56.1218V55.5127H78.1823V56.1218C77.9393 56.1218 77.7772 56.1624 77.6962 56.2843C77.6152 56.3655 77.5747 56.4873 77.5747 56.6091V56.6498C77.5747 56.6498 77.5747 56.6904 77.5747 56.731C77.5747 56.7716 77.6152 56.8122 77.6152 56.8528C77.6152 56.8934 77.6557 56.934 77.6557 56.9746C77.6557 57.0152 77.6962 57.0558 77.6962 57.0965C77.6962 57.1371 77.7367 57.1371 77.7367 57.1777L78.7899 59.4518H78.871L79.6811 57.1777C79.7216 57.0558 79.7622 56.9746 79.7622 56.8934C79.7622 56.8122 79.8027 56.731 79.8027 56.6498C79.8027 56.4873 79.7622 56.4061 79.6406 56.2843C79.5191 56.2031 79.3976 56.1624 79.276 56.1218H79.2355C79.2355 56.1218 79.195 56.1218 79.1545 56.1218V55.5127H81.3825Z" fill="#1D1D1B"/>
<path fill-rule="evenodd" clip-rule="evenodd" d="M86.0407 55.5127V60.7918C86.0407 61.0355 86.0812 61.2792 86.2027 61.4416C86.3242 61.604 86.4863 61.7259 86.6888 61.7665V62.3756H83.1646V61.7665C83.4076 61.7259 83.5696 61.604 83.6912 61.401C83.7722 61.2385 83.8532 61.0355 83.8532 60.7512V57.0558C83.8532 56.8122 83.8127 56.6091 83.6912 56.4061C83.5696 56.203 83.4076 56.1218 83.2051 56.0812V55.4721H86.0407V55.5127ZM83.7317 52.2639C83.7317 52.2233 83.7317 52.2233 83.7317 52.1827C83.7317 52.1421 83.7317 52.1015 83.7317 52.1015C83.7722 51.8578 83.8937 51.6548 84.0963 51.4517C84.2988 51.2487 84.5419 51.1675 84.8659 51.1675C85.19 51.1675 85.4331 51.2893 85.6356 51.4924C85.8381 51.6954 85.9597 51.9391 86.0002 52.2233V52.2639V52.3045C86.0002 52.3451 86.0002 52.3451 86.0002 52.3858C86.0002 52.4264 86.0002 52.4264 86.0002 52.467C85.9597 52.7106 85.8786 52.9137 85.6356 53.1167C85.4331 53.3198 85.19 53.4416 84.8659 53.4416H84.8254H84.7849C84.5419 53.401 84.2988 53.2792 84.0557 53.0761C83.8532 52.8325 83.7317 52.5888 83.7317 52.2639Z" fill="#1D1D1B"/>
<path fill-rule="evenodd" clip-rule="evenodd" d="M88.4311 62.3756V61.7664C88.6742 61.6852 88.8362 61.5634 88.9172 61.4009C88.9983 61.2385 89.0388 61.0355 89.0388 60.7512V57.0558C89.0388 56.7715 88.9983 56.5685 88.8767 56.406C88.7957 56.2436 88.6337 56.1624 88.3906 56.0811V55.472H91.2262V56.3248H91.2668C91.5098 56.0405 91.7934 55.7969 92.158 55.5938C92.5225 55.3908 92.9276 55.3096 93.3327 55.3096C94.0214 55.3096 94.467 55.5126 94.71 55.8781C94.9531 56.2436 95.1151 56.6903 95.1556 57.137C95.1556 57.2588 95.1961 57.3806 95.1961 57.5431C95.1961 57.6649 95.1961 57.7867 95.1961 57.9086V60.7512C95.1961 60.9949 95.2366 61.1979 95.2771 61.3603C95.3582 61.5228 95.5202 61.6446 95.8038 61.7664V62.335H92.3605V61.7258C92.563 61.6852 92.6846 61.604 92.7656 61.5228C92.8466 61.4416 92.9276 61.3197 92.9681 61.1979C92.9681 61.1167 92.9681 61.0355 93.0086 60.9542C93.0086 60.873 93.0086 60.8324 93.0086 60.7512V57.7055C93.0086 57.6649 93.0086 57.5837 93.0086 57.5431C93.0086 57.5025 93.0086 57.4212 93.0086 57.3806C92.9681 57.1776 92.9276 57.0152 92.8061 56.8933C92.6846 56.7309 92.5225 56.6903 92.239 56.6903C91.9959 56.6903 91.7529 56.7715 91.5503 56.9745C91.3478 57.1776 91.2262 57.4212 91.2262 57.7461V60.7918C91.2262 60.8324 91.2262 60.9136 91.2262 60.9948C91.2262 61.0761 91.2262 61.1573 91.2668 61.2385C91.3073 61.3603 91.3478 61.4822 91.4693 61.5634C91.5503 61.6852 91.7124 61.7258 91.8744 61.7664V62.3756H88.4311Z" fill="#1D1D1B"/>
<path fill-rule="evenodd" clip-rule="evenodd" d="M100.503 55.5127V60.7918C100.503 61.0355 100.543 61.2792 100.665 61.4416C100.746 61.604 100.908 61.7259 101.151 61.7665V62.3756H97.667V61.7665C97.91 61.7259 98.0721 61.604 98.1936 61.401C98.2746 61.2385 98.3556 61.0355 98.3556 60.7512V57.0558C98.3556 56.8122 98.3151 56.6091 98.1936 56.4061C98.0721 56.203 97.91 56.1218 97.7075 56.0812V55.4721H100.503V55.5127ZM98.1936 52.2639C98.1936 52.2233 98.1936 52.2233 98.1936 52.1827C98.1936 52.1421 98.1936 52.1015 98.1936 52.1015C98.2341 51.8578 98.3556 51.6548 98.5582 51.4517C98.7607 51.2487 99.0038 51.1675 99.3279 51.1675C99.6519 51.1675 99.895 51.2893 100.098 51.4924C100.3 51.6954 100.422 51.9391 100.462 52.2233V52.2639V52.3045C100.462 52.3451 100.462 52.3451 100.462 52.3858C100.462 52.4264 100.462 52.4264 100.462 52.467C100.422 52.7106 100.341 52.9137 100.098 53.1167C99.895 53.3198 99.6519 53.4416 99.3279 53.4416H99.2873H99.2468C99.0038 53.401 98.7607 53.2792 98.5177 53.0761C98.3151 52.8325 98.1936 52.5888 98.1936 52.2639Z" fill="#1D1D1B"/>
<path d="M103.217 46.3349C102.204 46.3349 101.353 47.1471 101.353 48.2029C101.353 49.2181 102.164 50.0709 103.217 50.0709C104.229 50.0709 105.08 49.2587 105.08 48.2029C105.08 47.1471 104.27 46.3349 103.217 46.3349ZM103.217 46.01C104.432 46.01 105.404 46.9846 105.404 48.2029C105.404 49.4212 104.432 50.3958 103.217 50.3958C102.002 50.3958 101.029 49.4212 101.029 48.2029C101.07 46.9846 102.042 46.01 103.217 46.01ZM104.189 49.5024H103.865L103.662 48.812C103.662 48.7308 103.622 48.6902 103.581 48.6496C103.541 48.609 103.5 48.5684 103.46 48.5278C103.419 48.4872 103.379 48.4466 103.298 48.4466C103.257 48.4059 103.176 48.4059 103.136 48.4059H102.569V49.5024H102.285V46.9034H103.298H103.46C103.5 46.9034 103.581 46.9034 103.622 46.944C103.662 46.944 103.703 46.9846 103.784 46.9846C103.824 47.0252 103.865 47.0252 103.905 47.0658C103.986 47.1471 104.027 47.2283 104.067 47.3095C104.108 47.3907 104.108 47.5125 104.108 47.6344C104.108 47.7156 104.108 47.7968 104.067 47.878C104.027 47.9592 104.027 48.0405 103.986 48.0811C103.946 48.1217 103.905 48.2029 103.824 48.2435C103.743 48.2841 103.703 48.3247 103.622 48.3247C103.784 48.3653 103.905 48.5278 103.986 48.812L104.189 49.5024ZM102.569 48.0811H103.257C103.46 48.0811 103.581 48.0405 103.662 47.9592C103.743 47.878 103.784 47.7562 103.784 47.5938C103.784 47.3095 103.622 47.1471 103.298 47.1471H102.569V48.0811Z" fill="#1D1D1B"/>
<path d="M60.4798 12.1015C33.7439 12.1015 12.0716 33.8274 12.0716 60.6294C12.0716 87.4315 33.7439 109.157 60.4798 109.157C87.2156 109.157 108.888 87.4315 108.888 60.6294C108.888 33.8274 87.2156 12.1015 60.4798 12.1015ZM0 60.6294C0 27.1269 27.0599 0 60.4798 0C93.8996 0 121 27.1675 121 60.6701C121 94.1726 93.8996 121.34 60.4798 121.34C27.0599 121.34 0 94.132 0 60.6294Z" fill="#D2A041"/>
<path d="M32.4474 108.345C32.974 107.411 33.5817 106.396 34.1083 105.624L34.0678 105.584C33.4196 106.234 32.731 106.924 32.0018 107.574L29.1257 110.213L28.6396 109.888L29.8143 106.315C30.1384 105.3 30.503 104.325 30.8676 103.472H30.8271C30.3004 104.284 29.6523 105.178 29.0042 106.112L27.0192 108.873L26.3306 108.426L31.1106 101.929L31.9613 102.457L30.746 106.071C30.3815 107.127 30.1384 107.898 29.7738 108.751H29.8143C30.4625 108.061 31.0296 107.533 31.8398 106.761L34.5944 104.162L35.4451 104.731L31.4347 111.756L30.7055 111.269L32.4474 108.345Z" fill="#292929"/>
<path d="M37.9165 110.822L36.0936 109.929L34.7568 112.65L36.8227 113.665L36.4582 114.396L33.582 112.975L37.1468 105.746L39.9014 107.086L39.5368 107.817L37.5924 106.883L36.4177 109.279L38.2406 110.172L37.9165 110.822Z" fill="#292929"/>
<path d="M42.1696 108.021L39.172 115.493L38.3213 115.127L41.3189 107.655L42.1696 108.021Z" fill="#292929"/>
<path d="M41.481 116.386L43.8305 108.67L44.6812 108.914L45.0052 112.975C45.0862 113.909 45.1673 115.046 45.1673 115.98H45.2078C45.4913 114.762 45.7749 113.746 46.18 112.406L47.0307 109.645L47.8003 109.888L45.4508 117.604L44.6001 117.361L44.2761 113.218C44.1951 112.325 44.1545 111.35 44.1545 110.295H44.114C43.871 111.35 43.5874 112.325 43.1013 113.99L42.2911 116.67L41.481 116.386Z" fill="#292929"/>
<path d="M50.4334 110.457L48.732 118.335L47.8408 118.132L49.5422 110.213L50.4334 110.457Z" fill="#292929"/>
<path d="M51.2437 118.863L52.2564 110.863L53.1071 110.985L54.1198 114.924C54.3628 115.817 54.6464 116.954 54.8084 117.848H54.8489C54.93 116.589 55.011 115.533 55.2135 114.152L55.5781 111.269L56.3883 111.391L55.3756 119.391L54.5249 119.269L53.4716 115.208C53.2691 114.355 53.026 113.421 52.864 112.365H52.8235C52.7425 113.462 52.6615 114.477 52.4589 116.183L52.1348 118.944L51.2437 118.863Z" fill="#292929"/>
<path d="M61.8973 119.351C61.5328 119.472 60.9656 119.635 60.4795 119.594C59.7909 119.594 59.1022 119.391 58.5756 118.782C58.0085 118.173 57.6034 117.036 57.6439 115.574C57.6844 112.447 59.3048 111.391 60.7226 111.391C61.2087 111.391 61.6138 111.513 61.8568 111.635L61.6543 112.406C61.4517 112.285 61.1682 112.203 60.7226 112.203C59.7099 112.203 58.6161 112.975 58.6161 115.493C58.5756 117.97 59.5073 118.782 60.4795 118.823C60.8036 118.823 60.9656 118.782 61.0466 118.741L61.0872 116.102H60.0339V115.33H61.9378L61.8973 119.351Z" fill="#292929"/>
<path d="M66.8398 115.371L64.8143 115.533L65.0979 118.538L67.3664 118.335L67.4474 119.147L64.2472 119.432L63.5181 111.391L66.5967 111.107L66.6778 111.919L64.5308 112.122L64.7738 114.762L66.7993 114.599L66.8398 115.371Z" fill="#292929"/>
<path d="M68.0957 111.025C68.4603 110.863 68.9059 110.701 69.3515 110.619C70.1211 110.457 70.7693 110.538 71.2554 110.863C71.701 111.188 71.9846 111.675 72.1061 112.325C72.3086 113.34 71.944 114.071 71.2149 114.599V114.64C71.8225 114.721 72.2276 115.208 72.6327 116.223C72.9973 117.279 73.3213 117.929 73.4429 118.173L72.5112 118.335C72.3491 118.132 72.0656 117.401 71.7415 116.467C71.3769 115.411 70.9313 115.086 70.1617 115.208L69.7971 115.289L70.4452 118.741L69.554 118.904L68.0957 111.025ZM69.6755 114.518L70.0401 114.437C70.8908 114.274 71.3769 113.543 71.1744 112.569C71.0123 111.635 70.5262 111.147 69.554 111.31C69.392 111.35 69.1894 111.391 69.1084 111.431L69.6755 114.518Z" fill="#292929"/>
<path d="M77.6958 116.995L77.4932 116.427L77.8173 115.371C78.2629 113.868 78.83 112.122 78.3439 110.741C78.0603 109.929 77.5337 109.564 76.8451 109.807C76.3185 110.01 76.0754 110.376 75.9134 110.579L75.4678 110.01C75.6703 109.686 76.0754 109.239 76.7236 109.036C77.9388 108.63 78.7895 109.32 79.1541 110.457C79.6402 111.838 79.1946 113.503 78.7085 115.046L78.4249 115.899V115.939L80.896 115.087L81.1795 115.858L77.6958 116.995Z" fill="#292929"/>
<path d="M84.9875 109.848C86.1622 112.447 85.8382 113.868 84.8254 114.315C83.7317 114.802 82.4759 113.827 81.4227 111.513C80.329 109.117 80.4505 107.533 81.6252 107.005C82.719 106.518 83.9342 107.614 84.9875 109.848ZM82.2329 111.147C83.0025 112.853 83.8532 113.909 84.5419 113.584C85.19 113.259 84.9065 111.959 84.1368 110.254C83.3671 108.589 82.5164 107.492 81.8683 107.777C81.1796 108.101 81.4632 109.442 82.2329 111.147Z" fill="#292929"/>
<path d="M88.2284 112.568L87.9448 112.04L88.0664 110.944C88.2284 109.36 88.4309 107.533 87.7018 106.274C87.2562 105.543 86.6891 105.259 86.0409 105.624C85.5548 105.908 85.3928 106.355 85.2712 106.558L84.7446 106.071C84.8662 105.746 85.1902 105.218 85.7979 104.853C86.9321 104.203 87.8638 104.731 88.4715 105.746C89.2006 107.005 89.0791 108.71 88.917 110.335L88.836 111.228V111.269L91.064 109.969L91.4691 110.66L88.2284 112.568Z" fill="#292929"/>
<path d="M90.5781 102.944L89.9299 104.325L89.3628 103.838L90.1325 102.091L90.7401 101.645L95.3176 107.939L94.5884 108.467L90.5781 102.944Z" fill="#292929"/>
<path d="M9.88411 63.5127H9.27648L8.38528 62.863C7.089 61.929 5.63068 60.8325 4.17236 60.8325C3.32167 60.8325 2.79506 61.198 2.79506 61.929C2.79506 62.4975 3.07862 62.863 3.24066 63.066L2.55201 63.2691C2.30895 62.9848 2.02539 62.4569 2.02539 61.7665C2.02539 60.467 2.9976 59.8985 4.17236 59.8985C5.63068 59.8985 7.04849 60.8731 8.34477 61.8071L9.07394 62.3351H9.11444V59.7361H9.92462L9.88411 63.5127Z" fill="#292929"/>
<path d="M5.91444 56.8934C5.42834 57.5025 4.69918 57.7868 4.05104 57.7462C2.87628 57.6244 2.18763 56.731 2.26865 55.7563C2.34966 54.6599 3.36238 54.1726 4.25358 54.2538C4.94223 54.335 5.54986 54.7005 5.99546 55.4721H6.03597C6.56259 54.7817 7.33225 54.335 8.26396 54.4162C9.47922 54.5381 10.3299 55.4315 10.2084 56.6091C10.0869 57.9086 8.99312 58.4365 8.06141 58.3553C6.92717 58.2335 6.31953 57.5431 5.91444 56.8934ZM4.05104 56.8528C4.8207 56.934 5.2663 56.4873 5.63088 56.0406C5.34732 55.5533 4.86121 55.1878 4.25358 55.1472C3.48391 55.066 2.9573 55.3502 2.91679 55.9188C2.87628 56.3655 3.36238 56.7716 4.05104 56.8528ZM8.18294 55.3096C7.29175 55.2284 6.72462 55.7157 6.27902 56.2436C6.60309 56.8934 7.25124 57.3401 7.89938 57.4213C8.75006 57.5025 9.39821 57.1777 9.47922 56.4873C9.56024 55.9188 9.15515 55.3909 8.18294 55.3096Z" fill="#292929"/>
<path d="M2.71436 51.3704L3.56504 51.5329L3.68657 50.8425L4.13217 50.9237L4.01064 51.6141L6.19812 51.9796C6.68423 52.0608 6.84626 51.8984 6.88677 51.6953C6.88677 51.6141 6.88677 51.5329 6.88677 51.4517L7.33237 51.4923C7.37288 51.6141 7.37288 51.7359 7.33237 51.939C7.29186 52.1826 7.21084 52.3451 7.0083 52.4669C6.80575 52.5887 6.5627 52.6293 6.03608 52.5481L3.92962 52.1826L3.8486 52.6293L3.40301 52.5481L3.48402 52.1014L2.87639 51.9796L2.71436 51.3704Z" fill="#292929"/>
<path d="M2.34961 49.2994L2.47114 48.7309L4.41556 49.1776C4.29404 49.0557 4.21302 48.9339 4.17251 48.8121C4.132 48.6497 4.09149 48.4872 4.132 48.2842C4.25353 47.8375 4.69912 47.5126 5.59032 47.7156L7.98034 48.2436L7.85882 48.8121L5.5093 48.2842C5.0637 48.203 4.61811 48.203 4.53709 48.5684C4.49658 48.8527 4.61811 49.0964 4.98269 49.2588C5.0637 49.2994 5.18523 49.34 5.26625 49.34L7.61576 49.8679L7.49424 50.4365L2.34961 49.2994Z" fill="#292929"/>
<path d="M13.5301 41.5838C13.5301 41.9492 13.4491 42.5584 13.287 43.0457C13.044 43.6954 12.6389 44.264 11.8692 44.5482C11.0995 44.8731 9.88427 44.8731 8.54748 44.3452C5.63084 43.2487 5.14473 41.3807 5.67135 40.0406C5.83338 39.5533 6.07644 39.2284 6.27898 39.0254L6.96763 39.4721C6.8056 39.6345 6.60305 39.8782 6.48153 40.2843C6.11695 41.2183 6.52204 42.5178 8.83104 43.4112C11.1806 44.264 12.2338 43.6548 12.5579 42.7614C12.6794 42.4772 12.6794 42.2741 12.6794 42.1929L10.2083 41.2589L9.84376 42.2335L9.1146 41.9493L9.76274 40.1624L13.5301 41.5838Z" fill="#292929"/>
<path d="M7.2915 36.6294C7.37252 36.2233 7.53456 35.7766 7.7371 35.3705C8.10168 34.6395 8.50677 34.1928 9.07389 33.9898C9.60051 33.8273 10.1676 33.9086 10.7348 34.1928C11.6665 34.6395 12.031 35.3705 12.031 36.2639H12.0716C12.5171 35.8172 13.1653 35.7766 14.178 36.1014C15.2718 36.4263 15.9199 36.5888 16.2035 36.5888L15.7984 37.4415C15.5148 37.4415 14.7856 37.2385 13.8134 36.9542C12.7602 36.6294 12.2336 36.7512 11.869 37.4415L11.6665 37.7664L14.8262 39.3502L14.4211 40.1624L7.2915 36.6294ZM11.0183 37.4415L11.1804 37.1167C11.5854 36.3045 11.2614 35.4923 10.4107 35.0862C9.56 34.6801 8.87135 34.7613 8.42575 35.6547C8.34473 35.8172 8.26372 35.9796 8.26372 36.1014L11.0183 37.4415Z" fill="#292929"/>
<path d="M15.3529 33.2996L17.0948 35.0458L16.6087 35.7768L10.8159 29.8884L11.383 29.0356L19.1202 31.8783L18.6341 32.6499L16.3251 31.7971L15.3529 33.2996ZM15.6365 31.4722L13.692 30.7006C13.1249 30.4976 12.5173 30.2133 11.9502 29.9697V30.0509C12.3958 30.457 12.9224 30.9443 13.3275 31.3098L14.8263 32.7717L15.6365 31.4722Z" fill="#292929"/>
<path d="M19.9303 30.7411L13.6919 25.6649L14.259 24.9746L18.1074 26.2334C18.9986 26.5177 20.0923 26.8832 20.943 27.2081C19.9303 26.4771 19.0796 25.8273 17.9858 24.9339L15.7578 23.1065L16.2845 22.4568L22.5228 27.5735L21.9962 28.2233L18.0263 26.9644C17.1757 26.6801 16.244 26.3959 15.3122 25.9898C16.2034 26.5989 17.0136 27.2487 18.3504 28.3451L20.4974 30.0913L19.9303 30.7411Z" fill="#292929"/>
<path d="M18.229 20.5482C18.391 20.2234 18.6746 19.8985 18.9987 19.5736C19.6063 18.9645 20.1734 18.7208 20.7811 18.6802C21.5912 18.6396 22.6445 19.0457 23.8192 20.264C25.1155 21.6041 25.4801 22.6193 25.4801 23.3909C25.5206 24.2031 25.156 24.934 24.5079 25.5838C24.2243 25.8274 23.9408 26.1117 23.6977 26.2335L18.229 20.5482ZM23.9002 25.0559C24.0218 24.9746 24.1028 24.8934 24.1838 24.8122C24.913 24.0812 25.1155 22.9036 23.2116 20.9137C21.7938 19.4518 20.5785 19.0863 19.6468 19.9797C19.5253 20.0609 19.4443 20.2234 19.3633 20.3046L23.9002 25.0559Z" fill="#292929"/>
<path d="M25.7633 13.8071L30.5839 20.264L29.8547 20.8325L25.0342 14.335L25.7633 13.8071Z" fill="#292929"/>
<path d="M32.083 19.127L27.8701 12.264L28.5993 11.8173L31.84 14.2539C32.5691 14.8224 33.5009 15.5128 34.1895 16.1219C33.4603 15.0661 32.8932 14.2133 32.1641 13.0356L30.6652 10.599L31.3539 10.1523L35.6073 17.0153L34.8782 17.462L31.5159 14.9848C30.8273 14.4569 30.0171 13.8478 29.2474 13.1574H29.2069C29.8551 14.0508 30.3817 14.9036 31.3134 16.3655L32.7717 18.7209L32.083 19.127Z" fill="#292929"/>
<path d="M34.9187 9.17767L33.5819 9.82742L33.2173 9.09645L36.7011 7.39087L37.0656 8.12183L35.7288 8.77158L38.8885 15.3097L38.0784 15.7157L34.9187 9.17767Z" fill="#292929"/>
<path d="M42.8584 9.54325L40.9545 10.2336L42.0077 13.0762L44.1547 12.2641L44.4383 13.0356L41.4406 14.1727L38.605 6.6194L41.4811 5.52295L41.7647 6.29452L39.7392 7.0661L40.6709 9.54325L42.5749 8.8529L42.8584 9.54325Z" fill="#292929"/>
<path d="M43.7495 4.91368C44.1141 4.71063 44.5597 4.54819 45.0053 4.42637C45.775 4.22332 46.3826 4.22332 46.9092 4.50758C47.3953 4.79185 47.6789 5.27916 47.8409 5.8883C48.1245 6.90352 47.8004 7.6751 47.1117 8.24362V8.28423C47.7194 8.28423 48.165 8.77154 48.6106 9.74616C49.0562 10.7614 49.4208 11.4111 49.5828 11.6142L48.6916 11.8578C48.5296 11.6548 48.165 10.9644 47.7599 10.0304C47.3143 9.0152 46.8687 8.69033 46.099 8.89337L45.7344 8.97459L46.6256 12.3858L45.7344 12.6294L43.7495 4.91368ZM45.6129 8.28423L45.9775 8.20302C46.8282 7.95936 47.2333 7.18779 46.9902 6.25378C46.7472 5.36038 46.2206 4.87307 45.2889 5.11672C45.1268 5.15733 44.9648 5.23855 44.8433 5.27916L45.6129 8.28423Z" fill="#292929"/>
<path d="M50.8793 11.33L49.7046 3.33L50.5553 3.20817L52.5807 6.74117C53.0263 7.55335 53.5934 8.56858 53.9985 9.38076H54.039C53.796 8.12188 53.5934 7.10665 53.3909 5.72594L52.9453 2.8833L53.7555 2.76147L54.9302 10.7615L54.0795 10.8833L51.9731 7.26909C51.5275 6.49751 51.0414 5.64472 50.6363 4.71071H50.5958C50.8388 5.76655 51.0009 6.78178 51.2439 8.48736L51.649 11.2488L50.8793 11.33Z" fill="#292929"/>
<path d="M57.6845 8.12156L57.2389 10.5581L56.3477 10.5987L57.887 2.47689L58.8997 2.43628L60.9657 10.4363L60.0745 10.4769L59.4668 8.08095L57.6845 8.12156ZM59.3048 7.30938L58.8187 5.27892C58.6972 4.71039 58.5351 4.06064 58.4136 3.45151H58.3731C58.2921 4.06064 58.2111 4.751 58.13 5.31953L57.7655 7.39059L59.3048 7.30938Z" fill="#292929"/>
<path d="M62.991 3.24887L61.5327 3.16765L61.5732 2.35547L65.4216 2.55851L65.3811 3.3707L63.9227 3.28948L63.5582 10.5585L62.6265 10.5179L62.991 3.24887Z" fill="#292929"/>
<path d="M68.2574 2.8833L67.2447 10.8833L66.313 10.7615L67.3257 2.76147L68.2574 2.8833Z" fill="#292929"/>
<path d="M74.1311 8.04057C73.483 11.005 72.2272 11.939 70.9714 11.6548C69.6751 11.3705 69.0675 9.78676 69.6346 7.14716C70.2017 4.54818 71.417 3.3299 72.7943 3.61417C74.1716 3.89843 74.6577 5.5228 74.1311 8.04057ZM70.5663 7.35021C70.2017 8.97458 70.2017 10.6802 71.174 10.8832C72.1867 11.0862 72.8348 9.42128 73.1589 7.87813C73.483 6.4162 73.564 4.58879 72.5513 4.38574C71.579 4.1827 70.9309 5.72584 70.5663 7.35021Z" fill="#292929"/>
<path d="M74.6982 12.4263L77.2503 4.79175L78.0605 5.07601L78.263 9.13693C78.3035 10.0709 78.344 11.208 78.344 12.142H78.3845C78.7086 10.9237 79.0327 9.9085 79.4783 8.5684L80.41 5.84759L81.1797 6.09124L78.6276 13.7258L77.8174 13.4415L77.6149 9.25875C77.5744 8.36535 77.5339 7.39073 77.5744 6.3349H77.5339C77.2503 7.39073 76.9667 8.36535 76.3996 9.98972L75.5084 12.6293L74.6982 12.4263Z" fill="#292929"/>
<path d="M82.1523 12.6701L80.6534 14.6194L79.8433 14.2539L84.9474 7.71582L85.8791 8.16252L84.0562 16.2437L83.246 15.8376L83.7726 13.4011L82.1523 12.6701ZM83.9752 12.7107L84.4613 10.6803C84.5828 10.1118 84.7853 9.46201 84.9474 8.85288L84.9069 8.81227C84.5423 9.34019 84.1777 9.90871 83.8131 10.3554L82.5574 12.0204L83.9752 12.7107Z" fill="#292929"/>
<path d="M89.4029 9.98999L90.2131 10.4773L86.4863 16.7311L88.4307 17.9088L88.0256 18.5585L85.271 16.9342L89.4029 9.98999Z" fill="#292929"/>
<path d="M91.5503 21.076L95.5607 13.8882L96.2898 14.4973L94.3049 17.9085C93.7783 18.8019 93.2922 19.5735 92.7251 20.3856L92.7656 20.4263C93.4947 19.6953 94.2239 19.1674 95.0341 18.5176L98.1127 16.0405L98.7204 16.5684L96.857 19.9389C96.3709 20.7917 95.9253 21.6039 95.2771 22.5379L95.3176 22.5785C96.1683 21.7664 96.857 21.1978 97.5456 20.5887L100.543 18.0709L101.232 18.6395L94.8315 23.7968L94.1429 23.2283L96.0873 19.7359C96.5329 19.0049 96.9785 18.1928 97.4646 17.4618C96.7759 18.0709 96.1278 18.6801 95.3986 19.208L92.2795 21.6445L91.5503 21.076Z" fill="#292929"/>
<path d="M103.298 20.9542L97.4646 26.5176L96.8164 25.8679L102.65 20.3044L103.298 20.9542Z" fill="#292929"/>
<path d="M98.7607 27.8983L105.04 22.8628L105.566 23.5531L103.541 27.0861C103.095 27.8983 102.488 28.8729 102.001 29.6445C102.933 28.7917 103.743 28.1014 104.837 27.2486L107.106 25.4618L107.632 26.1115L101.353 31.1471L100.827 30.4567L102.893 26.8425C103.338 26.0709 103.824 25.2181 104.432 24.3653C103.622 25.0963 102.852 25.746 101.515 26.8425L99.3279 28.5887L98.7607 27.8983Z" fill="#292929"/>
<path d="M107.146 33.0557L106.052 31.3501L103.5 32.9745L104.756 34.9237L104.068 35.3704L102.326 32.6496L109.091 28.3044L110.752 30.9034L110.063 31.3501L108.888 29.5227L106.66 30.944L107.754 32.6496L107.146 33.0557Z" fill="#292929"/>
<path d="M108.523 38.5786L106.093 39.0659L105.728 38.2538L113.83 36.6294L114.235 37.5634L107.632 42.5177L107.267 41.7055L109.252 40.203L108.523 38.5786ZM109.86 39.7969L111.561 38.5786C112.047 38.2538 112.615 37.8477 113.101 37.5228V37.4822C112.493 37.6446 111.804 37.8071 111.278 37.9289L109.252 38.3756L109.86 39.7969Z" fill="#292929"/>
<path d="M108.28 44.3046L115.531 40.4468L115.815 41.3808L112.291 43.1676C111.359 43.6143 110.549 44.0204 109.617 44.3859V44.4265C110.63 44.2234 111.521 44.1422 112.534 44.0204L116.463 43.5737L116.706 44.3453L113.303 46.1727C112.453 46.6194 111.602 47.0661 110.589 47.5128V47.5534C111.724 47.3503 112.615 47.2285 113.546 47.1067L117.395 46.6194L117.638 47.4722L109.496 48.325L109.252 47.4722L112.777 45.5635C113.546 45.1574 114.357 44.7513 115.167 44.3859V44.3453C114.276 44.5077 113.384 44.6295 112.493 44.7107L108.523 45.0762L108.28 44.3046Z" fill="#292929"/>
<path d="M112.574 51.1676L110.103 51.0457L109.941 50.1523L118.205 50.599L118.367 51.6143L110.751 54.7412L110.589 53.8478L112.858 52.9138L112.574 51.1676ZM113.587 52.6701L115.531 51.8985C116.058 51.6955 116.706 51.4518 117.273 51.2488V51.2082C116.665 51.2082 115.936 51.2082 115.41 51.2082L113.344 51.127L113.587 52.6701Z" fill="#292929"/>
<path d="M118.813 55.675C118.934 56.0811 119.015 56.5278 119.056 56.9745C119.096 57.7867 118.975 58.3959 118.61 58.8426C118.246 59.2486 117.719 59.4517 117.071 59.4923C116.058 59.5735 115.329 59.1268 114.924 58.3146H114.883C114.762 58.9238 114.195 59.2893 113.142 59.5329C112.048 59.7766 111.359 59.9796 111.116 60.1014L111.076 59.1674C111.319 59.0456 112.048 58.8426 113.061 58.5989C114.154 58.3553 114.559 57.9898 114.478 57.1776L114.438 56.8121L110.914 57.0558L110.873 56.1217L118.813 55.675ZM115.167 56.8121L115.208 57.1776C115.248 58.071 115.937 58.5989 116.909 58.5583C117.841 58.5177 118.408 58.071 118.327 57.0964C118.327 56.9339 118.286 56.7309 118.246 56.6091L115.167 56.8121Z" fill="#292929"/>
<path d="M119.055 61.7665C119.136 62.132 119.177 62.5381 119.177 63.0254C119.136 63.8782 118.893 64.4467 118.488 64.8934C117.921 65.5026 116.868 65.9087 115.167 65.8274C113.344 65.7462 112.331 65.2589 111.804 64.731C111.237 64.1625 110.994 63.3909 111.035 62.4569C111.035 62.0914 111.075 61.6853 111.156 61.4417L119.055 61.7665ZM111.845 62.4163C111.804 62.5381 111.804 62.6599 111.804 62.7818C111.764 63.797 112.452 64.8122 115.167 64.934C117.192 65.0153 118.326 64.4467 118.407 63.1472C118.407 62.9848 118.407 62.8224 118.367 62.7005L111.845 62.4163Z" fill="#292929"/>
<path d="M40.5087 76.1421C40.7517 76.3046 41.1974 76.4264 41.5619 76.4264C42.2506 76.4264 42.6152 76.0203 42.6152 75.4518C42.6152 74.8833 42.2911 74.5584 41.724 74.1929C40.9543 73.7056 40.4277 73.0152 40.4277 72.2437C40.4277 71.1472 41.1568 70.2944 42.4531 70.2944C42.8987 70.2944 43.3038 70.4163 43.4658 70.5381L43.2633 71.4721C43.0608 71.3503 42.7772 71.2284 42.4126 71.2284C41.805 71.2284 41.4809 71.6345 41.4809 72.0812C41.4809 72.6092 41.7645 72.8528 42.4531 73.2995C43.3443 73.868 43.6684 74.5584 43.6684 75.2894C43.6684 76.5482 42.7772 77.3198 41.5619 77.3198C41.0353 77.3198 40.5087 77.1574 40.3062 77.0355L40.5087 76.1421Z" fill="#292929"/>
<path d="M44.519 73.8681C44.519 73.1777 44.4785 72.731 44.4785 72.2843H45.4507L45.5317 72.8935H45.5723C45.8153 72.4062 46.1799 72.2031 46.6255 72.2031C47.6382 72.2031 48.1243 73.259 48.1243 74.7615C48.1243 76.5889 47.3546 77.3605 46.5445 77.3605C46.0989 77.3605 45.8558 77.0762 45.6938 76.8326H45.6533V79.2285H44.5595V73.8681H44.519ZM45.6128 75.4925C45.6128 75.6549 45.6533 75.8173 45.6533 75.8986C45.7748 76.3859 46.0584 76.4671 46.2204 76.4671C46.7875 76.4671 46.9496 75.6955 46.9496 74.8021C46.9496 73.7869 46.7065 73.1371 46.2204 73.1371C45.9368 73.1371 45.6938 73.462 45.6533 73.7869C45.6128 73.9087 45.6128 74.0305 45.6128 74.1524V75.4925Z" fill="#292929"/>
<path d="M48.894 73.7057C48.894 73.259 48.8535 72.731 48.8535 72.2843H49.8257L49.9067 73.0153H49.9473C50.1498 72.528 50.5549 72.2031 50.96 72.2031C51.0815 72.2031 51.122 72.2031 51.203 72.2437V73.3402C51.122 73.3402 51.041 73.3402 50.96 73.3402C50.5954 73.3402 50.1903 73.6651 50.0688 74.193C50.0283 74.3148 50.0283 74.4772 50.0283 74.6803V77.3199H48.9345V73.7057H48.894Z" fill="#292929"/>
<path d="M52.2161 71.6345C51.892 71.6345 51.6489 71.3908 51.6489 70.9847C51.6489 70.5786 51.9325 70.335 52.2161 70.335C52.5806 70.335 52.8237 70.5786 52.8237 70.9847C52.7832 71.3908 52.5401 71.6345 52.2161 71.6345ZM51.6894 77.3197V72.3248H52.7832V77.3197H51.6894Z" fill="#292929"/>
<path d="M53.7553 73.7057C53.7553 73.1371 53.7148 72.731 53.7148 72.2843H54.6871L54.7276 72.8529H54.7681C55.0111 72.4468 55.4162 72.2031 55.9428 72.2031C56.7935 72.2031 57.2391 72.8529 57.2391 74.0305V77.3199H56.1454V74.1524C56.1454 73.6651 56.0238 73.1777 55.5782 73.1777C55.2947 73.1777 55.0516 73.3808 54.9706 73.7869C54.9301 73.9087 54.9301 74.0711 54.9301 74.2336V77.3199H53.8364V73.7057H53.7553Z" fill="#292929"/>
<path d="M61.5736 76.7108C61.5736 77.8885 61.371 78.457 61.0065 78.8225C60.6824 79.188 60.1558 79.3504 59.5076 79.3504C59.062 79.3504 58.6164 79.2692 58.3329 79.1068L58.5759 78.254C58.819 78.3758 59.1025 78.457 59.5076 78.457C60.1558 78.457 60.4798 78.0509 60.4798 77.1169V76.7108C60.3178 77.0763 59.9532 77.2387 59.5481 77.2387C58.5354 77.2387 58.0493 76.1017 58.0493 74.8022C58.0493 73.056 58.819 72.1626 59.6697 72.1626C60.1153 72.1626 60.3988 72.4469 60.6014 72.7717H60.6419L60.7229 72.2438H61.6951C61.6546 72.6499 61.6546 73.1372 61.6546 73.8276V76.7108H61.5736ZM60.4798 74.0712C60.4798 73.9494 60.4393 73.787 60.4393 73.7057C60.3583 73.4215 60.1963 73.1372 59.8722 73.1372C59.3456 73.1372 59.1025 73.8276 59.1025 74.8022C59.1025 75.8986 59.4266 76.4266 59.8317 76.4266C60.0342 76.4266 60.2773 76.3047 60.3988 75.8986C60.4393 75.7768 60.4798 75.6144 60.4798 75.4925V74.0712Z" fill="#292929"/>
<path d="M63.9634 77.3198V76.5889L64.571 75.7767C65.3812 74.6802 66.1914 73.6244 66.1914 72.5279C66.1914 71.9188 65.8673 71.4721 65.3002 71.4721C64.8546 71.4721 64.5305 71.6751 64.328 71.8376L64.1254 70.9848C64.409 70.7817 64.8951 70.5381 65.5027 70.5381C66.799 70.5381 67.2851 71.4315 67.2851 72.4467C67.2851 73.7056 66.4749 74.802 65.7053 75.7767L65.3002 76.3046V76.3452H67.4066V77.3198H63.9634Z" fill="#292929"/>
<path d="M69.9591 77.401C68.7034 77.401 68.1362 75.9391 68.1362 73.9899C68.1362 71.9188 68.7844 70.5381 70.0402 70.5381C71.3769 70.5381 71.8225 72.0812 71.8225 73.9493C71.782 76.3858 70.9719 77.401 69.9591 77.401ZM69.9996 76.467C70.5263 76.467 70.6883 75.533 70.6883 73.9899C70.6883 72.4873 70.4857 71.5127 69.9591 71.5127C69.4325 71.5127 69.1895 72.4061 69.1895 73.9899C69.23 75.5736 69.4325 76.467 69.9996 76.467Z" fill="#292929"/>
<path d="M72.3491 77.3198V76.5889L72.9568 75.7767C73.7669 74.6802 74.5771 73.6244 74.5771 72.5279C74.5771 71.9188 74.253 71.4721 73.6859 71.4721C73.2403 71.4721 72.9162 71.6751 72.7137 71.8376L72.5112 70.9848C72.7947 70.7817 73.2808 70.5381 73.8885 70.5381C75.1847 70.5381 75.6708 71.4315 75.6708 72.4467C75.6708 73.7056 74.8607 74.802 74.091 75.7767L73.6859 76.3046V76.3452H75.7924V77.3198H72.3491Z" fill="#292929"/>
<path d="M78.101 71.7158L76.9667 72.3249L76.7642 71.4721L78.2225 70.6599H79.1542V77.3198H78.0604V71.7158H78.101Z" fill="#292929"/>
<path d="M60.3581 122.436C45.9775 122.436 32.7716 117.482 22.2798 109.238L13.6919 152H107.916L99.6517 108.304C88.9574 117.117 75.3059 122.436 60.3581 122.436Z" fill="#D2A041"/>
<path d="M37.2275 127.594C37.6326 127.513 38.1187 127.432 38.6859 127.432C39.3745 127.432 40.0227 127.553 40.4682 127.96C40.8328 128.284 40.9949 128.772 40.9949 129.3C40.9949 129.99 40.6303 130.64 39.9011 130.965V131.005C40.7518 131.249 41.2379 131.939 41.2379 132.833C41.2379 133.442 41.0354 133.929 40.7113 134.295C40.2657 134.782 39.5365 135.026 38.4833 135.026C37.9162 135.026 37.5111 134.985 37.2275 134.944V127.594ZM38.4023 130.599H38.7264C39.334 130.599 39.8201 130.112 39.8201 129.421C39.8201 128.812 39.5365 128.325 38.8074 128.325C38.6454 128.325 38.4833 128.325 38.4023 128.366V130.599ZM38.4023 134.051C38.4833 134.092 38.6048 134.092 38.7669 134.092C39.496 134.092 40.0227 133.645 40.0227 132.792C40.0227 131.899 39.415 131.452 38.7264 131.452H38.4023V134.051Z" fill="#292929"/>
<path d="M43.1421 132.589C43.1421 133.807 43.7092 134.132 44.3573 134.132C44.7624 134.132 45.0865 134.051 45.3295 133.929L45.4916 134.782C45.1675 134.944 44.6409 135.025 44.1548 135.025C42.737 135.025 42.0078 134.01 42.0078 132.345C42.0078 130.558 42.8585 129.462 44.0333 129.462C45.1675 129.462 45.7346 130.477 45.7346 131.939C45.7346 132.264 45.7346 132.426 45.6941 132.589H43.1421ZM44.6004 131.736C44.6004 130.883 44.3168 130.355 43.9117 130.355C43.3851 130.355 43.1826 131.086 43.1421 131.736H44.6004Z" fill="#292929"/>
<path d="M46.4638 133.848C46.6663 133.97 47.0309 134.132 47.3955 134.132C47.8005 134.132 48.0841 133.929 48.0841 133.523C48.0841 133.198 47.9221 132.954 47.436 132.629C46.6258 132.142 46.3422 131.614 46.3422 131.086C46.3422 130.152 47.0309 129.462 48.0031 129.462C48.4487 129.462 48.7728 129.584 49.0158 129.746L48.7728 130.64C48.5702 130.518 48.3272 130.396 48.0436 130.396C47.6385 130.396 47.436 130.68 47.436 130.964C47.436 131.249 47.5575 131.411 48.0841 131.736C48.8133 132.183 49.1778 132.711 49.1778 133.401C49.1778 134.497 48.4082 135.066 47.3955 135.066C46.9904 135.066 46.4638 134.944 46.2207 134.741L46.4638 133.848Z" fill="#292929"/>
<path d="M51.4059 128.203V129.543H52.4591V130.396H51.4059V133.198C51.4059 133.848 51.649 134.051 51.973 134.051C52.0946 134.051 52.2161 134.051 52.3376 134.01L52.3781 134.944C52.2161 134.985 51.9325 135.025 51.6085 135.025C51.2439 135.025 50.8793 134.944 50.6362 134.701C50.3527 134.416 50.2311 134.051 50.2311 133.239V130.396H49.583V129.543H50.2311V128.609L51.4059 128.203Z" fill="#292929"/>
<path d="M56.6314 135.066C55.4972 135.066 54.687 134.091 54.687 132.264C54.687 130.274 55.6592 129.462 56.672 129.462C57.8062 129.462 58.5759 130.437 58.5759 132.264C58.5759 134.457 57.4416 135.066 56.6314 135.066ZM56.672 134.132C57.2796 134.132 57.4011 133.076 57.4011 132.223C57.4011 131.452 57.2796 130.355 56.672 130.355C56.0238 130.355 55.9023 131.452 55.9023 132.223C55.9023 133.157 56.0238 134.132 56.672 134.132Z" fill="#292929"/>
<path d="M59.6696 134.985V130.437H58.9404V129.543H59.6696V129.259C59.6696 128.65 59.7911 128.081 60.1962 127.635C60.5203 127.31 60.9659 127.147 61.4115 127.147C61.7355 127.147 62.0191 127.188 62.1811 127.269L62.0191 128.203C61.8976 128.162 61.7355 128.122 61.5735 128.122C61.0469 128.122 60.8443 128.65 60.8443 129.218V129.503H61.8166V130.355H60.8849V134.904H59.6696V134.985Z" fill="#292929"/>
<path d="M64.0443 133.685C64.3279 133.848 64.814 133.969 65.1786 133.969C65.9077 133.969 66.3128 133.563 66.3128 132.914C66.3128 132.304 65.9482 131.98 65.3406 131.533C64.4899 131.005 63.9228 130.233 63.9228 129.421C63.9228 128.244 64.6925 127.31 66.1103 127.31C66.5964 127.31 67.0015 127.472 67.204 127.594L67.0015 128.609C66.7989 128.487 66.4749 128.365 66.0698 128.365C65.3811 128.365 65.057 128.812 65.057 129.259C65.057 129.827 65.3406 130.112 66.1103 130.599C67.042 131.208 67.4471 131.939 67.4471 132.751C67.4471 134.091 66.4749 134.944 65.1381 134.944C64.5709 134.944 64.0038 134.782 63.8013 134.619L64.0443 133.685Z" fill="#292929"/>
<path d="M68.3789 127.269H69.5537V130.112H69.5942C69.7157 129.909 69.8777 129.787 70.0803 129.665C70.2828 129.543 70.5259 129.462 70.8094 129.462C71.6601 129.462 72.1462 130.193 72.1462 131.533V134.944H70.9715V131.574C70.9715 130.964 70.8499 130.437 70.3638 130.437C70.0398 130.437 69.7967 130.64 69.6752 131.086C69.6347 131.168 69.6347 131.371 69.6347 131.492V134.904H68.4599V127.269H68.3789Z" fill="#292929"/>
<path d="M74.901 135.066C73.7667 135.066 72.9565 134.091 72.9565 132.264C72.9565 130.274 73.9288 129.462 74.9415 129.462C76.0757 129.462 76.8454 130.437 76.8454 132.264C76.8454 134.457 75.7111 135.066 74.901 135.066ZM74.9415 134.132C75.5491 134.132 75.6706 133.076 75.6706 132.223C75.6706 131.452 75.5491 130.355 74.9415 130.355C74.2933 130.355 74.1718 131.452 74.1718 132.223C74.1718 133.157 74.3338 134.132 74.9415 134.132Z" fill="#292929"/>
<path d="M78.4657 129.543L78.8708 132.02C78.9518 132.589 79.0329 133.157 79.1139 133.685H79.1544C79.2354 133.157 79.3569 132.548 79.4785 132.02L80.0051 129.503H80.8963L81.4229 131.939C81.5444 132.548 81.6659 133.117 81.747 133.645H81.7875C81.828 133.117 81.9495 132.548 82.0305 131.939L82.4356 129.462H83.6104L82.2331 134.863H81.2203L80.7342 132.63C80.6127 132.102 80.5317 131.574 80.4507 130.965H80.4102C80.3291 131.614 80.2076 132.142 80.0861 132.63L79.5595 134.822H78.5468L77.21 129.421H78.4657V129.543Z" fill="#292929"/>
<path d="M48.4888 138.03C48.9344 137.949 49.5015 137.868 50.0686 137.868C50.8788 137.868 51.608 137.99 52.0535 138.436C52.4991 138.843 52.6612 139.33 52.6612 139.98C52.6612 140.792 52.2561 141.523 51.4864 141.848V141.888C52.013 142.091 52.2561 142.579 52.3776 143.391C52.5397 144.244 52.7017 145.137 52.8637 145.421H51.3244C51.2434 145.218 51.0408 144.447 50.9598 143.634C50.8383 142.7 50.5952 142.457 50.1091 142.457H49.9471V145.462H48.4888V138.03ZM49.9471 141.279H50.2306C50.8788 141.279 51.2029 140.751 51.2029 140.101C51.2029 139.452 50.9598 139.005 50.3117 139.005C50.1901 139.005 50.0281 139.005 49.9471 139.046V141.279Z" fill="#292929"/>
<path d="M57.5226 143.756C57.5226 144.325 57.5631 144.893 57.5631 145.421H56.3073L56.2263 144.853H56.1858C55.9427 145.218 55.4971 145.502 54.93 145.502C53.9173 145.502 53.4717 144.731 53.4717 143.269V139.98H54.93V143.106C54.93 143.837 55.092 144.284 55.4566 144.284C55.6997 144.284 55.8617 144.081 55.9427 143.919C55.9832 143.797 56.0237 143.634 56.0237 143.431V139.939H57.4821V143.756H57.5226Z" fill="#292929"/>
<path d="M58.5356 144.081C58.7381 144.203 59.1432 144.365 59.5078 144.365C59.8723 144.365 60.1154 144.203 60.1154 143.878C60.1154 143.594 59.9534 143.431 59.4673 143.147C58.5761 142.66 58.3735 142.091 58.3735 141.604C58.3735 140.629 59.0622 139.898 60.1559 139.898C60.6015 139.898 60.9661 140.02 61.2496 140.142L61.0066 141.198C60.8041 141.076 60.5205 140.995 60.2369 140.995C59.8723 140.995 59.7103 141.198 59.7103 141.442C59.7103 141.685 59.8318 141.848 60.3585 142.132C61.1686 142.579 61.4522 143.147 61.4522 143.756C61.4522 144.853 60.642 145.462 59.5483 145.462C59.1027 145.462 58.5761 145.34 58.333 145.137L58.5356 144.081Z" fill="#292929"/>
<path d="M62.1405 144.081C62.3431 144.203 62.7482 144.365 63.1127 144.365C63.4773 144.365 63.7204 144.203 63.7204 143.878C63.7204 143.594 63.5583 143.431 63.0722 143.147C62.181 142.66 61.9785 142.091 61.9785 141.604C61.9785 140.629 62.6671 139.898 63.7609 139.898C64.2065 139.898 64.5711 140.02 64.8546 140.142L64.6116 141.198C64.409 141.076 64.1255 140.995 63.8419 140.995C63.4773 140.995 63.3153 141.198 63.3153 141.442C63.3153 141.685 63.4368 141.848 63.9634 142.132C64.7736 142.579 65.0572 143.147 65.0572 143.756C65.0572 144.853 64.247 145.462 63.1533 145.462C62.7077 145.462 62.181 145.34 61.938 145.137L62.1405 144.081Z" fill="#292929"/>
<path d="M66.4748 139.33C66.0697 139.33 65.7456 139.005 65.7456 138.559C65.7456 138.071 66.0697 137.746 66.4748 137.746C66.8799 137.746 67.2039 138.071 67.2039 138.559C67.2444 139.005 66.9204 139.33 66.4748 139.33ZM65.7861 145.421V139.98H67.2444V145.421H65.7861Z" fill="#292929"/>
<path d="M71.903 144.162C71.903 144.609 71.9435 145.056 71.984 145.421H70.6877L70.6067 144.893H70.5662C70.2826 145.299 69.837 145.502 69.3509 145.502C68.5407 145.502 67.9331 144.812 67.9331 143.837C67.9331 142.416 69.1889 141.807 70.4041 141.807V141.726C70.4041 141.279 70.1611 140.995 69.6345 140.995C69.1889 140.995 68.8648 141.117 68.5407 141.32L68.2572 140.345C68.5812 140.183 69.1889 139.939 69.9585 139.939C71.6194 139.939 71.8625 141.076 71.8625 142.213V144.162H71.903ZM70.4852 142.782C69.9991 142.782 69.3509 142.944 69.3509 143.716C69.3509 144.244 69.6345 144.447 69.8775 144.447C70.1206 144.447 70.3636 144.325 70.4852 143.959C70.5257 143.878 70.5257 143.797 70.5257 143.716V142.782H70.4852Z" fill="#292929"/>
</svg>
