<svg width="735" height="445" viewBox="0 0 735 445" fill="none" xmlns="http://www.w3.org/2000/svg">
<path d="M695.75 235.237C695.207 238.917 694.751 241.205 694.639 241.748C693.383 247.664 691.794 253.505 689.881 259.242C686.408 269.652 681.961 279.711 676.598 289.285C674.111 293.732 671.44 298.097 668.585 302.379C666.545 305.443 664.413 308.461 662.187 311.434C653.535 322.946 643.865 333.657 633.294 343.437C631.199 345.388 629.066 347.313 626.896 349.212C621.258 354.155 615.37 358.922 609.231 363.514C607.738 364.641 606.229 365.756 604.705 366.857C603.673 367.601 602.625 368.345 601.578 369.089C600.77 369.657 599.954 370.225 599.139 370.792C598.203 371.44 597.259 372.088 596.316 372.712C589.582 377.287 582.63 381.657 575.459 385.822C575.22 385.966 574.972 386.102 574.732 386.238C573.228 387.118 571.725 387.974 570.205 388.814C566.911 390.68 563.579 392.488 560.209 394.237C559.945 394.373 559.681 394.517 559.41 394.653C553.124 397.94 546.721 401.068 540.201 404.035C538.457 404.835 536.706 405.627 534.947 406.395C530.74 408.251 526.494 410.045 522.207 411.778C520.08 412.642 517.953 413.482 515.81 414.306C507.226 417.625 498.539 420.686 489.748 423.488C487.716 424.136 485.68 424.768 483.638 425.384C476.257 427.632 468.838 429.69 461.382 431.559C453.081 433.647 444.77 435.494 436.448 437.102C414.898 441.325 393.055 443.876 371.112 444.733C353.649 445.332 336.165 444.883 318.756 443.389C311.542 442.781 304.257 442.003 296.9 441.053C282.817 439.238 268.558 436.774 254.38 433.631C252.988 433.327 251.605 433.007 250.213 432.687C248.966 432.399 247.726 432.103 246.479 431.799C246.039 431.703 245.599 431.591 245.159 431.487C243.712 431.135 242.272 430.775 240.825 430.407C233.907 428.647 227.035 426.722 220.208 424.632C219.097 424.296 217.985 423.952 216.882 423.608V423.6C216.234 423.4 215.594 423.2 214.954 422.992C214.651 422.896 214.355 422.8 214.059 422.704C213.515 422.52 212.963 422.344 212.411 422.16C211.7 421.928 210.996 421.688 210.284 421.449C200.664 418.241 191.195 414.674 182.007 410.746C181.423 410.498 180.847 410.25 180.263 409.994C177.552 408.826 174.868 407.624 172.21 406.387C164.389 402.747 156.811 398.836 149.475 394.653C149.467 394.653 149.459 394.651 149.452 394.646C149.444 394.642 149.439 394.636 149.435 394.629C149.203 394.501 148.971 394.373 148.739 394.237C143.805 391.405 139.01 388.44 134.353 385.342C133.489 384.774 132.625 384.198 131.77 383.614C130.106 382.479 128.467 381.327 126.851 380.159C125.7 379.327 124.556 378.487 123.421 377.639C122.157 376.696 120.91 375.744 119.67 374.768C117.991 373.472 116.341 372.147 114.72 370.792C109.207 366.232 103.95 361.369 98.9738 356.227C96.7667 353.947 94.6341 351.619 92.5762 349.244C79.869 334.598 69.9447 318.129 63.675 299.731C63.3712 298.828 63.0673 297.916 62.7794 297.004C61.9797 294.476 61.236 291.909 60.5722 289.285L60.5242 289.117C59.162 283.781 58.0783 278.377 57.2774 272.928C56.6057 268.432 56.1179 263.857 55.814 259.242C55.1789 249.825 55.2912 240.373 56.1499 230.974C59.3007 196.412 72.6317 162.657 97.5424 141.804C118.447 124.295 146.196 116.96 172.21 114.504C172.378 114.48 172.554 114.472 172.73 114.456C206.454 111.345 237.146 116.4 246.015 118.024C276.883 123.695 304.857 135.917 351.279 130.694C355.006 130.27 367.793 128.734 391.105 122.327C391.608 122.191 392.12 122.047 392.64 121.903C394.887 121.279 397.078 120.65 399.213 120.015C465.365 100.522 480.735 79.0778 519.84 69.1353C522.551 68.4394 525.366 67.8155 528.253 67.2476C532.556 66.4158 537.034 65.7199 541.648 65.1999C579.746 60.9046 626.784 68.1275 658.644 97.6269C689.857 126.526 697.39 168.328 697.974 199.499C698.204 211.452 697.46 223.405 695.75 235.237Z" fill="#E6EDFA"/>
<path d="M599.143 370.789C552.354 403.177 494.186 425.932 436.456 437.103C414.904 441.32 393.059 443.87 371.115 444.731C353.651 445.326 336.167 444.878 318.757 443.39C293.955 441.32 269.351 437.338 245.162 431.481C234.686 428.931 224.289 426.009 214.066 422.701C213.518 422.521 212.965 422.345 212.416 422.161C202.057 418.758 191.882 414.957 182.011 410.745C181.428 410.496 180.85 410.248 180.271 409.995C177.56 408.825 174.874 407.621 172.212 406.383C151.057 396.544 131.507 384.729 114.722 370.788L599.143 370.789Z" fill="#D8DFF3"/>
<path d="M695.758 235.234C695.214 238.914 694.755 241.203 694.638 241.743C673.002 343.807 553.817 414.391 436.454 437.103C436.454 436.703 436.44 436.293 436.402 435.89C436.144 433.151 434.868 430.623 434.255 427.941C431.835 417.429 439.962 407.23 449.178 401.625C458.394 396.021 469.155 393.042 477.668 386.417C473.255 383.049 476.743 376.019 480.723 372.151C490.213 362.954 501.554 355.885 513.99 351.415C511.991 335.795 529.127 321.084 544.254 325.419C544.353 321.593 545.809 317.926 548.363 315.075C550.917 312.225 554.402 310.376 558.194 309.86C561.987 309.344 565.838 310.195 569.061 312.259C572.284 314.324 574.666 317.468 575.783 321.13C576.428 315.652 577.965 310.316 580.333 305.335C582.402 300.98 588.88 301.314 590.401 305.887C590.408 305.919 590.418 305.95 590.431 305.981C595.448 295.881 611.223 293.537 618.96 301.742C616.261 291.689 628.368 281.198 637.931 285.303C633.347 278.567 632.105 269.157 636.432 262.248C640.759 255.34 651.277 252.594 657.57 257.769C653.098 250.141 658.731 238.759 667.51 237.692C671.988 237.148 676.438 238.875 680.95 238.991C683.284 239.043 685.585 238.425 687.579 237.21C690.009 235.659 692.887 234.964 695.758 235.234Z" fill="#CAD4EF"/>
<path d="M541.446 105.284C541.446 125.091 513.307 141.194 478.35 141.558C477.943 141.567 477.54 141.567 477.133 141.567C474.635 141.567 472.175 141.482 469.755 141.327C463.424 147.475 455.168 151.253 446.377 152.025C437.587 152.797 428.799 150.516 421.493 145.567C421.304 145.443 421.124 145.314 420.94 145.186C420.983 145.447 421.02 145.713 421.051 145.979V145.982C421.149 146.789 421.198 147.6 421.198 148.413C421.198 157.733 414.968 166.231 404.729 172.654C403.773 173.258 402.779 173.837 401.755 174.398C393.876 178.73 384.036 181.931 373.059 183.529V183.534C371.898 183.701 370.735 183.85 369.571 183.98C368.607 184.091 367.638 184.185 366.671 184.271H366.666C357.742 185.04 348.759 184.753 339.902 183.414C339.902 183.409 339.902 183.41 339.898 183.41C339.645 183.371 339.397 183.329 339.144 183.289C328.193 181.52 318.432 178.156 310.713 173.665C302.817 169.076 297.055 163.308 294.335 156.876C293.285 156.914 292.236 156.944 291.173 156.944C290.235 156.944 289.301 156.927 288.374 156.893C284.54 156.764 280.721 156.342 276.952 155.629C276.202 155.488 275.46 155.333 274.728 155.166H274.724C268.325 153.81 262.206 151.365 256.635 147.937C255.318 149.057 253.94 150.106 252.51 151.078C250.549 152.408 248.509 153.618 246.401 154.699C245.681 155.071 244.944 155.435 244.19 155.783C243.26 156.224 242.305 156.644 241.332 157.047H241.323C239.682 157.737 237.99 158.371 236.233 158.963C226.294 162.201 215.898 163.818 205.445 163.753H205.076C196.338 163.702 187.976 160.192 181.819 153.99C175.662 147.787 172.212 139.399 172.224 130.658V114.501C172.396 114.479 172.571 114.467 172.743 114.454C206.468 111.342 237.161 116.395 246.03 118.024C276.898 123.688 304.87 135.91 351.294 130.686C355.022 130.267 367.806 128.728 391.119 122.321C391.625 122.185 392.134 122.043 392.653 121.897C394.898 121.272 397.09 120.643 399.23 120.011C465.375 100.518 480.751 79.0745 519.85 69.1288C522.569 68.4383 525.373 67.8098 528.264 67.2435C528.515 72.1597 527.731 77.0737 525.963 81.6677C534.746 87.4396 540.363 94.7801 541.309 102.849C541.404 103.657 541.45 104.47 541.446 105.284Z" fill="#CAD4EF"/>
<path d="M442.74 120.012C442.74 120.012 442.727 120.055 442.706 120.141C442.517 120.781 441.626 123.805 439.968 128.681C438.798 132.114 437.249 136.468 435.285 141.559C434.222 144.324 433.035 147.295 431.725 150.473C423.221 171.099 413.058 191.001 401.336 209.984C400.865 210.747 400.385 211.512 399.897 212.28C395.746 218.862 391.26 225.513 386.428 232.139C386.427 232.142 386.427 232.145 386.425 232.148C386.424 232.151 386.421 232.154 386.419 232.156C386.111 232.58 385.797 233.004 385.485 233.424C385.117 233.926 384.743 234.431 384.365 234.933C383.894 235.566 383.42 236.199 382.943 236.831C382.943 236.831 382.943 236.831 382.935 236.84C372.748 250.397 361.395 263.038 349.006 274.618C321.326 300.331 297.127 329.554 277.022 361.544C277.022 361.544 277.022 361.544 277.022 361.552C276.542 362.315 276.071 363.078 275.604 363.832C270.409 372.275 265.862 380.388 261.96 387.987V387.995C261.698 388.496 261.446 388.994 261.197 389.486C252.371 406.924 247.029 421.612 245.165 431.48C234.689 428.93 224.293 426.008 214.07 422.7C213.521 422.52 212.969 422.344 212.42 422.16C202.061 418.757 191.885 414.956 182.015 410.744C181.432 410.495 180.853 410.246 180.274 409.993C177.563 408.824 174.877 407.619 172.216 406.381V336.966C193.775 305.949 225.457 270.806 271.859 236.341C274.762 234.187 276.934 231.192 278.08 227.762C279.225 224.332 279.289 220.633 278.263 217.165C278.255 217.131 278.242 217.092 278.234 217.058C276.897 212.554 275.243 207.266 273.405 202.059C272.369 199.128 271.1 196.284 269.61 193.556C269.609 193.553 269.609 193.55 269.61 193.547C269.395 193.14 269.168 192.737 268.936 192.339C268.704 191.94 268.479 191.539 268.238 191.148C268.238 191.148 268.238 191.148 268.238 191.139C264.835 185.511 260.518 180.488 255.466 176.278C249.979 171.701 243.033 165.639 236.265 158.991L236.234 158.961C233.625 156.402 231.042 153.762 228.578 151.076C225.918 148.222 223.396 145.248 221.012 142.154C220.156 141.049 219.319 139.927 218.502 138.79C214.791 133.536 212.097 128.454 211.137 123.938C217.141 124.604 223.194 123.22 228.312 120.012L236.505 130.122L243.142 138.315L246.686 142.685C247.08 143.19 247.62 143.56 248.233 143.745C248.846 143.93 249.501 143.92 250.108 143.718C250.649 143.527 251.124 143.185 251.478 142.734C251.832 142.283 252.051 141.74 252.108 141.169L252.747 134.728L252.974 132.44L253.334 128.848C254.883 130.087 256.614 131.079 258.467 131.788C262.002 133.202 265.781 133.909 269.589 133.868C270.004 133.868 270.428 133.859 270.861 133.842C270.896 133.842 270.93 133.842 270.964 133.842H270.972C273.465 133.73 275.94 133.372 278.362 132.775C279.713 137.471 281.318 142.091 283.169 146.613C284.592 150.188 286.334 153.627 288.376 156.889C289.497 158.73 290.922 160.367 292.591 161.731C294.836 163.415 298.05 167.512 301.49 172.504C301.489 172.505 301.489 172.506 301.489 172.506C301.489 172.507 301.489 172.508 301.49 172.509C301.91 173.117 302.331 173.738 302.754 174.373C304.69 177.252 306.673 180.351 308.563 183.411C311.622 188.343 314.459 193.164 316.554 196.785C316.908 197.398 317.38 197.936 317.942 198.367C318.504 198.798 319.145 199.114 319.83 199.297C320.514 199.48 321.228 199.527 321.93 199.434C322.632 199.341 323.309 199.111 323.922 198.757C324.346 198.51 324.735 198.207 325.079 197.857C326.283 196.623 327.675 195.196 329.218 193.606C329.219 193.6 329.222 193.596 329.227 193.593L330.362 192.417H330.367C332.904 189.798 335.791 186.799 338.905 183.534L339.137 183.289C344.975 177.166 351.583 170.133 358.117 162.977C359.53 161.43 360.938 159.879 362.341 158.323C373.616 145.815 384.092 133.447 389.28 125.391C389.28 125.391 389.285 125.391 389.285 125.383C389.619 124.868 389.925 124.368 390.218 123.887C390.549 123.343 390.844 122.821 391.11 122.323C391.615 122.186 392.125 122.045 392.644 121.899C394.889 121.274 397.081 120.645 399.22 120.013L442.74 120.012Z" fill="#D8DFF3"/>
<path d="M424.555 125.202C422.142 133.676 419.217 141.996 415.797 150.116H415.792C412.546 157.837 408.852 165.362 404.731 172.652C401.787 177.878 398.625 182.977 395.244 187.951C394.735 188.697 394.224 189.444 393.711 190.19C390.039 195.529 386.243 201.053 384.427 207.25C383.416 210.805 383.018 214.506 383.249 218.195C383.251 218.217 383.256 218.239 383.266 218.259C383.275 218.281 383.289 218.301 383.306 218.317C383.323 218.334 383.344 218.347 383.366 218.356C383.388 218.365 383.412 218.369 383.436 218.369C383.46 218.368 383.484 218.363 383.506 218.353C389.491 215.701 395.359 212.827 401.11 209.731C401.137 209.716 401.168 209.709 401.199 209.709C401.231 209.709 401.262 209.716 401.289 209.731C401.31 209.743 401.328 209.76 401.342 209.779C401.356 209.798 401.366 209.82 401.371 209.843C401.376 209.867 401.376 209.891 401.372 209.914C401.368 209.938 401.359 209.96 401.345 209.98C400.874 210.743 400.394 211.508 399.906 212.276C399.884 212.299 399.862 212.321 399.838 212.341C394.495 215.157 389.061 217.778 383.536 220.205C383.501 220.221 383.471 220.247 383.452 220.281C383.433 220.315 383.425 220.354 383.429 220.393C383.905 224.374 384.92 228.272 386.445 231.98C386.456 232.005 386.46 232.032 386.459 232.059C386.457 232.085 386.45 232.111 386.437 232.135C386.436 232.138 386.436 232.141 386.434 232.144C386.433 232.147 386.43 232.15 386.428 232.152C386.12 232.576 385.806 233 385.494 233.42C385.476 233.447 385.451 233.468 385.421 233.48C385.377 233.498 385.327 233.499 385.282 233.481C385.237 233.464 385.201 233.429 385.181 233.386C383.508 229.498 382.374 225.4 381.81 221.205C381.81 221.188 381.805 221.171 381.796 221.157C381.787 221.136 381.774 221.116 381.758 221.1C381.741 221.084 381.721 221.071 381.7 221.062C381.679 221.053 381.656 221.049 381.632 221.049C381.609 221.049 381.586 221.054 381.565 221.063C363.872 228.678 345.375 234.265 326.426 237.72C325.509 237.88 324.593 238.049 323.671 238.208C315.514 239.648 307.078 241.135 300.206 245.617C290.224 252.131 285.263 263.649 280.464 274.791C278.527 279.291 276.523 283.944 274.205 288.242C266.745 302.084 255.299 313.273 244.223 324.093C235.385 332.731 226.246 341.667 219.186 351.895C214.203 359.12 210.163 367.142 206.256 374.889C202.092 383.151 197.79 391.696 192.311 399.358C189.318 403.529 185.864 407.348 182.016 410.745C181.433 410.496 180.854 410.247 180.275 409.994C184.269 406.553 187.839 402.649 190.911 398.364C196.314 390.805 200.588 382.32 204.72 374.118C208.653 366.315 212.722 358.246 217.774 350.922C224.924 340.556 234.127 331.561 243.022 322.866C254.002 312.136 265.356 301.037 272.69 287.427C274.97 283.198 276.958 278.578 278.882 274.113C283.782 262.736 288.851 250.973 299.261 244.181C306.429 239.506 315.041 237.988 323.365 236.519C324.286 236.359 325.202 236.196 326.111 236.03C345.147 232.562 363.723 226.926 381.478 219.233C381.511 219.218 381.54 219.193 381.559 219.162C381.578 219.13 381.587 219.094 381.584 219.057C381.239 214.922 381.646 210.758 382.784 206.768C384.677 200.309 388.55 194.67 392.295 189.223C392.809 188.477 393.318 187.73 393.824 186.983C396.614 182.874 399.257 178.677 401.755 174.393C405.054 168.741 408.087 162.95 410.854 157.021C411.669 155.277 412.458 153.523 413.223 151.759C417.042 142.972 420.275 133.942 422.9 124.728C422.906 124.705 422.917 124.683 422.932 124.665C422.946 124.646 422.965 124.631 422.986 124.62C423.007 124.609 423.029 124.602 423.053 124.6C423.077 124.598 423.1 124.6 423.123 124.608L424.425 124.976C424.448 124.982 424.47 124.993 424.49 125.008C424.509 125.022 424.525 125.041 424.537 125.062C424.549 125.083 424.557 125.106 424.56 125.13C424.563 125.154 424.562 125.178 424.555 125.202Z" fill="#CAD4EF"/>
<path d="M172.213 362.945C172.213 362.975 172.221 363.006 172.236 363.032C172.251 363.059 172.272 363.082 172.298 363.098C172.324 363.115 172.354 363.124 172.385 363.126C172.415 363.128 172.446 363.122 172.474 363.109C181.521 358.773 189.179 351.998 194.588 343.546C196.415 340.644 197.975 337.547 199.484 334.544C201.155 331.041 203.046 327.648 205.147 324.386C211.432 315.09 221.227 308.268 229.868 302.249L250.728 287.723C256.7 283.563 264.132 278.388 267.624 270.765C271.9 261.433 269.215 250.901 263.915 242.61C263.889 242.569 263.847 242.541 263.8 242.531C263.753 242.521 263.703 242.53 263.663 242.556C263.633 242.575 263.609 242.603 263.596 242.636L262.649 243.356C262.621 243.363 262.596 243.377 262.575 243.395C262.554 243.414 262.537 243.437 262.527 243.464C262.516 243.49 262.512 243.518 262.515 243.546C262.518 243.575 262.527 243.602 262.542 243.626C267.531 251.464 270.054 261.343 266.066 270.048C262.767 277.247 255.55 282.272 249.752 286.311L228.891 300.837C220.126 306.941 210.192 313.859 203.73 323.421C201.586 326.744 199.657 330.2 197.954 333.769C196.464 336.729 194.923 339.796 193.139 342.629C188.025 350.627 180.824 357.077 172.314 361.282C172.284 361.297 172.259 361.319 172.242 361.348C172.224 361.376 172.215 361.409 172.215 361.442L172.213 362.945Z" fill="#CAD4EF"/>
<path d="M280.709 163.228C286.717 169.099 294.704 171.987 302.546 174.648C302.582 174.659 302.62 174.659 302.656 174.648C302.693 174.637 302.724 174.614 302.747 174.584C302.769 174.554 302.782 174.517 302.783 174.48C302.784 174.442 302.773 174.405 302.752 174.373C302.326 173.741 301.903 173.121 301.485 172.511L301.397 172.444C294.073 169.923 287.242 167.219 281.906 162.002C274.556 154.819 271.936 144.797 271.141 134.007C271.137 133.96 271.116 133.917 271.081 133.886C271.046 133.855 271.001 133.839 270.954 133.841C270.495 133.86 270.046 133.868 269.603 133.869C269.579 133.869 269.556 133.874 269.534 133.883C269.512 133.892 269.493 133.905 269.476 133.922C269.459 133.939 269.446 133.959 269.437 133.98C269.428 134.002 269.424 134.026 269.424 134.049V134.062C270.236 145.232 272.962 155.655 280.709 163.228Z" fill="#CAD4EF"/>
<path d="M236.392 159.041C241.209 158.749 246.023 158.531 250.836 158.387L250.92 158.405C257.811 161.751 262.937 166.667 265.48 172.444C267.658 177.393 267.997 183.042 268.143 187.95C268.173 188.986 268.196 190.025 268.211 191.065L268.235 191.145C268.711 191.933 269.167 192.733 269.605 193.545C269.624 193.58 269.654 193.607 269.691 193.623C269.728 193.639 269.769 193.643 269.807 193.633C269.846 193.623 269.881 193.601 269.905 193.569C269.93 193.538 269.944 193.499 269.944 193.459C269.94 191.602 269.911 189.747 269.858 187.894C269.707 182.826 269.354 176.98 267.051 171.749C264.762 166.55 260.538 162.022 254.904 158.616C254.87 158.596 254.844 158.566 254.829 158.53C254.814 158.494 254.812 158.454 254.821 158.417C254.831 158.379 254.853 158.346 254.883 158.321C254.913 158.297 254.951 158.283 254.99 158.282C256.159 158.259 257.327 158.24 258.495 158.225C261.286 158.191 263.765 158.256 265.832 159.372C267.986 160.537 269.459 162.765 270.78 164.947C277.141 175.446 282.091 186.738 285.502 198.53C286.793 202.995 287.777 208.067 285.288 211.818C283.736 214.156 281.025 215.585 278.634 216.844L278.228 217.059C278.238 217.093 278.25 217.13 278.259 217.164C278.313 217.342 278.362 217.52 278.408 217.699L279.637 218.254C282.046 216.983 284.971 215.394 286.715 212.768C289.594 208.434 288.555 202.899 287.15 198.056C283.698 186.119 278.687 174.689 272.248 164.061C270.804 161.679 269.181 159.237 266.65 157.868C264.223 156.555 261.509 156.478 258.479 156.514C256.085 156.543 253.689 156.59 251.291 156.657L251.211 156.64C250.551 156.33 249.883 156.027 249.194 155.745C242.685 153.077 235.734 151.902 228.895 150.951L228.735 151.254C229.221 151.781 229.711 152.306 230.205 152.83L230.309 152.884C235.743 153.56 241.098 154.763 246.298 156.477C246.337 156.492 246.37 156.519 246.391 156.555C246.411 156.591 246.419 156.633 246.413 156.674C246.407 156.715 246.386 156.752 246.356 156.78C246.325 156.808 246.285 156.824 246.244 156.827C242.524 156.971 238.803 157.162 235.081 157.401C235.057 157.403 235.034 157.409 235.012 157.42C234.991 157.43 234.972 157.445 234.956 157.463C234.94 157.482 234.929 157.503 234.921 157.525C234.913 157.548 234.91 157.572 234.912 157.596C234.915 157.64 234.934 157.68 234.965 157.711C235.395 158.138 235.826 158.564 236.258 158.991C236.276 159.008 236.297 159.021 236.32 159.03C236.343 159.039 236.367 159.042 236.392 159.041Z" fill="#CAD4EF"/>
<path d="M550.807 83.8577C550.807 90.8214 547.328 97.326 541.3 102.85C529.981 113.224 509.67 120.141 486.491 120.141H486.453C484.67 120.141 482.9 120.094 481.153 120.012C480.468 119.983 479.794 119.944 479.114 119.901C472.699 126.128 464.314 129.92 455.403 130.624C446.492 131.328 437.615 128.9 430.302 123.758C430.469 124.825 430.555 125.904 430.559 126.985C430.559 133.776 427.248 140.131 421.49 145.565C421.344 145.702 421.203 145.839 421.053 145.977H421.048V145.981C419.398 147.484 417.641 148.866 415.792 150.116H415.787C414.96 150.681 414.107 151.23 413.228 151.762C408.632 154.483 403.746 156.683 398.661 158.321C396.511 159.032 394.283 159.672 391.978 160.24C391.292 160.412 390.599 160.575 389.899 160.729C382.132 162.433 374.201 163.282 366.25 163.261C363.5 163.261 360.792 163.166 358.127 162.974C338.847 161.603 322.228 155.419 312.165 146.622L312.16 146.618V146.614C308.535 143.576 305.642 139.759 303.699 135.446C302.649 135.485 301.604 135.514 300.541 135.514C293.306 135.547 286.105 134.51 279.172 132.438C274.538 131.055 270.109 129.06 266.002 126.507C264.468 127.809 262.855 129.016 261.173 130.12C260.304 130.694 259.4 131.251 258.47 131.786C256.615 132.864 254.706 133.846 252.75 134.727C249.631 136.135 246.42 137.333 243.14 138.313C242.601 138.473 242.057 138.632 241.508 138.788C234.812 140.622 227.943 141.749 221.012 142.153C218.947 142.277 216.878 142.334 214.804 142.324C210.087 142.328 205.375 142.013 200.7 141.382C193.793 140.424 187.367 137.302 182.343 132.464C177.32 127.626 173.959 121.321 172.741 114.453C206.467 111.341 237.16 116.394 246.028 118.023C276.897 123.688 304.869 135.909 351.293 130.686C355.021 130.266 367.805 128.727 391.118 122.321C391.623 122.184 392.133 122.042 392.652 121.897C394.897 121.271 397.089 120.642 399.228 120.01C465.373 100.518 480.749 79.0737 519.848 69.128C522.567 68.4374 525.372 67.809 528.263 67.2427C532.568 66.4068 537.05 65.7165 541.664 65.1982C547.465 70.651 550.807 77.0316 550.807 83.8577Z" fill="#CAD4EF"/>
<path d="M318.757 443.389C214.434 434.671 92.3317 389.958 62.7827 296.997C61.9644 294.417 61.2118 291.791 60.5252 289.116C55.7983 270.121 54.3206 250.463 56.1548 230.974C58.4462 231.055 60.6603 231.824 62.5084 233.181C64.5187 234.583 66.9498 235.25 69.3938 235.071C74.1409 234.715 78.8919 232.352 83.5789 232.821C92.7515 233.73 98.1335 247.601 93.069 257.29C99.932 250.566 110.849 253.485 115.073 261.858C119.297 270.231 117.545 281.982 112.403 290.569C122.652 285.015 134.875 297.469 131.563 310.086C140.08 299.528 156.549 301.687 161.343 314.005C161.356 313.967 161.369 313.925 161.378 313.885C163.194 308.13 170.015 307.41 171.985 312.72C174.27 318.956 175.628 325.493 176.017 332.123C178.682 323.018 187.195 316.379 195.035 317.293C202.875 318.206 209.1 326.562 208.95 335.959C225.054 329.857 242.363 347.323 239.526 366.817C252.659 371.977 264.325 380.282 273.501 391.003C277.499 395.618 280.831 404.184 276.037 408.581C284.665 416.405 295.839 419.59 305.256 426.12C311.422 430.354 316.136 436.383 318.757 443.389Z" fill="#CAD4EF"/>
<path d="M264.858 91.2526C237.95 85.4567 209.453 74.312 196.207 50.179C191.45 41.5123 189.051 30.922 192.548 21.6746C197.244 9.25653 211.082 2.69754 224.216 0.78664C240.655 -1.56089 257.414 1.37742 272.075 9.17735C292.018 19.8549 308.009 39.4542 330.408 42.6121C347.543 45.0254 364.177 37.101 380.681 31.9002C397.184 26.6994 417.372 24.9477 429.782 37.0122C432.748 39.8966 433.243 43.7312 433.53 45.2965C435.95 58.4945 422.88 70.6054 418.154 74.9855C411.703 80.963 396.722 92.2572 349.831 96.0398C324.598 98.0731 298.87 98.5786 264.858 91.2526Z" fill="#E6EDFA"/>
<path d="M161.703 194.152H4.25741C1.57935 189.506 0.480304 184.116 1.12525 178.792C1.7702 173.468 4.12434 168.497 7.83427 164.625C11.5442 160.753 16.4097 158.189 21.7004 157.318C26.9911 156.447 32.4215 157.316 37.1763 159.795C37.6151 154.266 39.2549 148.899 41.9812 144.069C44.7075 139.24 48.4547 135.063 52.9613 131.831C57.4678 128.599 62.6251 126.39 68.0734 125.357C73.5216 124.325 79.1295 124.494 84.5058 125.853C89.882 127.211 94.897 129.727 99.2009 133.225C103.505 136.722 106.994 141.116 109.424 146.102C111.855 151.087 113.169 156.542 113.274 162.088C113.379 167.633 112.274 173.135 110.034 178.209C127.237 183.667 144.109 190.346 161.703 194.152Z" fill="#D8DFF3"/>
<path d="M525.509 39.2526H610.236C611.677 36.7523 612.268 33.852 611.921 30.9871C611.574 28.1221 610.307 25.4471 608.311 23.3636C606.314 21.28 603.696 19.9003 600.849 19.4314C598.002 18.9626 595.08 19.43 592.521 20.7635C592.285 17.7885 591.402 14.9011 589.934 12.3026C588.467 9.70409 586.451 7.4571 584.026 5.71841C581.601 3.97971 578.825 2.79119 575.894 2.23575C572.962 1.6803 569.945 1.77134 567.052 2.50248C564.16 3.23361 561.461 4.58725 559.145 6.46895C556.829 8.35065 554.952 10.7151 553.644 13.3973C552.336 16.0795 551.628 19.015 551.571 21.9987C551.514 24.9825 552.109 27.9428 553.314 30.6731C544.056 33.6103 534.977 37.2041 525.509 39.2526Z" fill="#D8DFF3"/>
<path d="M515.667 173.365H730.483C734.137 167.026 735.635 159.673 734.755 152.41C733.875 145.146 730.663 138.364 725.601 133.082C720.54 127.8 713.902 124.302 706.684 123.114C699.466 121.926 692.058 123.111 685.571 126.493C684.973 118.948 682.737 111.625 679.017 105.034C675.298 98.4433 670.185 92.7438 664.036 88.3334C657.887 83.923 650.85 80.908 643.416 79.4987C635.982 78.0895 628.33 78.32 620.994 80.1742C613.658 82.0283 606.815 85.4615 600.942 90.234C595.07 95.0065 590.309 101.003 586.993 107.806C583.677 114.609 581.885 122.053 581.743 129.62C581.6 137.187 583.11 144.694 586.168 151.617C562.693 159.062 539.67 168.173 515.667 173.365Z" fill="#D8DFF3"/>
<path d="M689.882 259.242C686.41 269.652 681.962 279.711 676.599 289.285H60.5736L60.5257 289.117C59.1634 283.781 58.0797 278.377 57.2789 272.928C56.6071 268.432 56.1193 263.857 55.8154 259.242H689.882Z" fill="#824916"/>
<path d="M602.705 363.305C601.482 361.434 600.218 359.623 598.915 357.874C597.611 356.125 595.996 353.987 594.069 351.459L547.598 289.285L525.15 259.242L524.711 258.658C520.179 252.555 516.45 248.126 513.523 245.372C511.375 243.307 508.65 241.946 505.71 241.468C504.811 241.322 503.901 241.25 502.991 241.252C491.203 241.252 484.656 247.249 483.35 259.242C483.172 260.83 483.087 262.427 483.094 264.025V365.337H477.472C470.755 365.337 465.367 366.254 461.31 368.089C457.253 369.923 455.225 373.936 455.225 380.127C455.225 385.193 456.883 388.88 460.199 391.189C463.515 393.498 468.486 394.653 475.113 394.653H483.094V419.001C483.078 421.141 483.26 423.277 483.638 425.384C485.677 424.768 487.714 424.136 489.748 423.488C498.528 420.689 507.216 417.628 515.81 414.306V394.653H559.41C559.681 394.517 559.945 394.373 560.209 394.237C563.576 392.477 566.908 390.669 570.206 388.813C571.725 387.974 573.228 387.118 574.732 386.238C574.972 386.102 575.22 385.966 575.46 385.822C582.617 381.655 589.569 377.285 596.316 372.712C597.259 372.088 598.203 371.44 599.139 370.792C599.954 370.224 600.77 369.656 601.578 369.089C602.625 368.345 603.673 367.601 604.705 366.857C604.122 365.628 603.454 364.441 602.705 363.305ZM515.81 365.337V289.282L522.208 297.928L572.085 365.334L515.81 365.337Z" fill="#824916"/>
<path d="M264.712 368.089C260.65 366.257 255.262 365.34 248.55 365.337H242.92V264.025C242.928 262.427 242.842 260.83 242.664 259.242C241.505 248.563 236.187 242.639 226.71 241.468C225.49 241.321 224.261 241.249 223.032 241.252C219.113 241.183 215.325 242.663 212.492 245.372C209.573 248.123 205.844 252.552 201.304 258.658L200.864 259.242L178.416 289.285L131.946 351.459C130.027 353.995 128.414 356.133 127.108 357.874C125.796 359.626 124.53 361.436 123.309 363.305C122.19 364.982 121.27 366.784 120.566 368.673C119.968 370.286 119.657 371.991 119.646 373.712C119.646 374.064 119.654 374.416 119.67 374.768C120.91 375.744 122.158 376.695 123.421 377.639C124.557 378.487 125.7 379.327 126.852 380.159C128.467 381.327 130.107 382.479 131.77 383.614C132.626 384.198 133.489 384.774 134.353 385.342C139.007 388.446 143.803 391.41 148.74 394.237C148.971 394.373 149.203 394.501 149.435 394.629C149.439 394.636 149.445 394.642 149.452 394.646C149.459 394.651 149.467 394.653 149.475 394.653H210.205V419.001C210.205 419.841 210.229 420.657 210.285 421.448C210.996 421.688 211.7 421.928 212.412 422.16C212.964 422.344 213.515 422.52 214.059 422.704C214.355 422.8 214.651 422.896 214.955 422.992C215.595 423.2 216.234 423.4 216.882 423.6V423.608C217.986 423.952 219.097 424.296 220.209 424.632C227.022 426.72 233.894 428.645 240.825 430.407C242.225 427.416 242.923 423.613 242.92 419.001V394.653H250.901C257.531 394.653 262.505 393.498 265.824 391.189C269.143 388.88 270.801 385.193 270.798 380.127C270.798 373.936 268.769 369.923 264.712 368.089ZM153.938 365.337L210.205 289.285V365.337H153.938Z" fill="#824916"/>
<path d="M609.103 363.305C607.879 361.434 606.616 359.623 605.312 357.874C604.009 356.125 602.393 353.987 600.466 351.459L553.996 289.285L531.548 259.241L531.108 258.658C526.576 252.554 522.847 248.126 519.92 245.372C517.091 242.662 513.305 241.181 509.388 241.252C508.159 241.249 506.93 241.321 505.71 241.468C496.233 242.636 490.912 248.56 489.748 259.241C489.57 260.83 489.484 262.427 489.492 264.025V365.337H483.87C477.152 365.337 471.765 366.254 467.708 368.089C463.651 369.923 461.622 373.936 461.622 380.127C461.622 385.193 463.28 388.88 466.596 391.189C469.912 393.498 474.884 394.652 481.511 394.652H489.492V419.001C489.488 420.5 489.573 421.999 489.748 423.488C498.528 420.688 507.216 417.627 515.81 414.305C517.953 413.481 520.08 412.642 522.207 411.778V394.652H559.409C559.681 394.516 559.945 394.372 560.209 394.236C563.576 392.477 566.908 390.669 570.205 388.813C571.725 387.973 573.228 387.118 574.732 386.238C574.972 386.102 575.22 385.966 575.459 385.822C582.617 381.654 589.569 377.284 596.316 372.712C597.259 372.088 598.203 371.44 599.139 370.792C599.954 370.224 600.77 369.656 601.578 369.088C602.625 368.344 603.673 367.601 604.705 366.857C606.224 365.753 607.733 364.638 609.231 363.513C609.191 363.441 609.151 363.377 609.103 363.305ZM522.207 365.337V289.282L578.482 365.334L522.207 365.337Z" fill="#D56400"/>
<path d="M271.11 368.089C267.048 366.257 261.661 365.34 254.949 365.337H249.319V264.025C249.326 262.427 249.241 260.83 249.063 259.242C247.759 247.251 241.215 241.255 229.43 241.252C228.519 241.25 227.61 241.322 226.711 241.468C223.768 241.945 221.041 243.307 218.89 245.372C215.971 248.123 212.242 252.552 207.702 258.658L207.262 259.242L184.815 289.285L138.344 351.459C136.425 353.995 134.812 356.133 133.506 357.874C132.194 359.626 130.928 361.436 129.707 363.305C128.589 364.982 127.668 366.784 126.964 368.673C126.366 370.286 126.055 371.991 126.045 373.712C126.027 375.887 126.299 378.055 126.852 380.159C128.468 381.327 130.107 382.478 131.771 383.614C132.626 384.198 133.49 384.774 134.354 385.342C139.008 388.446 143.803 391.41 148.74 394.237C148.972 394.373 149.204 394.501 149.436 394.629C149.916 394.645 150.412 394.653 150.907 394.653H216.603V419.001C216.598 420.538 216.692 422.074 216.883 423.6V423.608C217.986 423.952 219.098 424.296 220.21 424.632C227.023 426.72 233.895 428.645 240.826 430.407C242.273 430.775 243.713 431.135 245.16 431.487C245.6 431.591 246.04 431.703 246.48 431.799C248.375 428.631 249.321 424.365 249.319 419.001V394.653H257.3C263.929 394.653 268.903 393.498 272.222 391.189C275.541 388.88 277.199 385.193 277.196 380.127C277.196 373.936 275.168 369.923 271.11 368.089ZM216.603 365.337H160.336L210.205 297.932L216.603 289.285V365.337Z" fill="#D56400"/>
<path d="M92.5771 252.499V349.244C79.8699 334.598 69.9456 318.129 63.6759 299.732C63.372 298.828 63.0682 297.916 62.7803 297.004C61.9806 294.476 61.2368 291.909 60.5731 289.285L60.5251 289.117C59.1629 283.781 58.0792 278.377 57.2783 272.928V252.499C57.2782 250.181 57.7347 247.885 58.6216 245.743C59.5085 243.601 60.8086 241.655 62.4475 240.016C64.0864 238.377 66.0321 237.076 68.1735 236.189C70.3148 235.302 72.6099 234.846 74.9277 234.846C76.001 234.842 77.0721 234.942 78.1265 235.142C82.1858 235.885 85.8555 238.03 88.4962 241.201C91.1369 244.373 92.5811 248.371 92.5771 252.499Z" fill="#824916"/>
<path d="M662.188 252.499V311.434C653.536 322.946 643.866 333.657 633.295 343.437C631.2 345.389 629.067 347.314 626.897 349.212V252.499C626.897 250.181 627.354 247.885 628.241 245.743C629.128 243.601 630.428 241.655 632.067 240.016C633.706 238.377 635.651 237.076 637.793 236.189C639.934 235.302 642.229 234.846 644.547 234.846C645.62 234.842 646.691 234.941 647.746 235.142C651.803 235.887 655.471 238.033 658.11 241.204C660.748 244.376 662.192 248.373 662.188 252.499Z" fill="#824916"/>
<path d="M98.9746 252.499V356.227C96.7674 353.947 94.6349 351.62 92.577 349.244C79.8697 334.598 69.9454 318.129 63.6758 299.732V252.499C63.6751 248.372 65.1205 244.376 67.7606 241.205C70.4007 238.033 74.0686 235.888 78.1264 235.142C79.1808 234.942 80.2519 234.842 81.3252 234.846C83.6433 234.844 85.9391 235.3 88.0811 236.186C90.223 237.073 92.1693 238.373 93.8085 240.013C95.4477 241.652 96.7476 243.599 97.6341 245.742C98.5205 247.884 98.9761 250.18 98.9746 252.499Z" fill="#D56400"/>
<path d="M668.586 252.499V302.379C666.546 305.443 664.414 308.461 662.188 311.434C653.536 322.946 643.866 333.657 633.295 343.437V252.499C633.294 248.372 634.74 244.376 637.38 241.205C640.02 238.033 643.688 235.888 647.746 235.142C648.8 234.941 649.871 234.842 650.944 234.846C653.262 234.845 655.557 235.302 657.698 236.189C659.839 237.076 661.784 238.376 663.422 240.016C665.061 241.655 666.36 243.602 667.246 245.744C668.132 247.885 668.587 250.181 668.586 252.499Z" fill="#D56400"/>
<path d="M361.465 241.196C353.086 243.409 344.423 245.695 336.104 248.635C315.093 256.051 300.257 266.785 292.006 280.535C287.057 288.784 284.5 298.016 282.474 306.763C278.141 325.46 275.73 344.55 275.276 363.737C275.276 363.777 275.288 363.815 275.311 363.847C275.335 363.879 275.368 363.903 275.406 363.914C275.444 363.925 275.485 363.924 275.522 363.91C275.559 363.896 275.59 363.87 275.611 363.837C276.078 363.079 276.55 362.318 277.027 361.555L277.054 361.466C277.636 343.172 280.01 324.98 284.141 307.15C286.136 298.539 288.647 289.462 293.474 281.418C301.513 268.017 316.048 257.532 336.672 250.251C344.926 247.337 353.555 245.059 361.901 242.854C368.816 241.028 375.91 239.15 382.862 236.897L382.952 236.834C383.432 236.202 383.907 235.569 384.377 234.935C384.4 234.904 384.413 234.867 384.413 234.828C384.414 234.79 384.402 234.753 384.379 234.722C384.356 234.691 384.324 234.668 384.288 234.656C384.251 234.645 384.212 234.646 384.176 234.659C376.684 237.17 368.97 239.215 361.465 241.196Z" fill="#CAD4EF"/>
<path d="M334.858 194.623C337.321 194.847 339.923 195.023 342.579 195.023C347.579 195.148 352.554 194.278 357.214 192.463C363.384 189.88 368.456 185.078 372.931 180.841L384.261 170.117C387.056 167.471 390.223 164.473 391.844 160.571C393.377 156.886 393.364 152.759 393.359 149.121C393.34 141.122 393.31 132.106 390.542 123.925C390.535 123.903 390.523 123.882 390.508 123.864C390.492 123.846 390.473 123.831 390.452 123.821C390.431 123.81 390.408 123.804 390.384 123.802C390.361 123.8 390.337 123.803 390.314 123.811C390.273 123.825 390.238 123.853 390.217 123.891C389.929 124.371 389.618 124.869 389.285 125.387C389.271 125.408 389.262 125.433 389.259 125.459C389.255 125.484 389.257 125.51 389.264 125.535C391.601 133.128 391.626 141.251 391.645 149.132C391.653 152.609 391.663 156.55 390.262 159.919C388.78 163.485 385.753 166.35 383.082 168.877L371.753 179.602C367.168 183.939 362.431 188.425 356.551 190.888C349.646 193.779 341.789 193.538 335.013 192.92C333.567 192.788 332.048 192.626 330.522 192.373C330.493 192.368 330.464 192.37 330.436 192.38C330.408 192.389 330.383 192.405 330.362 192.426L329.224 193.599C329.191 193.634 329.174 193.68 329.175 193.728C329.176 193.776 329.196 193.822 329.231 193.855C329.256 193.879 329.288 193.895 329.323 193.902C331.206 194.257 333.085 194.461 334.858 194.623Z" fill="#CAD4EF"/>
<path d="M454.42 192.721L443.424 377.916H316.592L311.761 339.354L298.638 352.48C294.971 356.205 290.586 359.147 285.748 361.127C266.187 368.997 243.676 357.967 236.582 339.05C233.734 331.305 233.557 322.831 236.079 314.974L257.662 243.809C261.95 229.678 270.621 217.279 282.421 208.405C294.222 199.531 308.54 194.643 323.302 194.448L454.42 192.721Z" fill="#687ED4"/>
<path d="M367.468 123.638L363.618 122.968C360.119 122.36 356.522 123.166 353.618 125.209C350.713 127.253 348.739 130.367 348.13 133.866C348.061 134.267 348.009 134.67 347.976 135.076C347.735 138.04 348.681 140.978 350.606 143.245C352.531 145.511 355.277 146.919 358.241 147.161L365.609 147.76L362.175 189.993C361.956 192.689 362.27 195.401 363.098 197.975C363.927 200.549 365.255 202.935 367.005 204.996C368.756 207.057 370.895 208.753 373.301 209.988C375.707 211.222 378.332 211.97 381.027 212.189C383.961 212.428 386.912 212.034 389.68 211.036C392.449 210.037 394.972 208.457 397.078 206.4C399.185 204.344 400.826 201.86 401.891 199.115C402.956 196.371 403.421 193.43 403.253 190.491L402.694 180.681C402.694 180.681 430.203 182.076 416.946 118.456L378.886 105.569L367.468 123.638Z" fill="#FFC1C2"/>
<path d="M351.831 94.7519C351.831 94.7519 346.717 66.8243 321.013 91.506C295.308 116.188 318.442 177.893 298.907 187.663C298.907 187.663 344.794 178.326 338.812 125.661L351.831 94.7519Z" fill="#32477B"/>
<path d="M354.315 113.534C359.354 104.804 360.584 96.0791 357.063 94.0457C353.542 92.0122 346.602 97.4406 341.563 106.17C336.524 114.9 335.294 123.625 338.815 125.658C342.336 127.692 349.276 122.263 354.315 113.534Z" fill="#FEBCCC"/>
<path d="M418.236 125.147V125.155C417.984 125.469 417.659 125.717 417.29 125.879C416.921 126.04 416.519 126.11 416.117 126.083C408.408 125.523 405.401 118.58 405.401 118.58C393.436 131.905 377.925 134.198 371.03 134.521C370.149 134.566 369.283 134.275 368.61 133.705C367.936 133.135 367.505 132.33 367.403 131.453C367.262 130.056 366.933 128.684 366.425 127.374C365.818 125.825 364.679 124.543 363.213 123.757C361.747 122.97 360.049 122.732 358.423 123.083C355.832 123.658 353.472 124.99 351.64 126.91C349.808 128.83 348.588 131.251 348.134 133.866C348.062 134.266 348.006 134.674 347.974 135.074C347.95 135.378 347.935 135.682 347.935 135.986C347.935 138.803 348.996 141.517 350.906 143.587C352.816 145.658 355.435 146.933 358.243 147.16L361.785 147.448L357.165 153.92C353.321 152.103 348.94 145.224 345.432 138.04C338.101 123.02 347.709 101.373 363.81 92.8042C379.259 84.5823 395.549 91.1341 398.26 92.2739C418.772 92.7299 423.042 119.718 418.236 125.147Z" fill="#32477B"/>
<path d="M450.176 173.774C450.176 173.774 445.12 141.219 432.034 139.886C418.948 138.553 417.148 154.596 417.148 154.596L419.795 176.142L450.176 173.774Z" fill="#FFC1C2"/>
<path d="M445.829 139.694C445.82 141.721 446.488 143.692 447.728 145.296C448.968 146.899 450.709 148.041 452.673 148.54L520.476 165.955C522.7 166.524 524.985 166.813 527.28 166.816H527.501C531.334 166.775 535.115 165.921 538.594 164.311C542.073 162.7 545.171 160.37 547.683 157.474C550.195 154.577 552.064 151.181 553.167 147.509C554.27 143.837 554.582 139.972 554.081 136.171C553.581 132.37 552.28 128.718 550.264 125.456C548.249 122.195 545.564 119.398 542.388 117.251C539.212 115.104 535.617 113.655 531.84 113C528.063 112.345 524.19 112.499 520.476 113.452L452.673 130.866C450.717 131.374 448.985 132.516 447.747 134.113C446.509 135.71 445.834 137.673 445.829 139.694Z" fill="#D46400"/>
<path d="M447.29 144.678C448.542 146.59 450.461 147.967 452.673 148.54L520.476 165.955C522.7 166.524 524.985 166.813 527.28 166.816H527.501L541.889 142.376L447.312 144.638L447.29 144.678Z" fill="#824916"/>
<path d="M527.011 166.827C541.887 166.827 553.946 154.765 553.946 139.886C553.946 125.007 541.887 112.945 527.011 112.945C512.135 112.945 500.075 125.007 500.075 139.886C500.075 154.765 512.135 166.827 527.011 166.827Z" fill="#9BCFDC"/>
<path d="M527.01 162.002C539.222 162.002 549.122 152.1 549.122 139.886C549.122 127.671 539.222 117.769 527.01 117.769C514.798 117.769 504.898 127.671 504.898 139.886C504.898 152.1 514.798 162.002 527.01 162.002Z" fill="#32477B"/>
<path d="M541.666 149.351C541.941 149.352 542.21 149.277 542.444 149.135C542.679 148.992 542.87 148.789 542.996 148.545C545.148 144.435 545.666 139.664 544.448 135.188C543.229 130.712 540.364 126.862 536.426 124.411C536.089 124.204 535.683 124.14 535.299 124.231C534.914 124.322 534.581 124.561 534.372 124.897C534.162 125.232 534.094 125.637 534.182 126.023C534.269 126.408 534.506 126.744 534.839 126.956C538.136 129.007 540.535 132.229 541.555 135.976C542.575 139.724 542.14 143.718 540.338 147.157C540.219 147.386 540.161 147.641 540.169 147.899C540.177 148.157 540.252 148.408 540.385 148.628C540.519 148.849 540.707 149.031 540.931 149.158C541.155 149.284 541.409 149.351 541.666 149.351Z" fill="white"/>
<path d="M531.806 157.5C531.845 157.5 531.886 157.5 531.921 157.5C533.43 157.367 534.894 156.914 536.216 156.173C537.538 155.432 538.687 154.419 539.588 153.2C539.812 152.872 539.896 152.467 539.822 152.076C539.748 151.686 539.522 151.34 539.193 151.116C538.864 150.892 538.46 150.808 538.069 150.882C537.678 150.957 537.333 151.183 537.109 151.512C536.465 152.361 535.651 153.066 534.718 153.583C533.786 154.099 532.756 154.414 531.694 154.509C531.309 154.54 530.951 154.718 530.694 155.007C530.437 155.296 530.301 155.673 530.315 156.059C530.33 156.446 530.493 156.812 530.77 157.081C531.048 157.35 531.418 157.501 531.805 157.504L531.806 157.5Z" fill="white"/>
<path d="M377.787 139.694C377.778 141.721 378.446 143.692 379.686 145.296C380.927 146.899 382.667 148.041 384.631 148.54L452.432 165.955C454.655 166.524 456.941 166.813 459.236 166.816H459.457C463.29 166.775 467.071 165.921 470.55 164.311C474.029 162.7 477.126 160.37 479.638 157.474C482.151 154.577 484.02 151.181 485.123 147.509C486.226 143.837 486.537 139.972 486.037 136.171C485.536 132.37 484.235 128.718 482.22 125.456C480.204 122.195 477.52 119.398 474.344 117.251C471.168 115.104 467.572 113.655 463.795 113C460.018 112.345 456.145 112.499 452.432 113.452L384.631 130.866C382.675 131.374 380.943 132.516 379.705 134.113C378.467 135.71 377.792 137.673 377.787 139.694Z" fill="#D46400"/>
<path d="M379.248 144.678C380.5 146.59 382.419 147.967 384.631 148.54L452.432 165.955C454.655 166.524 456.941 166.813 459.236 166.816H459.456L473.845 142.376L379.268 144.638L379.248 144.678Z" fill="#824916"/>
<path d="M458.97 166.827C473.846 166.827 485.905 154.765 485.905 139.886C485.905 125.007 473.846 112.945 458.97 112.945C444.094 112.945 432.034 125.007 432.034 139.886C432.034 154.765 444.094 166.827 458.97 166.827Z" fill="#9BCFDC"/>
<path d="M458.968 162.002C471.18 162.002 481.08 152.1 481.08 139.886C481.08 127.671 471.18 117.769 458.968 117.769C446.756 117.769 436.856 127.671 436.856 139.886C436.856 152.1 446.756 162.002 458.968 162.002Z" fill="#32477B"/>
<path d="M473.629 149.351C473.903 149.352 474.172 149.277 474.406 149.134C474.641 148.992 474.832 148.788 474.958 148.545C477.11 144.435 477.628 139.664 476.41 135.188C475.191 130.712 472.326 126.862 468.388 124.41C468.221 124.304 468.034 124.232 467.839 124.198C467.644 124.164 467.444 124.17 467.251 124.213C467.058 124.257 466.876 124.339 466.714 124.454C466.553 124.569 466.416 124.714 466.311 124.882C466.206 125.051 466.136 125.238 466.104 125.433C466.072 125.629 466.079 125.829 466.124 126.021C466.17 126.214 466.253 126.396 466.369 126.556C466.486 126.717 466.633 126.852 466.801 126.956C470.098 129.007 472.497 132.229 473.517 135.976C474.537 139.723 474.103 143.717 472.301 147.157C472.182 147.386 472.123 147.641 472.131 147.899C472.14 148.156 472.214 148.408 472.347 148.628C472.481 148.849 472.669 149.031 472.893 149.158C473.118 149.284 473.371 149.351 473.629 149.351Z" fill="white"/>
<path d="M463.765 157.5C463.804 157.5 463.845 157.5 463.88 157.5C465.389 157.367 466.853 156.914 468.175 156.173C469.497 155.432 470.646 154.419 471.547 153.2C471.658 153.038 471.736 152.855 471.776 152.662C471.816 152.469 471.818 152.27 471.781 152.076C471.744 151.883 471.67 151.698 471.562 151.534C471.454 151.369 471.315 151.227 471.152 151.116C470.989 151.005 470.806 150.928 470.613 150.888C470.42 150.847 470.222 150.846 470.028 150.882C469.835 150.919 469.65 150.994 469.486 151.102C469.321 151.21 469.179 151.349 469.068 151.512C468.424 152.361 467.61 153.066 466.677 153.583C465.745 154.099 464.715 154.414 463.653 154.509C463.268 154.54 462.91 154.718 462.653 155.007C462.396 155.296 462.26 155.673 462.274 156.059C462.289 156.446 462.452 156.812 462.729 157.081C463.007 157.35 463.377 157.501 463.764 157.504L463.765 157.5Z" fill="white"/>
<path d="M391.11 150.857L380.424 174.273L346.606 173.445C346.606 173.445 368.406 119.646 403.265 126.085C403.265 126.085 386.144 134.364 391.11 150.857Z" fill="#FFC1C2"/>
<path d="M391.11 150.857L380.424 174.272L346.606 173.445L368.641 170.314C371.9 169.851 374.992 168.583 377.639 166.626C380.286 164.669 382.404 162.083 383.802 159.103C385.891 154.546 387.19 149.667 387.641 144.674C389.193 129.062 403.263 126.085 403.263 126.085C403.263 126.085 386.144 134.363 391.11 150.857Z" fill="#EE9C9E"/>
<path d="M382.301 178.011L378.806 186.002L367.334 212.262L324.334 211.182L337.192 184.034L340.231 177.619C340.819 176.375 341.753 175.329 342.923 174.605C344.092 173.881 345.445 173.511 346.82 173.54L379.912 174.259C380.352 174.27 380.782 174.388 381.165 174.604C381.548 174.82 381.872 175.127 382.108 175.497C382.344 175.868 382.485 176.292 382.519 176.73C382.553 177.168 382.478 177.608 382.301 178.011Z" fill="#687ED4"/>
<path d="M352.12 137.305C352.069 137.105 350.906 132.385 353.623 129.404C355.426 127.429 358.414 126.76 362.5 127.411L362.171 129.471C358.826 128.936 356.472 129.384 355.169 130.804C353.207 132.944 354.129 136.754 354.141 136.792L352.12 137.305Z" fill="#EE9C9E"/>
<path d="M402.694 180.682C402.694 180.682 388.645 181.646 382.542 179.042C387.897 185.19 395.223 189.283 403.265 190.619L402.694 180.682Z" fill="#EE9C9E"/>
<path d="M404.88 166.156L405.402 164.351C400.78 163.012 396.022 162.195 391.218 161.914L391.108 163.789C395.773 164.061 400.392 164.855 404.88 166.156Z" fill="#EE9C9E"/>
<path d="M362.574 148.061L360.993 146.838C374.091 129.905 388.771 122.386 403.446 125.102L403.082 127.068C385.527 123.824 371.368 136.694 362.574 148.061Z" fill="#EE9C9E"/>
<path d="M358.502 232.444L324.281 337.642C323.146 341.133 322.842 344.841 323.394 348.47C324.183 353.652 326.678 358.424 330.484 362.028C334.291 365.631 339.191 367.862 344.408 368.365L443.424 377.917H316.586L311.759 339.354L358.502 232.444Z" fill="#4863C9"/>
<path d="M331.406 193.896L273.788 315.573L275.595 316.429L333.213 194.752L331.406 193.896Z" fill="#4863C9"/>
<path d="M368.53 207.024L310.844 338.953L312.676 339.755L370.363 207.825L368.53 207.024Z" fill="#4863C9"/>
<path d="M492.14 344.625C490.682 350.079 487.397 354.868 482.835 358.192C478.272 361.516 472.707 363.173 467.07 362.888C461.433 362.602 456.064 360.391 451.861 356.623C447.657 352.855 444.873 347.759 443.974 342.185L419.039 188.033L417.671 179.571C417.606 179.162 417.626 178.745 417.731 178.345C417.836 177.945 418.023 177.571 418.28 177.247C418.538 176.924 418.86 176.657 419.226 176.465C419.592 176.273 419.994 176.159 420.406 176.131L458.04 173.628C458.808 173.577 459.568 173.807 460.178 174.275C460.789 174.743 461.209 175.417 461.359 176.171L463.39 186.442L492.507 333.459C493.246 337.16 493.12 340.981 492.14 344.625Z" fill="#687ED4"/>
<path d="M382.299 178.011L378.804 186.002L337.188 184.034L340.226 177.619C340.814 176.375 341.749 175.329 342.918 174.605C344.087 173.881 345.44 173.511 346.815 173.54L379.908 174.259C380.347 174.269 380.778 174.387 381.161 174.603C381.545 174.818 381.869 175.125 382.105 175.496C382.342 175.867 382.483 176.291 382.517 176.729C382.551 177.168 382.476 177.608 382.299 178.011Z" fill="white"/>
<path d="M463.39 186.442L419.039 188.033L417.671 179.571C417.606 179.162 417.626 178.745 417.731 178.345C417.836 177.945 418.023 177.571 418.28 177.247C418.538 176.924 418.86 176.657 419.226 176.465C419.592 176.273 419.994 176.159 420.406 176.131L458.04 173.628C458.808 173.577 459.568 173.807 460.178 174.275C460.789 174.743 461.209 175.417 461.359 176.171L463.39 186.442Z" fill="white"/>
<path d="M285.744 361.127C266.183 368.997 243.671 357.967 236.578 339.05C241.203 336.823 246.259 335.634 251.392 335.566C256.524 335.497 261.61 336.551 266.293 338.654C270.976 340.757 275.143 343.857 278.503 347.739C281.862 351.621 284.334 356.19 285.744 361.127Z" fill="white"/>
<path d="M492.139 344.625C491.065 348.653 488.987 352.343 486.1 355.349C483.213 358.356 479.611 360.581 475.631 361.817C471.65 363.053 467.421 363.26 463.339 362.417C459.258 361.574 455.456 359.71 452.29 356.999C456.751 350.963 463.021 346.509 470.188 344.283C477.355 342.058 485.045 342.177 492.139 344.625Z" fill="white"/>
<path d="M420.832 192.33L418.858 192.65L443.484 344.593L445.458 344.273L420.832 192.33Z" fill="#4863C9"/>
<path d="M423.972 158.645L421.663 166.286C421.311 167.417 421.132 168.594 421.132 169.778C421.133 170.405 421.374 171.008 421.807 171.461C422.24 171.915 422.83 172.184 423.456 172.213L450.176 173.774L419.795 176.141L417.439 156.967L423.972 158.645Z" fill="#EE9C9E"/>
<path d="M461.386 431.556C453.085 433.643 444.773 435.491 436.451 437.099C414.902 441.322 393.058 443.873 371.116 444.73C353.652 445.329 336.169 444.88 318.759 443.386C311.546 442.778 304.261 441.999 296.903 441.05C297.135 398.433 316.584 377.916 316.584 377.916H443.424C449.286 390.946 456.012 412.623 461.386 431.556Z" fill="#32477B"/>
<path d="M316.584 377.916L450.176 395.362L443.425 377.916H316.584Z" fill="#1F315F"/>
<path d="M350.699 288.679C352.433 252.461 367.492 234.17 389.724 235.236C411.956 236.301 425.189 256.049 423.458 292.166C421.723 328.384 406.625 347.551 384.394 346.486C362.163 345.42 348.962 324.897 350.699 288.679ZM404.93 291.278C406.383 260.956 399.366 250.964 388.991 250.464C378.617 249.965 370.678 259.245 369.224 289.567C367.771 319.89 374.746 330.761 385.121 331.257C395.495 331.753 403.479 321.601 404.929 291.281L404.93 291.278Z" fill="white"/>
</svg>
