<svg width="467" height="81" viewBox="0 0 467 81" fill="none" xmlns="http://www.w3.org/2000/svg">
<path d="M2.71343 47.84C2.47343 47.76 0.153435 48.24 -0.00656527 48.72C0.233435 51.68 1.67343 59.92 2.39343 60.96C4.79343 62 9.51343 63.44 14.3134 63.44C12.7134 65.52 10.4734 68.64 10.4734 68.64C10.3934 68.8 10.3134 69.28 10.3134 69.28C15.2734 70.8 16.3134 72.88 16.3134 74.32C16.3134 76 15.0334 76.96 13.1134 76.96C11.4334 76.96 9.83344 76.8 7.91343 75.76C7.75343 76.16 7.59344 77.44 7.67343 77.92C8.39343 79.28 10.1534 80.32 12.1534 80.32C14.7134 80.32 21.5134 77.12 21.5134 72C21.5134 70.64 21.0334 68.96 19.6734 67.84C18.6334 66.96 17.3534 66.24 16.0734 65.52L17.5934 63.2C27.1934 61.92 32.0734 55.52 32.0734 48.56C32.0734 42.72 28.7134 39.36 24.4734 36.72C21.7534 35.12 17.5134 33.12 14.3134 31.04C10.8734 28.8 8.87343 26.64 8.87343 22.16C8.87343 18.32 11.7534 14.08 17.1134 14.08C19.5134 14.08 21.8334 14.48 23.6734 15.76C25.5934 17.04 26.3134 19.44 26.7934 24C27.1134 24.4 28.9534 24.4 29.3534 23.92C29.6734 19.92 30.1534 15.2 30.7134 12.56C29.6734 12.56 27.7534 12.24 25.9134 11.92C24.5534 11.68 21.5134 11.28 18.2334 11.28C9.43343 11.28 2.31343 16.24 2.31343 24.88C2.31343 32.16 7.11343 36.08 14.3934 40.24C21.7534 44.4 24.9534 46.8 24.9534 51.92C24.9534 58 20.1534 60.24 16.3134 60.24C13.3534 60.24 10.6334 59.6 8.63344 58.08C5.91344 56.16 4.23343 52.96 2.71343 47.84ZM60.7359 63.52C62.8159 63.52 67.2159 63.28 71.2159 61.28C80.2559 56.72 84.9759 48.32 84.9759 36.16C84.9759 23.12 77.4559 11.2 62.8159 11.2C57.2959 11.2 50.4959 13.12 46.8959 14.96C45.7759 16.16 43.2959 21.6 42.8159 23.12C42.5759 23.6 44.4959 24.8 44.9759 24.72C47.2959 20.4 49.1359 17.76 51.3759 16.8C53.4559 15.84 56.7359 15.28 59.2959 15.28C73.2959 15.28 77.5359 28.24 77.5359 38.32L77.4559 39.52C77.3759 39.84 77.2159 39.92 77.1359 39.92C74.9759 39.92 57.1359 39.92 53.1359 40C49.4559 40.08 44.7359 40.56 42.5759 41.28C42.4159 41.68 41.9359 43.04 41.9359 44.56C41.9359 54.08 48.8159 63.52 60.7359 63.52ZM63.4559 60.16C54.0159 60.16 49.6159 52.4 49.6959 45.84C49.6959 44.8 50.6559 43.6 51.4559 43.44C54.1759 42.88 67.2959 42.8 76.8959 43.04C77.1359 43.04 77.2159 43.36 77.2159 43.52C77.0559 47.44 75.3759 60.16 63.4559 60.16ZM108.698 36.08C108.698 29.84 108.698 23.36 108.778 19.84C108.938 17.2 109.258 16.32 111.098 15.76C112.058 15.52 113.898 15.2 115.258 14.96C115.498 14.48 115.498 12.88 115.258 12.48C113.018 12.48 109.658 12.72 105.258 12.72C99.7384 12.72 96.6984 12.48 94.7784 12.48C94.3784 12.88 94.3784 14.56 94.7784 15.04C96.4584 15.2 98.0584 15.44 99.0184 15.68C101.098 16.24 101.418 17.04 101.498 19.28C101.738 24 101.658 29.76 101.658 36.16C101.658 43.28 101.658 50.72 101.498 54.24C101.338 57.28 101.018 58.32 98.9384 58.88C97.8984 59.12 96.1384 59.44 94.3784 59.68C94.0584 60 94.0584 61.92 94.3784 62.24C95.5784 62.24 100.618 62 104.458 62C108.618 62 113.258 62.24 115.898 62.24C116.298 62 116.458 59.92 116.138 59.68C114.058 59.36 112.618 59.12 111.498 58.8C109.338 58.24 109.018 57.28 108.778 53.92C108.698 48.32 108.698 42.72 108.698 36.08ZM122.138 14.96C123.898 15.28 125.498 15.6 126.378 15.84C127.418 16.16 127.898 16.64 127.898 17.36C127.898 18.16 127.498 19.12 126.458 20.48C122.058 25.92 113.578 35.28 109.818 36.72C109.658 36.88 109.498 37.76 109.658 38.16C110.298 38.56 111.098 39.28 111.258 39.52C115.578 44.96 125.498 56.32 129.258 59.68C130.138 60.48 131.258 61.2 132.298 61.6C134.458 62.32 143.018 62.56 145.738 62.24C146.218 62 146.378 60 146.058 59.68C144.058 59.6 142.618 59.44 140.698 58.88C139.658 58.64 138.618 58 137.418 57.12C131.818 52.72 120.778 40.56 117.258 35.52V35.12C120.778 31.44 126.698 25.36 131.658 20C134.938 16.32 137.018 15.68 141.578 14.96C142.058 14.64 141.978 12.72 141.658 12.48C139.418 12.56 137.178 12.72 131.738 12.72C127.418 12.72 124.698 12.48 122.218 12.48C121.818 12.88 121.818 14.64 122.138 14.96ZM149.357 14.96C151.597 15.28 153.117 15.52 154.397 15.92C156.077 16.32 156.237 17.44 156.477 19.52C156.637 23.28 156.637 28.24 156.637 34.88C156.637 46.24 156.637 53.28 156.317 55.6C156.157 57.28 155.837 58.4 153.437 58.96C152.317 59.28 151.117 59.44 149.277 59.68C148.877 59.92 148.877 62 149.277 62.24C151.517 62.24 156.077 62 160.717 62C164.797 62 169.677 62.24 171.517 62.24C171.917 62 172.077 59.92 171.757 59.68C169.677 59.36 167.917 59.04 166.797 58.8C164.397 58.16 163.997 56.96 163.917 54.56C163.757 51.76 163.677 44.16 163.677 36.4C163.677 29.36 163.677 22.96 163.917 19.6C163.997 17.12 164.317 16.16 166.237 15.6C167.197 15.36 168.637 15.2 170.477 14.96C170.877 14.56 170.797 12.8 170.477 12.48C168.477 12.48 164.237 12.72 159.997 12.72C155.917 12.72 151.117 12.48 149.437 12.48C149.117 12.72 149.037 14.64 149.357 14.96ZM164.157 3.6C164.157 2.8 163.757 1.68 163.357 1.2C163.117 0.959999 162.237 0.479996 160.957 0.479996C159.437 0.479996 157.597 1.36 156.877 2C156.477 2.39999 156.397 4.08 156.477 4.48C156.797 6.16 157.437 7.2 158.637 7.92C159.117 8.24 162.077 8 162.397 7.68C163.517 6.88 164.157 5.28 164.157 3.6ZM200.417 47.84C200.177 47.76 197.857 48.24 197.697 48.72C197.937 51.68 199.377 59.92 200.097 60.96C202.497 62 207.217 63.44 212.017 63.44C210.417 65.52 208.177 68.64 208.177 68.64C208.097 68.8 208.017 69.28 208.017 69.28C212.977 70.8 214.017 72.88 214.017 74.32C214.017 76 212.737 76.96 210.817 76.96C209.137 76.96 207.537 76.8 205.617 75.76C205.457 76.16 205.297 77.44 205.377 77.92C206.097 79.28 207.857 80.32 209.857 80.32C212.417 80.32 219.217 77.12 219.217 72C219.217 70.64 218.737 68.96 217.377 67.84C216.337 66.96 215.057 66.24 213.777 65.52L215.297 63.2C224.897 61.92 229.777 55.52 229.777 48.56C229.777 42.72 226.417 39.36 222.177 36.72C219.457 35.12 215.217 33.12 212.017 31.04C208.577 28.8 206.577 26.64 206.577 22.16C206.577 18.32 209.457 14.08 214.817 14.08C217.217 14.08 219.537 14.48 221.377 15.76C223.297 17.04 224.017 19.44 224.497 24C224.817 24.4 226.657 24.4 227.057 23.92C227.377 19.92 227.857 15.2 228.417 12.56C227.377 12.56 225.457 12.24 223.617 11.92C222.257 11.68 219.217 11.28 215.937 11.28C207.137 11.28 200.017 16.24 200.017 24.88C200.017 32.16 204.817 36.08 212.097 40.24C219.457 44.4 222.657 46.8 222.657 51.92C222.657 58 217.857 60.24 214.017 60.24C211.057 60.24 208.337 59.6 206.337 58.08C203.617 56.16 201.937 52.96 200.417 47.84ZM258.439 63.52C260.519 63.52 264.919 63.28 268.919 61.28C277.959 56.72 282.679 48.32 282.679 36.16C282.679 23.12 275.159 11.2 260.519 11.2C254.999 11.2 248.199 13.12 244.599 14.96C243.479 16.16 240.999 21.6 240.519 23.12C240.279 23.6 242.199 24.8 242.679 24.72C244.999 20.4 246.839 17.76 249.079 16.8C251.159 15.84 254.439 15.28 256.999 15.28C270.999 15.28 275.239 28.24 275.239 38.32L275.159 39.52C275.079 39.84 274.919 39.92 274.839 39.92C272.679 39.92 254.839 39.92 250.839 40C247.159 40.08 242.439 40.56 240.279 41.28C240.119 41.68 239.639 43.04 239.639 44.56C239.639 54.08 246.519 63.52 258.439 63.52ZM261.159 60.16C251.719 60.16 247.319 52.4 247.399 45.84C247.399 44.8 248.359 43.6 249.159 43.44C251.879 42.88 264.999 42.8 274.599 43.04C274.839 43.04 274.919 43.36 274.919 43.52C274.759 47.44 273.079 60.16 261.159 60.16ZM292.082 14.96C293.762 15.2 295.282 15.36 296.562 15.76C298.642 16.24 299.122 17.12 299.202 19.44C299.362 21.68 299.362 28.72 299.362 37.76C299.362 42.24 299.202 52.88 299.122 54.64C298.962 57.68 298.242 58.56 296.322 59.04C295.282 59.28 293.922 59.44 292.162 59.68C291.762 60 291.762 61.84 292.242 62.24C293.842 62.24 297.362 62 302.642 62C308.242 62 311.922 62.24 313.602 62.24C314.082 61.92 314.162 59.92 313.842 59.68C311.842 59.36 310.482 59.2 309.202 58.88C307.282 58.48 306.722 57.68 306.482 55.2C306.402 52.72 306.322 45.44 306.322 41.04C306.322 40.96 306.562 40.64 306.722 40.64C307.842 40.64 311.442 40.56 312.482 40.72C313.122 40.72 313.922 41.04 314.402 41.84C317.522 46.24 322.482 53.92 325.522 57.6C328.562 60.96 330.562 62.24 335.042 62.24C337.362 62.24 343.682 62 346.002 62C352.402 62 353.922 62.24 355.522 62.24C355.842 61.84 356.002 59.92 355.682 59.68C354.082 59.44 352.722 59.28 351.762 58.96C349.282 58.4 349.122 57.6 349.202 56.16C349.282 54.4 351.682 48.16 353.282 43.76C353.362 43.6 353.842 43.04 354.162 43.04C355.042 42.96 355.602 42.96 360.722 42.96C364.082 42.96 367.202 42.96 368.482 43.04C368.642 43.04 369.122 43.28 369.202 43.6C370.562 47.04 372.882 53.36 373.842 56.72C374.082 57.44 374.002 58.32 372.962 58.8C371.762 59.2 370.082 59.44 368.482 59.68C368.162 59.92 368.242 61.92 368.482 62.24C370.162 62.16 375.202 62 379.362 62C383.282 62 387.282 62.16 389.362 62.24C389.682 61.92 389.842 59.92 389.522 59.68C383.682 58.88 383.122 58.48 380.642 52.96C377.762 46.16 368.882 21.52 367.282 17.04C366.722 15.44 366.322 13.92 366.002 12.64C365.682 12.64 364.802 12.72 363.122 12.72C361.682 12.72 360.722 12.64 360.402 12.64C360.242 13.76 359.602 15.76 358.962 17.44C357.202 22.56 348.562 45.44 344.642 54.64C343.122 58.24 342.242 58.8 340.562 58.8C337.362 58.72 335.282 57.2 333.682 55.44C329.762 51.36 323.442 42.96 320.642 38.48C320.562 38.32 320.642 38 320.802 37.84C325.842 35.68 329.842 31.6 329.842 25.12C329.842 18.4 324.882 12.56 315.442 12.56C312.322 12.56 307.922 12.72 301.762 12.72C299.282 12.72 294.162 12.48 292.322 12.48C291.922 12.64 291.762 14.56 292.082 14.96ZM310.002 15.52C318.562 15.52 322.322 19.92 322.322 27.28C322.322 32.48 319.762 35.2 317.202 36.4C315.842 37.04 312.882 37.28 306.722 37.2C306.562 37.2 306.322 36.96 306.322 36.72C306.322 30.8 306.322 19.92 306.562 17.12C306.562 16.8 306.962 16.08 307.122 16C307.922 15.6 309.442 15.52 310.002 15.52ZM361.042 21.52C361.122 21.44 361.362 21.36 361.442 21.44C362.802 24.72 365.922 33.6 367.442 38.24C367.602 38.56 367.362 38.96 367.122 38.96C366.322 39.04 363.762 39.04 361.842 39.04C359.042 39.04 356.242 39.04 355.442 38.96C355.202 38.88 355.122 38.64 355.122 38.32C356.562 33.92 359.682 25.52 361.042 21.52ZM394.409 14.96C395.929 15.2 397.929 15.44 399.129 15.76C400.489 16.08 401.289 16.88 401.369 19.04C401.449 22 401.449 27.36 401.449 36.96C401.449 44.72 401.369 52.48 401.209 54.96C401.049 57.84 400.409 58.48 398.649 58.96C397.289 59.36 394.729 59.52 393.369 59.68C392.889 59.92 392.969 62 393.449 62.24C398.729 62.16 408.569 62.56 412.249 62.56C416.569 62.56 421.129 62.08 424.809 60.4C430.969 57.76 434.969 53.28 434.969 46.56C434.969 39.6 429.849 35.84 423.689 34.32C423.529 34.24 423.529 34.08 423.689 34C428.249 32.16 431.369 28.4 431.369 23.84C431.369 14.4 422.809 12.56 417.129 12.56C412.009 12.56 408.569 12.72 403.769 12.72C398.889 12.72 395.929 12.48 394.489 12.48C394.089 12.72 394.089 14.64 394.409 14.96ZM412.089 15.6C419.529 15.6 424.009 18.64 424.009 25.6C424.009 28.72 422.809 31.52 420.329 32.96C419.369 33.44 417.689 33.84 414.089 33.84C411.849 33.84 409.769 33.84 408.809 33.76C408.649 33.76 408.409 33.44 408.409 33.28C408.409 27.84 408.489 19.6 408.649 17.12C408.649 16.72 408.969 15.92 409.289 15.84C410.169 15.68 411.369 15.6 412.089 15.6ZM416.809 59.2C414.889 59.2 412.009 58.96 410.569 58.08C409.609 57.6 408.729 56 408.649 54.8C408.409 51.6 408.409 42.4 408.409 37.36C408.409 37.2 408.649 37.04 408.889 36.96C409.449 36.8 411.849 36.88 412.729 36.88C421.929 36.88 427.209 40.96 427.209 48.4C427.209 55.84 422.889 59.2 416.809 59.2ZM443.444 14.96C445.684 15.28 447.204 15.52 448.484 15.92C450.164 16.32 450.324 17.44 450.564 19.52C450.724 23.28 450.724 28.24 450.724 34.88C450.724 46.24 450.724 53.28 450.404 55.6C450.244 57.28 449.924 58.4 447.524 58.96C446.404 59.28 445.204 59.44 443.364 59.68C442.964 59.92 442.964 62 443.364 62.24C445.604 62.24 450.164 62 454.804 62C458.884 62 463.764 62.24 465.604 62.24C466.004 62 466.164 59.92 465.844 59.68C463.764 59.36 462.004 59.04 460.884 58.8C458.484 58.16 458.084 56.96 458.004 54.56C457.844 51.76 457.764 44.16 457.764 36.4C457.764 29.36 457.764 22.96 458.004 19.6C458.084 17.12 458.404 16.16 460.324 15.6C461.284 15.36 462.724 15.2 464.564 14.96C464.964 14.56 464.884 12.8 464.564 12.48C462.564 12.48 458.324 12.72 454.084 12.72C450.004 12.72 445.204 12.48 443.524 12.48C443.204 12.72 443.124 14.64 443.444 14.96Z" fill="#EF9700"/>
</svg>
