<svg width="26" height="61" viewBox="0 0 26 61" fill="none" xmlns="http://www.w3.org/2000/svg">
<path d="M15.6889 48.825H10.1519C5.18194 48.825 1.11694 44.76 1.11694 39.791V20.704C1.11694 15.735 5.18294 11.67 10.1519 11.67H15.6879C20.6579 11.67 24.7229 15.735 24.7229 20.704V39.791C24.7229 44.76 20.6569 48.825 15.6879 48.825H15.6889Z" stroke="#E4E4E4" stroke-width="2" stroke-miterlimit="10" stroke-linecap="round" stroke-linejoin="round"/>
<path d="M18.1901 54.34L12.9741 59.556M7.71606 54.34L12.9321 59.556M7.71606 6.216L12.9321 1M18.1901 6.216L12.9741 1M13.0041 26.479H12.8361C12.2981 26.4777 11.7825 26.2634 11.4021 25.883C11.0217 25.5026 10.8074 24.987 10.8061 24.449V18.404C10.8061 17.288 11.7201 16.375 12.8361 16.375H13.0041C14.1201 16.375 15.0341 17.288 15.0341 18.405V24.451C15.0341 25.567 14.1201 26.481 13.0041 26.481V26.479Z" stroke="#E4E4E4" stroke-width="2" stroke-miterlimit="10" stroke-linecap="round" stroke-linejoin="round"/>
</svg>
